{
.appVersion = "1352";
copyright = "Copyright 2019 The Hanuman Project Authors (https://github.com/danhhong/Hanuman)";
customParameters = (
{
name = "Use Typo Metrics";
value = 1;
},
{
name = license;
value = "This Font Software is licensed under the SIL Open Font License, Version 1.1. This license is available with a FAQ at: https://scripts.sil.org/OFL";
},
{
name = licenseURL;
value = "https://scripts.sil.org/OFL";
},
{
name = fsType;
value = (
);
}
);
date = "2020-10-31 04:20:23 +0000";
designer = "Danh Hong";
designerURL = "http://www.nextspell.com";
disablesAutomaticAlignment = 1;
disablesNiceNames = 1;
familyName = Hanuman;
featurePrefixes = (
{
code = "lookup lookup_0 {\012sub uni17B7 by uni17B7.r;\012sub uni17B8 by uni17B8.r;\012sub uni17B9 by uni17B9.r;\012sub uni17BA by uni17BA.r;\012sub uni17BE by uni17B8.r;\012sub uni17C6 by uni17C6.r;\012sub uni17C9 by uni17C9.r;\012sub uni17CD by uni17CD.r;\012sub uni17B7_17CD by iMark_17CDkhmer.r;\012} lookup_0;\012";
name = lookup_0;
},
{
code = "lookup lookup_1 {\012sub uni17B7 by uni17B7.a;\012sub uni17B8 by uni17B8.a;\012sub uni17B9 by uni17B9.a;\012sub uni17BA by uni17BA.a;\012sub uni17BE by uni17B8.a;\012sub uni17C6 by uni17C6.a;\012sub uni17CE by uni17CE.a;\012sub uni17D0 by uni17D0.a;\012} lookup_1;\012";
name = lookup_1;
},
{
code = "lookup lookup_10 {\012sub uni17BB by uni17BB.n;\012sub uni17BC by uni17BC.n;\012sub uni17BD by uni17BD.n;\012} lookup_10;\012";
name = lookup_10;
},
{
code = "lookup lookup_11 {\012sub uni17BB.b by uni17BB.n2;\012sub uni17BC.b by uni17BC.n2;\012sub uni17BD.b by uni17BD.n2;\012} lookup_11;\012";
name = lookup_11;
},
{

glyphs = (
{
glyphname = A;
lastChange = "2021-05-27 10:38:10 +0000";
layers = (
{
layerId = "E37246A9-A376-4020-9DA5-E0C9FF7935B5";
paths = (
{
closed = 1;
nodes = (
"221 54 LINE",
"363 435 LINE",
"1075 435 LINE",
"1218 54 LINE",
"1075 54 LINE",
"1075 0 LINE",
"1384 0 LINE",
"1384 54 LINE",
"1277 54 LINE",
"752 1456 LINE",
"686 1456 LINE",
"162 54 LINE",
"55 54 LINE",
"55 0 LINE",
"364 0 LINE",
"364 54 LINE"
);
},
{
closed = 1;
nodes = (
"722 1391 LINE",
"750 1309 LINE",
"1055 489 LINE",
"383 489 LINE",
"689 1309 LINE",
"716 1391 LINE"
);
}
);
width = 1472;
},
{
layerId = "142AFF07-46EF-45A1-8A7E-F20FA79F7038";
paths = (
{
closed = 1;
nodes = (
"293 96 LINE",
"415 425 LINE",
"1068 425 LINE",
"1189 96 LINE",
"1061 87 LINE",
"1061 0 LINE",
"1420 0 LINE",
"1420 87 LINE",
"1313 94 LINE",
"800 1456 LINE",
"686 1456 LINE",
"169 94 LINE",
"62 87 LINE",
"62 0 LINE",
"421 0 LINE",
"421 87 LINE"
);
},
{
closed = 1;
nodes = (
"746 1304 LINE",
"766 1245 LINE",
"1029 530 LINE",
"454 530 LINE",
"719 1245 LINE",
"740 1304 LINE"
);
}
);
width = 1500;
},
{
layerId = "1A30CC2E-2F0E-43C1-8400-CBCC094AAC97";
paths = (
{
closed = 1;
nodes = (
"1059 413 LINE",
"1155 145 LINE",
"1045 126 LINE",
"1045 0 LINE",
"1463 0 LINE",
"1463 126 LINE",
"1356 141 LINE",
"856 1456 LINE",
"687 1456 LINE",
"178 141 LINE",
"70 126 LINE",
"70 0 LINE",
"487 0 LINE",
"487 126 LINE",
"377 145 LINE",
"476 413 LINE"
);
},
{
closed = 1;
nodes = (
"999 578 LINE",
"537 578 LINE",
"755 1170 LINE",
"767 1203 LINE",
"773 1203 LINE",
"785 1170 LINE"
);
}
);
userData = {
assembly = "NPUSHB[ ]	/* 43 values pushed */\01221 1 4 1 15 12 11 8 3 0 6 0 3 2 76 0 4 0 3 0 4 3 104 0 1 1 31 77 2 1 0 0 32 0 78 20 19 19 19 17 5 8 27 \012CALL[ ]	/* CallFunction */";
};
width = 1533;
},
{
layerId = "E08E4BD2-F9DD-4A22-B137-462FE0EF4830";
paths = (
{
closed = 1;
nodes = (
"436 193 LINE",
"500 393 LINE",
"1012 393 LINE",
"1076 193 LINE",
"975 175 LINE",
"975 0 LINE",
"1471 0 LINE",
"1471 175 LINE",
"1367 190 LINE",
"907 1456 LINE",
"608 1456 LINE",
"145 190 LINE",
"41 175 LINE",
"41 0 LINE",
"537 0 LINE",
"537 175 LINE"
);
},
{
closed = 1;
nodes = (
"759 1151 LINE",
"773 1107 LINE",
"943 608 LINE",
"569 608 LINE",
"738 1104 LINE",
"753 1151 LINE"
);
}
);
width = 1512;
},
{
layerId = "3540F6DD-AC2C-489F-A09A-29A5B6885314";
paths = (
{
closed = 1;
nodes = (
"473 223 LINE",
"515 381 LINE",
"983 381 LINE",
"1027 223 LINE",
"932 205 LINE",
"932 0 LINE",
"1476 0 LINE",
"1476 205 LINE",
"1374 220 LINE",
"939 1456 LINE",
"559 1456 LINE",
"125 220 LINE",
"23 205 LINE",
"23 0 LINE",
"568 0 LINE",
"568 205 LINE"
);
},
{
closed = 1;
nodes = (
"750 1119 LINE",
"766 1068 LINE",
"908 627 LINE",
"589 627 LINE",
"727 1063 LINE",
"744 1119 LINE"
);
}
);
width = 1499;
}
);
note = A;
unicode = 0041;
},
{
glyphname = B;
lastChange = "2021-05-27 10:38:10 +0000";
layers = (
{
layerId = "E37246A9-A376-4020-9DA5-E0C9FF7935B5";
paths = (
{
closed = 1;
nodes = (
"980 0 OFFCURVE",
"1159 146 OFFCURVE",
"1159 401 CURVE SMOOTH",
"1159 518 OFFCURVE",
"1098 623 OFFCURVE",
"1001 691 CURVE SMOOTH",
"952 724 OFFCURVE",
"898 745 OFFCURVE",
"837 753 CURVE",
"1000 782 OFFCURVE",
"1093 910 OFFCURVE",
"1093 1083 CURVE SMOOTH",
"1093 1332 OFFCURVE",
"918 1456 OFFCURVE",
"617 1456 CURVE SMOOTH",
"71 1456 LINE",
"71 1402 LINE",
"234 1402 LINE",
"234 54 LINE",
"71 54 LINE",
"71 0 LINE",
"709 0 LINE SMOOTH"
);
},
{
closed = 1;
nodes = (
"894 1402 OFFCURVE",
"1038 1295 OFFCURVE",
"1038 1087 CURVE SMOOTH",
"1038 875 OFFCURVE",
"902 773 OFFCURVE",
"637 773 CURVE SMOOTH",
"288 773 LINE",
"288 1402 LINE",
"617 1402 LINE SMOOTH"
);
},
{
closed = 1;
nodes = (
"882 719 OFFCURVE",
"999 657 OFFCURVE",
"1060 561 CURVE SMOOTH",
"1090 512 OFFCURVE",
"1105 458 OFFCURVE",
"1105 399 CURVE SMOOTH",
"1105 182 OFFCURVE",
"954 54 OFFCURVE",
"709 54 CURVE SMOOTH",
"288 54 LINE",
"288 719 LINE",
"719 719 LINE SMOOTH"
);
}
);
width = 1247;
},
{
layerId = "142AFF07-46EF-45A1-8A7E-F20FA79F7038";
paths = (
{
closed = 1;
nodes = (
"1019 0 OFFCURVE",
"1202 145 OFFCURVE",
"1202 406 CURVE SMOOTH",
"1202 525 OFFCURVE",
"1148 629 OFFCURVE",
"1057 697 CURVE SMOOTH",
"1011 731 OFFCURVE",
"958 753 OFFCURVE",
"898 763 CURVE",
"1049 802 OFFCURVE",
"1140 921 OFFCURVE",
"1140 1073 CURVE SMOOTH",
"1140 1329 OFFCURVE",
"962 1456 OFFCURVE",
"659 1456 CURVE SMOOTH",
"76 1456 LINE",
"76 1368 LINE",
"239 1355 LINE",
"239 100 LINE",
"76 87 LINE",
"76 0 LINE",
"738 0 LINE SMOOTH"
);
},
{
closed = 1;
nodes = (
"895 1355 OFFCURVE",
"1019 1262 OFFCURVE",
"1019 1077 CURVE SMOOTH",
"1019 898 OFFCURVE",
"902 803 OFFCURVE",
"694 803 CURVE SMOOTH",
"359 803 LINE",
"359 1355 LINE",
"659 1355 LINE SMOOTH"
);
},
{
closed = 1;
nodes = (
"897 702 OFFCURVE",
"996 649 OFFCURVE",
"1045 559 CURVE SMOOTH",
"1070 514 OFFCURVE",
"1082 462 OFFCURVE",
"1082 404 CURVE SMOOTH",
"1082 212 OFFCURVE",
"953 100 OFFCURVE",
"738 100 CURVE SMOOTH",
"359 100 LINE",
"359 702 LINE",
"757 702 LINE SMOOTH"
);
}
);
width = 1282;
},
{
layerId = "1A30CC2E-2F0E-43C1-8400-CBCC094AAC97";
paths = (
{
closed = 1;
nodes = (
"1067 0 OFFCURVE",
"1253 144 OFFCURVE",
"1253 411 CURVE SMOOTH",
"1253 531 OFFCURVE",
"1205 635 OFFCURVE",
"1121 705 CURVE SMOOTH",
"1079 740 OFFCURVE",
"1029 763 OFFCURVE",
"970 775 CURVE",
"1105 824 OFFCURVE",
"1194 933 OFFCURVE",
"1194 1062 CURVE SMOOTH",
"1194 1325 OFFCURVE",
"1013 1456 OFFCURVE",
"709 1456 CURVE SMOOTH",
"81 1456 LINE",
"81 1329 LINE",
"244 1301 LINE",
"244 154 LINE",
"81 126 LINE",
"81 0 LINE",
"771 0 LINE SMOOTH"
);
},
{
closed = 1;
nodes = (
"896 1301 OFFCURVE",
"997 1223 OFFCURVE",
"997 1066 CURVE SMOOTH",
"997 925 OFFCURVE",
"901 837 OFFCURVE",
"760 837 CURVE SMOOTH",
"441 837 LINE",
"441 1301 LINE",
"709 1301 LINE SMOOTH"
);
},
{
closed = 1;
nodes = (
"916 683 OFFCURVE",
"991 637 OFFCURVE",
"1028 556 CURVE SMOOTH",
"1046 515 OFFCURVE",
"1055 466 OFFCURVE",
"1055 409 CURVE SMOOTH",
"1055 246 OFFCURVE",
"951 154 OFFCURVE",
"771 154 CURVE SMOOTH",
"441 154 LINE",
"441 683 LINE",
"801 683 LINE SMOOTH"
);
}
);
userData = {
assembly = "NPUSHB[ ]	/* 81 values pushed */\0125 1 5 1 14 1 3 4 2 1 0 2 3 76 4 1 5 3 1 2 2 75 0 4 7 1 3 2 4 3 103 8 1 5 5 1 95 0 1 1 31 77 0 2 2 0 95 6 1 0 0 32 0 78 31 31 21 21 1 0 31 39 31 38 34 32 21 30 21 29 24 22 9 6 0 20 1 20 9 8 22 \012CALL[ ]	/* CallFunction */";
};
width = 1322;
},
{
layerId = "E08E4BD2-F9DD-4A22-B137-462FE0EF4830";
paths = (
{
closed = 1;
nodes = (
"1109 0 OFFCURVE",
"1301 145 OFFCURVE",
"1301 424 CURVE SMOOTH",
"1301 532 OFFCURVE",
"1263 626 OFFCURVE",
"1185 690 CURVE SMOOTH",
"1146 722 OFFCURVE",
"1097 744 OFFCURVE",
"1039 757 CURVE",
"1175 810 OFFCURVE",
"1248 922 OFFCURVE",
"1248 1057 CURVE SMOOTH",
"1248 1322 OFFCURVE",
"1046 1456 OFFCURVE",
"703 1456 CURVE SMOOTH",
"56 1456 LINE",
"56 1280 LINE",
"211 1250 LINE",
"211 205 LINE",
"56 175 LINE",
"56 0 LINE",
"772 0 LINE SMOOTH"
);
},
{
closed = 1;
nodes = (
"871 1231 OFFCURVE",
"956 1169 OFFCURVE",
"956 1034 CURVE SMOOTH",
"956 911 OFFCURVE",
"869 846 OFFCURVE",
"713 846 CURVE SMOOTH",
"503 846 LINE",
"503 1231 LINE",
"703 1231 LINE SMOOTH"
);
},
{
closed = 1;
nodes = (
"894 644 OFFCURVE",
"956 610 OFFCURVE",
"987 545 CURVE SMOOTH",
"1002 512 OFFCURVE",
"1010 472 OFFCURVE",
"1010 424 CURVE SMOOTH",
"1010 292 OFFCURVE",
"927 224 OFFCURVE",
"772 224 CURVE SMOOTH",
"503 224 LINE",
"503 644 LINE",
"794 644 LINE SMOOTH"
);
}
);
width = 1344;
},
{
layerId = "3540F6DD-AC2C-489F-A09A-29A5B6885314";
paths = (
{
closed = 1;
nodes = (
"1136 0 OFFCURVE",
"1331 147 OFFCURVE",
"1331 432 CURVE SMOOTH",
"1331 532 OFFCURVE",
"1297 621 OFFCURVE",
"1224 682 CURVE SMOOTH",
"1187 712 OFFCURVE",
"1140 733 OFFCURVE",
"1082 746 CURVE",
"1218 802 OFFCURVE",
"1282 917 OFFCURVE",
"1282 1054 CURVE SMOOTH",
"1282 1321 OFFCURVE",
"1066 1456 OFFCURVE",
"699 1456 CURVE SMOOTH",
"40 1456 LINE",
"40 1250 LINE",
"191 1218 LINE",
"191 237 LINE",
"40 205 LINE",
"40 0 LINE",
"773 0 LINE SMOOTH"
);
},
{
closed = 1;
nodes = (
"855 1188 OFFCURVE",
"931 1135 OFFCURVE",
"931 1014 CURVE SMOOTH",
"931 903 OFFCURVE",
"849 852 OFFCURVE",
"684 852 CURVE SMOOTH",
"542 852 LINE",
"542 1188 LINE",
"699 1188 LINE SMOOTH"
);
},
{
closed = 1;
nodes = (
"881 620 OFFCURVE",
"935 593 OFFCURVE",
"962 538 CURVE SMOOTH",
"975 510 OFFCURVE",
"982 475 OFFCURVE",
"982 433 CURVE SMOOTH",
"982 321 OFFCURVE",
"912 267 OFFCURVE",
"773 267 CURVE SMOOTH",
"542 267 LINE",
"542 620 LINE",
"790 620 LINE SMOOTH"
);
}
);
width = 1358;
}
);
note = B;
unicode = 0042;
},
{
glyphname = C;
lastChange = "2021-05-27 10:38:10 +0000";
layers = (
{
layerId = "E37246A9-A376-4020-9DA5-E0C9FF7935B5";
paths = (
{
closed = 1;
nodes = (
"958 -21 OFFCURVE",
"1106 19 OFFCURVE",
"1231 103 CURVE",
"1231 372 LINE",
"1176 372 LINE",
"1176 137 LINE",
"1081 73 OFFCURVE",
"938 33 OFFCURVE",
"791 33 CURVE SMOOTH",
"538 33 OFFCURVE",
"353 155 OFFCURVE",
"257 361 CURVE SMOOTH",
"208 464 OFFCURVE",
"184 583 OFFCURVE",
"184 719 CURVE SMOOTH",
"184 739 LINE SMOOTH",
"184 1011 OFFCURVE",
"288 1222 OFFCURVE",
"464 1337 CURVE SMOOTH",
"551 1394 OFFCURVE",
"652 1423 OFFCURVE",
"767 1423 CURVE SMOOTH",
"895 1423 OFFCURVE",
"980 1402 OFFCURVE",
"1053 1365 CURVE SMOOTH",
"1089 1346 OFFCURVE",
"1125 1323 OFFCURVE",
"1161 1296 CURVE",
"1161 1062 LINE",
"1216 1062 LINE",
"1216 1319 LINE",
"1097 1423 OFFCURVE",
"978 1477 OFFCURVE",
"767 1477 CURVE SMOOTH",
"514 1477 OFFCURVE",
"317 1346 OFFCURVE",
"210 1124 CURVE SMOOTH",
"157 1013 OFFCURVE",
"130 884 OFFCURVE",
"130 737 CURVE SMOOTH",
"130 719 LINE SMOOTH",
"130 426 OFFCURVE",
"236 197 OFFCURVE",
"434 73 CURVE SMOOTH",
"533 10 OFFCURVE",
"653 -21 OFFCURVE",
"794 -21 CURVE SMOOTH"
);
}
);
width = 1348;
},
{
layerId = "142AFF07-46EF-45A1-8A7E-F20FA79F7038";
paths = (
{
closed = 1;
nodes = (
"932 -21 OFFCURVE",
"1084 19 OFFCURVE",
"1203 96 CURVE",
"1203 386 LINE",
"1102 386 LINE",
"1092 166 LINE",
"1013 115 OFFCURVE",
"893 82 OFFCURVE",
"770 82 CURVE SMOOTH",
"542 82 OFFCURVE",
"378 190 OFFCURVE",
"292 381 CURVE SMOOTH",
"249 476 OFFCURVE",
"227 589 OFFCURVE",
"227 718 CURVE SMOOTH",
"227 739 LINE SMOOTH",
"227 990 OFFCURVE",
"315 1185 OFFCURVE",
"471 1293 CURVE SMOOTH",
"548 1346 OFFCURVE",
"640 1373 OFFCURVE",
"746 1373 CURVE SMOOTH",
"851 1373 OFFCURVE",
"928 1356 OFFCURVE",
"993 1325 CURVE SMOOTH",
"1025 1310 OFFCURVE",
"1056 1291 OFFCURVE",
"1085 1269 CURVE",
"1095 1037 LINE",
"1197 1037 LINE",
"1197 1320 LINE",
"1085 1417 OFFCURVE",
"946 1477 OFFCURVE",
"746 1477 CURVE SMOOTH",
"487 1477 OFFCURVE",
"290 1344 OFFCURVE",
"186 1122 CURVE SMOOTH",
"133 1011 OFFCURVE",
"107 882 OFFCURVE",
"107 737 CURVE SMOOTH",
"107 718 LINE SMOOTH",
"107 430 OFFCURVE",
"209 200 OFFCURVE",
"406 74 CURVE SMOOTH",
"504 11 OFFCURVE",
"625 -21 OFFCURVE",
"769 -21 CURVE SMOOTH"
);
}
);
width = 1321;
},
{
layerId = "1A30CC2E-2F0E-43C1-8400-CBCC094AAC97";
paths = (
{
closed = 1;
nodes = (
"900 -21 OFFCURVE",
"1061 19 OFFCURVE",
"1170 87 CURVE",
"1170 403 LINE",
"1016 403 LINE",
"994 200 LINE",
"935 164 OFFCURVE",
"839 139 OFFCURVE",
"746 139 CURVE SMOOTH",
"546 139 OFFCURVE",
"405 232 OFFCURVE",
"333 405 CURVE SMOOTH",
"296 491 OFFCURVE",
"278 595 OFFCURVE",
"278 717 CURVE SMOOTH",
"278 740 LINE SMOOTH",
"278 965 OFFCURVE",
"347 1143 OFFCURVE",
"479 1241 CURVE SMOOTH",
"545 1290 OFFCURVE",
"626 1314 OFFCURVE",
"721 1314 CURVE SMOOTH",
"800 1314 OFFCURVE",
"867 1302 OFFCURVE",
"923 1279 CURVE SMOOTH",
"950 1268 OFFCURVE",
"975 1254 OFFCURVE",
"996 1237 CURVE",
"1017 1007 LINE",
"1174 1007 LINE",
"1174 1321 LINE",
"1071 1412 OFFCURVE",
"910 1477 OFFCURVE",
"722 1477 CURVE SMOOTH",
"455 1477 OFFCURVE",
"260 1341 OFFCURVE",
"157 1119 CURVE SMOOTH",
"106 1008 OFFCURVE",
"80 881 OFFCURVE",
"80 738 CURVE SMOOTH",
"80 717 LINE SMOOTH",
"80 434 OFFCURVE",
"178 203 OFFCURVE",
"374 75 CURVE SMOOTH",
"471 11 OFFCURVE",
"593 -21 OFFCURVE",
"739 -21 CURVE SMOOTH"
);
}
);
userData = {
assembly = "NPUSHB[ ]	/* 66 values pushed */\01212 1 3 1 34 1 0 4 2 76 0 2 3 5 3 2 5 128 0 5 4 3 5 4 126 0 3 3 1 97 0 1 1 37 77 0 4 4 0 97 6 1 0 0 38 0 78 1 0 33 32 29 27 20 18 14 13 10 8 0 36 1 36 7 8 22 \012CALL[ ]	/* CallFunction */";
};
width = 1290;
},
{
layerId = "E08E4BD2-F9DD-4A22-B137-462FE0EF4830";
paths = (
{
closed = 1;
nodes = (
"956 -21 OFFCURVE",
"1130 37 OFFCURVE",
"1243 112 CURVE",
"1243 460 LINE",
"1026 460 LINE",
"996 255 LINE",
"927 224 OFFCURVE",
"838 203 OFFCURVE",
"754 203 CURVE SMOOTH",
"586 203 OFFCURVE",
"461 289 OFFCURVE",
"394 438 CURVE SMOOTH",
"361 513 OFFCURVE",
"344 601 OFFCURVE",
"344 703 CURVE SMOOTH",
"344 754 LINE SMOOTH",
"344 958 OFFCURVE",
"409 1110 OFFCURVE",
"528 1191 CURVE SMOOTH",
"587 1232 OFFCURVE",
"658 1252 OFFCURVE",
"741 1252 CURVE SMOOTH",
"812 1252 OFFCURVE",
"872 1240 OFFCURVE",
"924 1217 CURVE SMOOTH",
"950 1206 OFFCURVE",
"974 1192 OFFCURVE",
"996 1176 CURVE",
"1026 955 LINE",
"1243 955 LINE",
"1243 1307 LINE",
"1107 1422 OFFCURVE",
"931 1477 OFFCURVE",
"734 1477 CURVE SMOOTH",
"453 1477 OFFCURVE",
"245 1346 OFFCURVE",
"135 1128 CURVE SMOOTH",
"80 1019 OFFCURVE",
"52 893 OFFCURVE",
"52 752 CURVE SMOOTH",
"52 703 LINE SMOOTH",
"52 407 OFFCURVE",
"171 186 OFFCURVE",
"380 68 CURVE SMOOTH",
"485 9 OFFCURVE",
"608 -21 OFFCURVE",
"749 -21 CURVE SMOOTH"
);
}
);
width = 1321;
},
{
layerId = "3540F6DD-AC2C-489F-A09A-29A5B6885314";
paths = (
{
closed = 1;
nodes = (
"990 -21 OFFCURVE",
"1172 48 OFFCURVE",
"1288 128 CURVE",
"1288 495 LINE",
"1032 495 LINE",
"997 289 LINE",
"921 261 OFFCURVE",
"838 243 OFFCURVE",
"759 243 CURVE SMOOTH",
"611 243 OFFCURVE",
"495 323 OFFCURVE",
"432 459 CURVE SMOOTH",
"401 526 OFFCURVE",
"385 605 OFFCURVE",
"385 694 CURVE SMOOTH",
"385 763 LINE SMOOTH",
"385 954 OFFCURVE",
"448 1089 OFFCURVE",
"559 1160 CURVE SMOOTH",
"614 1195 OFFCURVE",
"679 1213 OFFCURVE",
"753 1213 CURVE SMOOTH",
"818 1213 OFFCURVE",
"875 1201 OFFCURVE",
"925 1178 CURVE SMOOTH",
"950 1167 OFFCURVE",
"973 1153 OFFCURVE",
"996 1138 CURVE",
"1031 923 LINE",
"1286 923 LINE",
"1286 1298 LINE",
"1129 1429 OFFCURVE",
"944 1477 OFFCURVE",
"741 1477 CURVE SMOOTH",
"450 1477 OFFCURVE",
"235 1348 OFFCURVE",
"121 1133 CURVE SMOOTH",
"64 1025 OFFCURVE",
"35 901 OFFCURVE",
"35 761 CURVE SMOOTH",
"35 694 LINE SMOOTH",
"35 390 OFFCURVE",
"167 175 OFFCURVE",
"384 63 CURVE SMOOTH",
"493 7 OFFCURVE",
"616 -21 OFFCURVE",
"755 -21 CURVE SMOOTH"
);
}
);
width = 1340;
}
);
note = C;
unicode = 0043;
},
{
glyphname = D;
lastChange = "2021-05-27 10:38:10 +0000";
layers = (
{
layerId = "E37246A9-A376-4020-9DA5-E0C9FF7935B5";
paths = (
{
closed = 1;
nodes = (
"868 0 OFFCURVE",
"1060 131 OFFCURVE",
"1168 347 CURVE SMOOTH",
"1221 455 OFFCURVE",
"1248 579 OFFCURVE",
"1248 719 CURVE SMOOTH",
"1248 737 LINE SMOOTH",
"1248 1017 OFFCURVE",
"1134 1240 OFFCURVE",
"948 1364 CURVE SMOOTH",
"855 1425 OFFCURVE",
"748 1456 OFFCURVE",
"629 1456 CURVE SMOOTH",
"71 1456 LINE",
"71 1402 LINE",
"234 1402 LINE",
"234 54 LINE",
"71 54 LINE",
"71 0 LINE",
"629 0 LINE SMOOTH"
);
},
{
closed = 1;
nodes = (
"846 1402 OFFCURVE",
"1023 1279 OFFCURVE",
"1121 1080 CURVE SMOOTH",
"1170 980 OFFCURVE",
"1194 867 OFFCURVE",
"1194 740 CURVE SMOOTH",
"1194 719 LINE SMOOTH",
"1194 464 OFFCURVE",
"1090 256 OFFCURVE",
"920 141 CURVE SMOOTH",
"835 83 OFFCURVE",
"738 54 OFFCURVE",
"629 54 CURVE SMOOTH",
"288 54 LINE",
"288 1402 LINE",
"629 1402 LINE SMOOTH"
);
}
);
width = 1386;
},
{
layerId = "142AFF07-46EF-45A1-8A7E-F20FA79F7038";
paths = (
{
closed = 1;
nodes = (
"891 0 OFFCURVE",
"1084 132 OFFCURVE",
"1189 348 CURVE SMOOTH",
"1242 455 OFFCURVE",
"1268 578 OFFCURVE",
"1268 716 CURVE SMOOTH",
"1268 740 LINE SMOOTH",
"1268 1017 OFFCURVE",
"1154 1240 OFFCURVE",
"966 1364 CURVE SMOOTH",
"872 1425 OFFCURVE",
"763 1456 OFFCURVE",
"639 1456 CURVE SMOOTH",
"76 1456 LINE",
"76 1368 LINE",
"239 1355 LINE",
"239 100 LINE",
"76 87 LINE",
"76 0 LINE",
"644 0 LINE SMOOTH"
);
},
{
closed = 1;
nodes = (
"842 1355 OFFCURVE",
"998 1241 OFFCURVE",
"1084 1057 CURVE SMOOTH",
"1127 964 OFFCURVE",
"1148 859 OFFCURVE",
"1148 742 CURVE SMOOTH",
"1148 716 LINE SMOOTH",
"1148 484 OFFCURVE",
"1057 290 OFFCURVE",
"905 182 CURVE SMOOTH",
"829 127 OFFCURVE",
"740 100 OFFCURVE",
"639 100 CURVE SMOOTH",
"359 100 LINE",
"359 1355 LINE",
"639 1355 LINE SMOOTH"
);
}
);
width = 1372;
},
{
layerId = "1A30CC2E-2F0E-43C1-8400-CBCC094AAC97";
paths = (
{
closed = 1;
nodes = (
"918 0 OFFCURVE",
"1111 133 OFFCURVE",
"1214 349 CURVE SMOOTH",
"1265 456 OFFCURVE",
"1291 577 OFFCURVE",
"1291 712 CURVE SMOOTH",
"1291 743 LINE SMOOTH",
"1291 1019 OFFCURVE",
"1179 1241 OFFCURVE",
"988 1364 CURVE SMOOTH",
"892 1425 OFFCURVE",
"780 1456 OFFCURVE",
"651 1456 CURVE SMOOTH",
"81 1456 LINE",
"81 1329 LINE",
"244 1301 LINE",
"244 154 LINE",
"81 126 LINE",
"81 0 LINE",
"661 0 LINE SMOOTH"
);
},
{
closed = 1;
nodes = (
"835 1301 OFFCURVE",
"969 1197 OFFCURVE",
"1041 1030 CURVE SMOOTH",
"1076 946 OFFCURVE",
"1094 851 OFFCURVE",
"1094 745 CURVE SMOOTH",
"1094 712 LINE SMOOTH",
"1094 507 OFFCURVE",
"1020 330 OFFCURVE",
"888 230 CURVE SMOOTH",
"822 179 OFFCURVE",
"743 154 OFFCURVE",
"651 154 CURVE SMOOTH",
"441 154 LINE",
"441 1301 LINE",
"651 1301 LINE SMOOTH"
);
}
);
userData = {
assembly = "NPUSHB[ ]	/* 60 values pushed */\0125 1 3 1 2 1 0 2 2 76 4 1 3 3 1 2 2 75 5 1 3 3 1 95 0 1 1 31 77 0 2 2 0 95 4 1 0 0 32 0 78 17 17 1 0 17 28 17 27 20 18 9 6 0 16 1 16 6 8 22 \012CALL[ ]	/* CallFunction */";
};
width = 1356;
},
{
layerId = "E08E4BD2-F9DD-4A22-B137-462FE0EF4830";
paths = (
{
closed = 1;
nodes = (
"959 0 OFFCURVE",
"1163 130 OFFCURVE",
"1273 346 CURVE SMOOTH",
"1328 453 OFFCURVE",
"1355 576 OFFCURVE",
"1355 714 CURVE SMOOTH",
"1355 741 LINE SMOOTH",
"1355 1020 OFFCURVE",
"1238 1243 OFFCURVE",
"1039 1365 CURVE SMOOTH",
"940 1426 OFFCURVE",
"825 1456 OFFCURVE",
"695 1456 CURVE SMOOTH",
"56 1456 LINE",
"56 1280 LINE",
"213 1246 LINE",
"213 208 LINE",
"56 175 LINE",
"56 0 LINE",
"699 0 LINE SMOOTH"
);
},
{
closed = 1;
nodes = (
"845 1232 OFFCURVE",
"958 1144 OFFCURVE",
"1018 997 CURVE SMOOTH",
"1047 923 OFFCURVE",
"1062 838 OFFCURVE",
"1062 742 CURVE SMOOTH",
"1062 714 LINE SMOOTH",
"1062 525 OFFCURVE",
"1001 371 OFFCURVE",
"889 287 CURVE SMOOTH",
"833 244 OFFCURVE",
"765 223 OFFCURVE",
"684 223 CURVE SMOOTH",
"505 223 LINE",
"505 1232 LINE",
"684 1232 LINE SMOOTH"
);
}
);
width = 1426;
},
{
layerId = "3540F6DD-AC2C-489F-A09A-29A5B6885314";
paths = (
{
closed = 1;
nodes = (
"985 0 OFFCURVE",
"1194 128 OFFCURVE",
"1309 344 CURVE SMOOTH",
"1366 451 OFFCURVE",
"1395 575 OFFCURVE",
"1395 716 CURVE SMOOTH",
"1395 739 LINE SMOOTH",
"1395 1020 OFFCURVE",
"1274 1243 OFFCURVE",
"1071 1365 CURVE SMOOTH",
"970 1426 OFFCURVE",
"853 1456 OFFCURVE",
"722 1456 CURVE SMOOTH",
"40 1456 LINE",
"40 1250 LINE",
"193 1212 LINE",
"193 242 LINE",
"40 205 LINE",
"40 0 LINE",
"722 0 LINE SMOOTH"
);
},
{
closed = 1;
nodes = (
"852 1189 OFFCURVE",
"952 1111 OFFCURVE",
"1004 976 CURVE SMOOTH",
"1029 909 OFFCURVE",
"1042 830 OFFCURVE",
"1042 740 CURVE SMOOTH",
"1042 716 LINE SMOOTH",
"1042 536 OFFCURVE",
"990 397 OFFCURVE",
"890 322 CURVE SMOOTH",
"840 285 OFFCURVE",
"778 266 OFFCURVE",
"704 266 CURVE SMOOTH",
"544 266 LINE",
"544 1189 LINE",
"704 1189 LINE SMOOTH"
);
}
);
width = 1470;
}
);
note = D;
unicode = 0044;
},
{
glyphname = E;
lastChange = "2021-05-27 10:38:10 +0000";
layers = (
{
layerId = "E37246A9-A376-4020-9DA5-E0C9FF7935B5";
paths = (
{
closed = 1;
nodes = (
"1066 293 LINE",
"1066 54 LINE",
"288 54 LINE",
"288 732 LINE",
"918 732 LINE",
"918 786 LINE",
"288 786 LINE",
"288 1402 LINE",
"1036 1402 LINE",
"1036 1163 LINE",
"1090 1163 LINE",
"1090 1456 LINE",
"71 1456 LINE",
"71 1402 LINE",
"234 1402 LINE",
"234 54 LINE",
"71 54 LINE",
"71 0 LINE",
"1120 0 LINE",
"1120 293 LINE"
);
}
);
width = 1270;
},
{
layerId = "142AFF07-46EF-45A1-8A7E-F20FA79F7038";
paths = (
{
closed = 1;
nodes = (
"1051 319 LINE",
"1041 97 LINE",
"359 97 LINE",
"359 706 LINE",
"946 706 LINE",
"946 806 LINE",
"359 806 LINE",
"359 1357 LINE",
"1010 1357 LINE",
"1020 1137 LINE",
"1122 1137 LINE",
"1122 1456 LINE",
"76 1456 LINE",
"76 1368 LINE",
"239 1355 LINE",
"239 100 LINE",
"76 87 LINE",
"76 0 LINE",
"1152 0 LINE",
"1152 319 LINE"
);
}
);
width = 1287;
},
{
layerId = "1A30CC2E-2F0E-43C1-8400-CBCC094AAC97";
paths = (
{
closed = 1;
nodes = (
"441 148 LINE",
"441 675 LINE",
"978 675 LINE",
"978 830 LINE",
"441 830 LINE",
"441 1304 LINE",
"979 1304 LINE",
"1001 1106 LINE",
"1159 1106 LINE",
"1159 1456 LINE",
"81 1456 LINE",
"81 1329 LINE",
"244 1301 LINE",
"244 154 LINE",
"81 126 LINE",
"81 0 LINE",
"1190 0 LINE",
"1190 349 LINE",
"1033 349 LINE",
"1011 148 LINE"
);
}
);
userData = {
assembly = "NPUSHB[ ]	/* 18 values pushed */\0126 1 3 1 5 1 2 3 4 1 6 7 3 1 0 6 4 76 \012MPPEM[ ]	/* MeasurePixelPerEm */\012PUSHB[ ]	/* 1 value pushed */\01212 \012LT[ ]	/* LessThan */\012IF[ ]	/* If */\012NPUSHB[ ]	/* 44 values pushed */\0120 2 3 4 3 2 114 8 1 7 5 6 6 7 114 0 4 0 5 7 4 5 103 0 3 3 1 95 0 1 1 31 77 0 6 6 0 96 0 0 0 32 0 78 \012ELSE[ ]	/* Else */\012NPUSHB[ ]	/* 46 values pushed */\0120 2 3 4 3 2 4 128 8 1 7 5 6 5 7 6 128 0 4 0 5 7 4 5 103 0 3 3 1 95 0 1 1 31 77 0 6 6 0 96 0 0 0 32 0 78 \012EIF[ ]	/* EndIf */\012NPUSHB[ ]	/* 16 values pushed */\0120 0 0 19 0 19 17 17 17 17 17 21 17 9 8 29 \012CALL[ ]	/* CallFunction */";
};
width = 1306;
},
{
layerId = "E08E4BD2-F9DD-4A22-B137-462FE0EF4830";
paths = (
{
closed = 1;
nodes = (
"986 398 LINE",
"973 224 LINE",
"503 224 LINE",
"503 640 LINE",
"996 640 LINE",
"996 865 LINE",
"503 865 LINE",
"503 1231 LINE",
"949 1231 LINE",
"962 1063 LINE",
"1186 1063 LINE",
"1186 1456 LINE",
"56 1456 LINE",
"56 1280 LINE",
"211 1250 LINE",
"211 205 LINE",
"56 175 LINE",
"56 0 LINE",
"1208 0 LINE",
"1208 398 LINE"
);
}
);
width = 1308;
},
{
layerId = "3540F6DD-AC2C-489F-A09A-29A5B6885314";
paths = (
{
closed = 1;
nodes = (
"957 428 LINE",
"949 271 LINE",
"542 271 LINE",
"542 618 LINE",
"1007 618 LINE",
"1007 887 LINE",
"542 887 LINE",
"542 1186 LINE",
"930 1186 LINE",
"938 1036 LINE",
"1203 1036 LINE",
"1203 1456 LINE",
"40 1456 LINE",
"40 1250 LINE",
"191 1218 LINE",
"191 237 LINE",
"40 205 LINE",
"40 0 LINE",
"1219 0 LINE",
"1219 428 LINE"
);
}
);
width = 1309;
}
);
note = E;
unicode = 0045;
},
{
glyphname = F;
lastChange = "2021-05-27 10:38:10 +0000";
layers = (
{
layerId = "E37246A9-A376-4020-9DA5-E0C9FF7935B5";
paths = (
{
closed = 1;
nodes = (
"288 54 LINE",
"288 716 LINE",
"934 716 LINE",
"934 772 LINE",
"288 772 LINE",
"288 1402 LINE",
"1082 1402 LINE",
"1082 1163 LINE",
"1136 1163 LINE",
"1136 1456 LINE",
"71 1456 LINE",
"71 1402 LINE",
"234 1402 LINE",
"234 54 LINE",
"71 54 LINE",
"71 0 LINE",
"451 0 LINE",
"451 54 LINE"
);
}
);
width = 1246;
},
{
layerId = "142AFF07-46EF-45A1-8A7E-F20FA79F7038";
paths = (
{
closed = 1;
nodes = (
"359 100 LINE",
"359 683 LINE",
"952 683 LINE",
"952 784 LINE",
"359 784 LINE",
"359 1356 LINE",
"1042 1356 LINE",
"1052 1137 LINE",
"1154 1137 LINE",
"1154 1456 LINE",
"76 1456 LINE",
"76 1368 LINE",
"239 1355 LINE",
"239 100 LINE",
"76 87 LINE",
"76 0 LINE",
"522 0 LINE",
"522 87 LINE"
);
}
);
width = 1251;
},
{
layerId = "1A30CC2E-2F0E-43C1-8400-CBCC094AAC97";
paths = (
{
closed = 1;
nodes = (
"974 644 LINE",
"974 799 LINE",
"441 799 LINE",
"441 1303 LINE",
"996 1303 LINE",
"1018 1106 LINE",
"1176 1106 LINE",
"1176 1456 LINE",
"81 1456 LINE",
"81 1329 LINE",
"244 1301 LINE",
"244 154 LINE",
"81 126 LINE",
"81 0 LINE",
"604 0 LINE",
"604 126 LINE",
"441 154 LINE",
"441 644 LINE"
);
}
);
userData = {
assembly = "NPUSHB[ ]	/* 17 values pushed */\0126 1 3 1 5 1 2 3 17 4 3 0 4 0 5 3 76 \012MPPEM[ ]	/* MeasurePixelPerEm */\012PUSHB[ ]	/* 1 value pushed */\01212 \012LT[ ]	/* LessThan */\012IF[ ]	/* If */\012NPUSHB[ ]	/* 31 values pushed */\0120 2 3 4 3 2 114 0 4 0 5 0 4 5 103 0 3 3 1 95 0 1 1 31 77 0 0 0 32 0 78 \012ELSE[ ]	/* Else */\012NPUSHB[ ]	/* 32 values pushed */\0120 2 3 4 3 2 4 128 0 4 0 5 0 4 5 103 0 3 3 1 95 0 1 1 31 77 0 0 0 32 0 78 \012EIF[ ]	/* EndIf */\012NPUSHB[ ]	/* 9 values pushed */\01217 17 17 17 21 17 6 8 28 \012CALL[ ]	/* CallFunction */";
};
width = 1256;
},
{
layerId = "E08E4BD2-F9DD-4A22-B137-462FE0EF4830";
paths = (
{
closed = 1;
nodes = (
"503 205 LINE",
"503 605 LINE",
"1013 605 LINE",
"1013 830 LINE",
"503 830 LINE",
"503 1231 LINE",
"978 1231 LINE",
"991 1057 LINE",
"1215 1057 LINE",
"1215 1456 LINE",
"56 1456 LINE",
"56 1280 LINE",
"211 1250 LINE",
"211 205 LINE",
"56 175 LINE",
"56 0 LINE",
"659 0 LINE",
"659 175 LINE"
);
}
);
width = 1265;
},
{
layerId = "3540F6DD-AC2C-489F-A09A-29A5B6885314";
paths = (
{
closed = 1;
nodes = (
"542 237 LINE",
"542 581 LINE",
"1037 581 LINE",
"1037 849 LINE",
"542 849 LINE",
"542 1186 LINE",
"967 1186 LINE",
"974 1027 LINE",
"1239 1027 LINE",
"1239 1456 LINE",
"40 1456 LINE",
"40 1250 LINE",
"191 1218 LINE",
"191 237 LINE",
"40 205 LINE",
"40 0 LINE",
"693 0 LINE",
"693 205 LINE"
);
}
);
width = 1271;
}
);
note = F;
unicode = 0046;
},
{
glyphname = G;
lastChange = "2021-05-27 10:38:10 +0000";
layers = (
{
layerId = "E37246A9-A376-4020-9DA5-E0C9FF7935B5";
paths = (
{
closed = 1;
nodes = (
"977 -21 OFFCURVE",
"1127 38 OFFCURVE",
"1248 111 CURVE",
"1248 620 LINE",
"879 620 LINE",
"879 565 LINE",
"1194 565 LINE",
"1194 141 LINE",
"1093 84 OFFCURVE",
"947 33 OFFCURVE",
"768 33 CURVE SMOOTH",
"523 33 OFFCURVE",
"346 155 OFFCURVE",
"254 362 CURVE SMOOTH",
"207 465 OFFCURVE",
"184 585 OFFCURVE",
"184 720 CURVE SMOOTH",
"184 760 LINE SMOOTH",
"184 1021 OFFCURVE",
"291 1226 OFFCURVE",
"463 1339 CURVE SMOOTH",
"549 1395 OFFCURVE",
"646 1423 OFFCURVE",
"754 1423 CURVE SMOOTH",
"949 1423 OFFCURVE",
"1060 1373 OFFCURVE",
"1159 1296 CURVE",
"1159 1072 LINE",
"1213 1072 LINE",
"1213 1324 LINE",
"1093 1417 OFFCURVE",
"959 1477 OFFCURVE",
"754 1477 CURVE SMOOTH",
"514 1477 OFFCURVE",
"319 1349 OFFCURVE",
"211 1133 CURVE SMOOTH",
"157 1025 OFFCURVE",
"130 900 OFFCURVE",
"130 758 CURVE SMOOTH",
"130 720 LINE SMOOTH",
"130 427 OFFCURVE",
"236 197 OFFCURVE",
"428 73 CURVE SMOOTH",
"523 10 OFFCURVE",
"637 -21 OFFCURVE",
"770 -21 CURVE SMOOTH"
);
}
);
width = 1417;
},
{
layerId = "142AFF07-46EF-45A1-8A7E-F20FA79F7038";
paths = (
{
closed = 1;
nodes = (
"983 -21 OFFCURVE",
"1134 47 OFFCURVE",
"1238 123 CURVE",
"1238 657 LINE",
"819 657 LINE",
"819 560 LINE",
"1118 556 LINE",
"1118 170 LINE",
"1030 122 OFFCURVE",
"911 82 OFFCURVE",
"754 82 CURVE SMOOTH",
"531 82 OFFCURVE",
"373 194 OFFCURVE",
"290 386 CURVE SMOOTH",
"248 481 OFFCURVE",
"227 592 OFFCURVE",
"227 718 CURVE SMOOTH",
"227 752 LINE SMOOTH",
"227 999 OFFCURVE",
"324 1190 OFFCURVE",
"478 1295 CURVE SMOOTH",
"555 1347 OFFCURVE",
"641 1373 OFFCURVE",
"738 1373 CURVE SMOOTH",
"902 1373 OFFCURVE",
"1005 1336 OFFCURVE",
"1089 1275 CURVE",
"1099 1057 LINE",
"1202 1057 LINE",
"1202 1328 LINE",
"1086 1419 OFFCURVE",
"944 1477 OFFCURVE",
"729 1477 CURVE SMOOTH",
"490 1477 OFFCURVE",
"295 1348 OFFCURVE",
"188 1130 CURVE SMOOTH",
"134 1021 OFFCURVE",
"107 894 OFFCURVE",
"107 750 CURVE SMOOTH",
"107 718 LINE SMOOTH",
"107 426 OFFCURVE",
"216 197 OFFCURVE",
"410 73 CURVE SMOOTH",
"507 10 OFFCURVE",
"622 -21 OFFCURVE",
"755 -21 CURVE SMOOTH"
);
}
);
width = 1384;
},
{
layerId = "1A30CC2E-2F0E-43C1-8400-CBCC094AAC97";
paths = (
{
closed = 1;
nodes = (
"991 -21 OFFCURVE",
"1142 57 OFFCURVE",
"1226 136 CURVE",
"1226 700 LINE",
"750 700 LINE",
"750 555 LINE",
"1029 545 LINE",
"1029 203 LINE",
"958 166 OFFCURVE",
"871 140 OFFCURVE",
"738 140 CURVE SMOOTH",
"542 140 OFFCURVE",
"403 240 OFFCURVE",
"332 413 CURVE SMOOTH",
"296 499 OFFCURVE",
"278 600 OFFCURVE",
"278 716 CURVE SMOOTH",
"278 742 LINE SMOOTH",
"278 971 OFFCURVE",
"361 1147 OFFCURVE",
"494 1243 CURVE SMOOTH",
"561 1291 OFFCURVE",
"636 1315 OFFCURVE",
"719 1315 CURVE SMOOTH",
"848 1315 OFFCURVE",
"942 1293 OFFCURVE",
"1007 1250 CURVE",
"1028 1039 LINE",
"1190 1039 LINE",
"1190 1333 LINE",
"1078 1421 OFFCURVE",
"926 1477 OFFCURVE",
"699 1477 CURVE SMOOTH",
"462 1477 OFFCURVE",
"268 1346 OFFCURVE",
"161 1126 CURVE SMOOTH",
"107 1015 OFFCURVE",
"80 887 OFFCURVE",
"80 740 CURVE SMOOTH",
"80 716 LINE SMOOTH",
"80 425 OFFCURVE",
"191 197 OFFCURVE",
"388 73 CURVE SMOOTH",
"487 10 OFFCURVE",
"603 -21 OFFCURVE",
"738 -21 CURVE SMOOTH"
);
}
);
userData = {
assembly = "NPUSHB[ ]	/* 73 values pushed */\01212 1 3 1 30 1 4 5 35 1 0 4 3 76 0 2 3 6 3 2 6 128 0 6 0 5 4 6 5 103 0 3 3 1 97 0 1 1 37 77 0 4 4 0 97 7 1 0 0 38 0 78 1 0 34 33 32 31 28 26 19 17 14 13 10 8 0 37 1 37 8 8 22 \012CALL[ ]	/* CallFunction */";
};
width = 1346;
},
{
layerId = "E08E4BD2-F9DD-4A22-B137-462FE0EF4830";
paths = (
{
closed = 1;
nodes = (
"973 -21 OFFCURVE",
"1154 40 OFFCURVE",
"1283 132 CURVE",
"1283 721 LINE",
"782 721 LINE",
"782 516 LINE",
"990 500 LINE",
"990 253 LINE",
"934 225 OFFCURVE",
"845 203 OFFCURVE",
"742 203 CURVE SMOOTH",
"567 203 OFFCURVE",
"447 287 OFFCURVE",
"385 433 CURVE SMOOTH",
"354 506 OFFCURVE",
"338 591 OFFCURVE",
"338 690 CURVE SMOOTH",
"338 742 LINE SMOOTH",
"338 945 OFFCURVE",
"403 1103 OFFCURVE",
"521 1188 CURVE SMOOTH",
"580 1231 OFFCURVE",
"650 1252 OFFCURVE",
"731 1252 CURVE SMOOTH",
"844 1252 OFFCURVE",
"935 1222 OFFCURVE",
"987 1177 CURVE",
"1028 982 LINE",
"1244 982 LINE",
"1244 1305 LINE",
"1108 1420 OFFCURVE",
"918 1477 OFFCURVE",
"709 1477 CURVE SMOOTH",
"438 1477 OFFCURVE",
"236 1345 OFFCURVE",
"128 1124 CURVE SMOOTH",
"74 1013 OFFCURVE",
"47 885 OFFCURVE",
"47 740 CURVE SMOOTH",
"47 690 LINE SMOOTH",
"47 409 OFFCURVE",
"159 189 OFFCURVE",
"363 69 CURVE SMOOTH",
"465 9 OFFCURVE",
"588 -21 OFFCURVE",
"733 -21 CURVE SMOOTH"
);
}
);
width = 1373;
},
{
layerId = "3540F6DD-AC2C-489F-A09A-29A5B6885314";
paths = (
{
closed = 1;
nodes = (
"961 -21 OFFCURVE",
"1161 29 OFFCURVE",
"1318 130 CURVE",
"1318 734 LINE",
"802 734 LINE",
"802 492 LINE",
"966 472 LINE",
"966 284 LINE",
"919 263 OFFCURVE",
"828 242 OFFCURVE",
"744 242 CURVE SMOOTH",
"584 242 OFFCURVE",
"474 316 OFFCURVE",
"418 445 CURVE SMOOTH",
"389 510 OFFCURVE",
"375 586 OFFCURVE",
"375 674 CURVE SMOOTH",
"375 742 LINE SMOOTH",
"375 929 OFFCURVE",
"429 1074 OFFCURVE",
"537 1154 CURVE SMOOTH",
"591 1193 OFFCURVE",
"658 1213 OFFCURVE",
"738 1213 CURVE SMOOTH",
"842 1213 OFFCURVE",
"930 1179 OFFCURVE",
"975 1132 CURVE",
"1028 947 LINE",
"1278 947 LINE",
"1278 1288 LINE",
"1126 1419 OFFCURVE",
"914 1477 OFFCURVE",
"715 1477 CURVE SMOOTH",
"424 1477 OFFCURVE",
"216 1344 OFFCURVE",
"108 1123 CURVE SMOOTH",
"54 1012 OFFCURVE",
"27 885 OFFCURVE",
"27 740 CURVE SMOOTH",
"27 674 LINE SMOOTH",
"27 399 OFFCURVE",
"139 184 OFFCURVE",
"348 67 CURVE SMOOTH",
"452 8 OFFCURVE",
"579 -21 OFFCURVE",
"730 -21 CURVE SMOOTH"
);
}
);
width = 1390;
}
);
note = G;
unicode = 0047;
},
{
glyphname = H;
lastChange = "2021-05-27 10:38:10 +0000";
layers = (
{
layerId = "E37246A9-A376-4020-9DA5-E0C9FF7935B5";
paths = (
{
closed = 1;
nodes = (
"288 54 LINE",
"288 695 LINE",
"1218 695 LINE",
"1218 54 LINE",
"1055 54 LINE",
"1055 0 LINE",
"1435 0 LINE",
"1435 54 LINE",
"1272 54 LINE",
"1272 1402 LINE",
"1435 1402 LINE",
"1435 1456 LINE",
"1055 1456 LINE",
"1055 1402 LINE",
"1218 1402 LINE",
"1218 749 LINE",
"288 749 LINE",
"288 1402 LINE",
"451 1402 LINE",
"451 1456 LINE",
"71 1456 LINE",
"71 1402 LINE",
"234 1402 LINE",
"234 54 LINE",
"71 54 LINE",
"71 0 LINE",
"451 0 LINE",
"451 54 LINE"
);
}
);
width = 1506;
},
{
layerId = "142AFF07-46EF-45A1-8A7E-F20FA79F7038";
paths = (
{
closed = 1;
nodes = (
"359 100 LINE",
"359 671 LINE",
"1181 671 LINE",
"1181 100 LINE",
"1018 87 LINE",
"1018 0 LINE",
"1464 0 LINE",
"1464 87 LINE",
"1301 100 LINE",
"1301 1355 LINE",
"1464 1368 LINE",
"1464 1456 LINE",
"1018 1456 LINE",
"1018 1368 LINE",
"1181 1355 LINE",
"1181 772 LINE",
"359 772 LINE",
"359 1355 LINE",
"522 1368 LINE",
"522 1456 LINE",
"76 1456 LINE",
"76 1368 LINE",
"239 1355 LINE",
"239 100 LINE",
"76 87 LINE",
"76 0 LINE",
"522 0 LINE",
"522 87 LINE"
);
}
);
width = 1539;
},
{
layerId = "1A30CC2E-2F0E-43C1-8400-CBCC094AAC97";
paths = (
{
closed = 1;
nodes = (
"1137 643 LINE",
"1137 154 LINE",
"974 126 LINE",
"974 0 LINE",
"1497 0 LINE",
"1497 126 LINE",
"1334 154 LINE",
"1334 1301 LINE",
"1497 1329 LINE",
"1497 1456 LINE",
"974 1456 LINE",
"974 1329 LINE",
"1137 1301 LINE",
"1137 798 LINE",
"441 798 LINE",
"441 1301 LINE",
"604 1329 LINE",
"604 1456 LINE",
"81 1456 LINE",
"81 1329 LINE",
"244 1301 LINE",
"244 154 LINE",
"81 126 LINE",
"81 0 LINE",
"604 0 LINE",
"604 126 LINE",
"441 154 LINE",
"441 643 LINE"
);
}
);
userData = {
assembly = "NPUSHB[ ]	/* 54 values pushed */\01218 17 14 13 10 9 6 5 8 2 1 27 24 23 20 19 4 3 0 8 0 5 2 76 0 2 0 5 0 2 5 104 3 1 1 1 31 77 4 1 0 0 32 0 78 19 21 19 19 21 17 6 8 28 \012CALL[ ]	/* CallFunction */";
};
width = 1578;
},
{
layerId = "E08E4BD2-F9DD-4A22-B137-462FE0EF4830";
paths = (
{
closed = 1;
nodes = (
"503 205 LINE",
"503 605 LINE",
"1097 605 LINE",
"1097 205 LINE",
"941 175 LINE",
"941 0 LINE",
"1544 0 LINE",
"1544 175 LINE",
"1388 205 LINE",
"1388 1250 LINE",
"1544 1280 LINE",
"1544 1456 LINE",
"941 1456 LINE",
"941 1280 LINE",
"1097 1250 LINE",
"1097 830 LINE",
"503 830 LINE",
"503 1250 LINE",
"659 1280 LINE",
"659 1456 LINE",
"56 1456 LINE",
"56 1280 LINE",
"211 1250 LINE",
"211 205 LINE",
"56 175 LINE",
"56 0 LINE",
"659 0 LINE",
"659 175 LINE"
);
}
);
width = 1600;
},
{
layerId = "3540F6DD-AC2C-489F-A09A-29A5B6885314";
paths = (
{
closed = 1;
nodes = (
"542 237 LINE",
"542 581 LINE",
"1072 581 LINE",
"1072 237 LINE",
"921 205 LINE",
"921 0 LINE",
"1573 0 LINE",
"1573 205 LINE",
"1422 237 LINE",
"1422 1218 LINE",
"1573 1250 LINE",
"1573 1456 LINE",
"921 1456 LINE",
"921 1250 LINE",
"1072 1218 LINE",
"1072 850 LINE",
"542 850 LINE",
"542 1218 LINE",
"693 1250 LINE",
"693 1456 LINE",
"40 1456 LINE",
"40 1250 LINE",
"191 1218 LINE",
"191 237 LINE",
"40 205 LINE",
"40 0 LINE",
"693 0 LINE",
"693 205 LINE"
);
}
);
width = 1613;
}
);
note = H;
unicode = 0048;
},
{
glyphname = I;
lastChange = "2021-05-27 10:38:10 +0000";
layers = (
{
layerId = "E37246A9-A376-4020-9DA5-E0C9FF7935B5";
paths = (
{
closed = 1;
nodes = (
"288 54 LINE",
"288 1402 LINE",
"451 1402 LINE",
"451 1456 LINE",
"71 1456 LINE",
"71 1402 LINE",
"234 1402 LINE",
"234 54 LINE",
"71 54 LINE",
"71 0 LINE",
"451 0 LINE",
"451 54 LINE"
);
}
);
width = 522;
},
{
layerId = "142AFF07-46EF-45A1-8A7E-F20FA79F7038";
paths = (
{
closed = 1;
nodes = (
"359 100 LINE",
"359 1355 LINE",
"522 1368 LINE",
"522 1456 LINE",
"76 1456 LINE",
"76 1368 LINE",
"239 1355 LINE",
"239 100 LINE",
"76 87 LINE",
"76 0 LINE",
"522 0 LINE",
"522 87 LINE"
);
}
);
width = 597;
},
{
layerId = "1A30CC2E-2F0E-43C1-8400-CBCC094AAC97";
paths = (
{
closed = 1;
nodes = (
"604 1329 LINE",
"604 1456 LINE",
"81 1456 LINE",
"81 1329 LINE",
"244 1301 LINE",
"244 154 LINE",
"81 126 LINE",
"81 0 LINE",
"604 0 LINE",
"604 126 LINE",
"441 154 LINE",
"441 1301 LINE"
);
}
);
userData = {
assembly = "NPUSHB[ ]	/* 29 values pushed */\01211 10 9 6 5 4 3 0 8 0 1 1 76 0 1 1 31 77 0 0 0 32 0 78 21 17 2 8 24 \012CALL[ ]	/* CallFunction */";
};
width = 685;
},
{
layerId = "E08E4BD2-F9DD-4A22-B137-462FE0EF4830";
paths = (
{
closed = 1;
nodes = (
"503 205 LINE",
"503 1250 LINE",
"658 1280 LINE",
"658 1456 LINE",
"56 1456 LINE",
"56 1280 LINE",
"211 1250 LINE",
"211 205 LINE",
"56 175 LINE",
"56 0 LINE",
"658 0 LINE",
"658 175 LINE"
);
}
);
width = 714;
},
{
layerId = "3540F6DD-AC2C-489F-A09A-29A5B6885314";
paths = (
{
closed = 1;
nodes = (
"541 237 LINE",
"541 1218 LINE",
"692 1250 LINE",
"692 1456 LINE",
"40 1456 LINE",
"40 1250 LINE",
"191 1218 LINE",
"191 237 LINE",
"40 205 LINE",
"40 0 LINE",
"692 0 LINE",
"692 205 LINE"
);
}
);
width = 732;
}
);
note = I;
unicode = 0049;
},
{
glyphname = J;
lastChange = "2021-05-27 10:38:10 +0000";
layers = (
{
layerId = "E37246A9-A376-4020-9DA5-E0C9FF7935B5";
paths = (
{
closed = 1;
nodes = (
"631 -21 OFFCURVE",
"759 55 OFFCURVE",
"828 188 CURVE SMOOTH",
"863 254 OFFCURVE",
"880 332 OFFCURVE",
"880 422 CURVE SMOOTH",
"880 1402 LINE",
"1043 1402 LINE",
"1043 1456 LINE",
"640 1456 LINE",
"640 1402 LINE",
"826 1402 LINE",
"826 422 LINE SMOOTH",
"826 263 OFFCURVE",
"761 144 OFFCURVE",
"654 81 CURVE SMOOTH",
"600 49 OFFCURVE",
"539 33 OFFCURVE",
"471 33 CURVE SMOOTH",
"227 33 OFFCURVE",
"94 164 OFFCURVE",
"94 401 CURVE",
"48 401 LINE",
"46 395 LINE",
"42 214 OFFCURVE",
"113 90 OFFCURVE",
"242 27 CURVE SMOOTH",
"306 -5 OFFCURVE",
"382 -21 OFFCURVE",
"471 -21 CURVE SMOOTH"
);
}
);
width = 1137;
},
{
layerId = "142AFF07-46EF-45A1-8A7E-F20FA79F7038";
paths = (
{
closed = 1;
nodes = (
"659 -21 OFFCURVE",
"788 55 OFFCURVE",
"856 187 CURVE SMOOTH",
"889 252 OFFCURVE",
"906 329 OFFCURVE",
"906 418 CURVE SMOOTH",
"906 1355 LINE",
"1069 1368 LINE",
"1069 1456 LINE",
"597 1456 LINE",
"597 1367 LINE",
"786 1355 LINE",
"786 418 LINE SMOOTH",
"786 282 OFFCURVE",
"736 178 OFFCURVE",
"646 123 CURVE SMOOTH",
"601 95 OFFCURVE",
"547 81 OFFCURVE",
"484 81 CURVE SMOOTH",
"280 81 OFFCURVE",
"169 193 OFFCURVE",
"166 410 CURVE",
"54 410 LINE",
"52 404 LINE",
"55 217 OFFCURVE",
"131 90 OFFCURVE",
"261 27 CURVE SMOOTH",
"326 -5 OFFCURVE",
"401 -21 OFFCURVE",
"486 -21 CURVE SMOOTH"
);
}
);
width = 1152;
},
{
layerId = "1A30CC2E-2F0E-43C1-8400-CBCC094AAC97";
paths = (
{
closed = 1;
nodes = (
"692 -21 OFFCURVE",
"822 54 OFFCURVE",
"888 185 CURVE SMOOTH",
"921 250 OFFCURVE",
"937 326 OFFCURVE",
"937 413 CURVE SMOOTH",
"937 1301 LINE",
"1100 1329 LINE",
"1100 1456 LINE",
"546 1456 LINE",
"546 1327 LINE",
"740 1301 LINE",
"740 413 LINE SMOOTH",
"740 305 OFFCURVE",
"707 219 OFFCURVE",
"636 172 CURVE SMOOTH",
"601 148 OFFCURVE",
"555 136 OFFCURVE",
"500 136 CURVE SMOOTH",
"343 136 OFFCURVE",
"256 225 OFFCURVE",
"251 421 CURVE",
"62 421 LINE",
"60 415 LINE",
"68 220 OFFCURVE",
"152 91 OFFCURVE",
"284 27 CURVE SMOOTH",
"349 -5 OFFCURVE",
"422 -21 OFFCURVE",
"503 -21 CURVE SMOOTH"
);
}
);
userData = {
assembly = "NPUSHB[ ]	/* 49 values pushed */\01219 18 15 14 4 1 3 1 76 0 1 3 2 3 1 2 128 0 3 3 31 77 0 2 2 0 98 4 1 0 0 38 0 78 1 0 17 16 10 8 6 4 0 23 1 23 5 8 22 \012CALL[ ]	/* CallFunction */";
};
width = 1169;
},
{
layerId = "E08E4BD2-F9DD-4A22-B137-462FE0EF4830";
paths = (
{
closed = 1;
nodes = (
"753 -21 OFFCURVE",
"893 57 OFFCURVE",
"965 194 CURVE SMOOTH",
"1001 263 OFFCURVE",
"1019 344 OFFCURVE",
"1019 437 CURVE SMOOTH",
"1019 1250 LINE",
"1175 1280 LINE",
"1175 1456 LINE",
"532 1456 LINE",
"532 1280 LINE",
"728 1250 LINE",
"728 437 LINE SMOOTH",
"728 337 OFFCURVE",
"690 268 OFFCURVE",
"630 233 CURVE SMOOTH",
"599 216 OFFCURVE",
"564 207 OFFCURVE",
"524 207 CURVE SMOOTH",
"400 207 OFFCURVE",
"322 272 OFFCURVE",
"311 463 CURVE",
"37 463 LINE",
"35 457 LINE",
"43 240 OFFCURVE",
"134 99 OFFCURVE",
"287 31 CURVE SMOOTH",
"363 -4 OFFCURVE",
"452 -21 OFFCURVE",
"553 -21 CURVE SMOOTH"
);
}
);
width = 1202;
},
{
layerId = "3540F6DD-AC2C-489F-A09A-29A5B6885314";
paths = (
{
closed = 1;
nodes = (
"791 -21 OFFCURVE",
"937 58 OFFCURVE",
"1013 199 CURVE SMOOTH",
"1051 270 OFFCURVE",
"1070 354 OFFCURVE",
"1070 452 CURVE SMOOTH",
"1070 1218 LINE",
"1222 1250 LINE",
"1222 1456 LINE",
"523 1456 LINE",
"523 1251 LINE",
"721 1218 LINE",
"721 452 LINE SMOOTH",
"721 356 OFFCURVE",
"681 298 OFFCURVE",
"626 271 CURVE SMOOTH",
"598 258 OFFCURVE",
"569 251 OFFCURVE",
"539 251 CURVE SMOOTH",
"435 251 OFFCURVE",
"361 301 OFFCURVE",
"348 489 CURVE",
"21 489 LINE",
"19 483 LINE",
"27 252 OFFCURVE",
"123 105 OFFCURVE",
"289 33 CURVE SMOOTH",
"372 -3 OFFCURVE",
"470 -21 OFFCURVE",
"584 -21 CURVE SMOOTH"
);
}
);
width = 1222;
}
);
note = J;
unicode = 004A;
},
{
glyphname = K;
lastChange = "2021-05-27 10:38:10 +0000";
layers = (
{
layerId = "E37246A9-A376-4020-9DA5-E0C9FF7935B5";
paths = (
{
closed = 1;
nodes = (
"1167 1402 LINE",
"1282 1402 LINE",
"1282 1456 LINE",
"921 1456 LINE",
"921 1402 LINE",
"1089 1402 LINE",
"1091 1397 LINE",
"288 496 LINE",
"288 1402 LINE",
"451 1402 LINE",
"451 1456 LINE",
"71 1456 LINE",
"71 1402 LINE",
"234 1402 LINE",
"234 54 LINE",
"71 54 LINE",
"71 0 LINE",
"451 0 LINE",
"451 54 LINE",
"288 54 LINE",
"288 411 LINE",
"611 775 LINE",
"1133 60 LINE",
"1130 54 LINE",
"967 54 LINE",
"967 0 LINE",
"1328 0 LINE",
"1328 54 LINE",
"1210 54 LINE",
"650 819 LINE"
);
}
);
width = 1388;
},
{
layerId = "142AFF07-46EF-45A1-8A7E-F20FA79F7038";
paths = (
{
closed = 1;
nodes = (
"1200 1357 LINE",
"1325 1368 LINE",
"1325 1456 LINE",
"915 1456 LINE",
"915 1368 LINE",
"1056 1362 LINE",
"1055 1357 LINE",
"359 580 LINE",
"359 1355 LINE",
"522 1368 LINE",
"522 1456 LINE",
"76 1456 LINE",
"76 1368 LINE",
"239 1355 LINE",
"239 100 LINE",
"76 87 LINE",
"76 0 LINE",
"522 0 LINE",
"522 87 LINE",
"359 100 LINE",
"359 424 LINE",
"637 733 LINE",
"1099 97 LINE",
"1098 94 LINE",
"955 87 LINE",
"955 0 LINE",
"1374 0 LINE",
"1374 87 LINE",
"1248 99 LINE",
"716 820 LINE"
);
}
);
width = 1440;
},
{
layerId = "1A30CC2E-2F0E-43C1-8400-CBCC094AAC97";
paths = (
{
closed = 1;
nodes = (
"1375 1456 LINE",
"908 1456 LINE",
"908 1329 LINE",
"1017 1315 LINE",
"1013 1310 LINE",
"441 675 LINE",
"441 1301 LINE",
"604 1329 LINE",
"604 1456 LINE",
"81 1456 LINE",
"81 1329 LINE",
"244 1301 LINE",
"244 154 LINE",
"81 126 LINE",
"81 0 LINE",
"604 0 LINE",
"604 126 LINE",
"441 154 LINE",
"441 436 LINE",
"669 684 LINE",
"1060 141 LINE",
"1061 140 LINE",
"941 126 LINE",
"941 0 LINE",
"1427 0 LINE",
"1427 126 LINE",
"1293 151 LINE",
"793 820 LINE",
"1238 1304 LINE",
"1375 1329 LINE"
);
}
);
userData = {
assembly = "NPUSHB[ ]	/* 42 values pushed */\01228 25 23 22 21 20 17 16 15 14 11 10 9 8 6 5 2 17 0 2 1 76 3 1 2 2 31 77 1 1 0 0 32 0 78 23 21 24 19 4 8 26 \012CALL[ ]	/* CallFunction */";
};
width = 1501;
},
{
layerId = "E08E4BD2-F9DD-4A22-B137-462FE0EF4830";
paths = (
{
closed = 1;
nodes = (
"1324 1253 LINE",
"1461 1280 LINE",
"1461 1456 LINE",
"862 1456 LINE",
"862 1280 LINE",
"1006 1268 LINE",
"1004 1265 LINE",
"503 749 LINE",
"503 1250 LINE",
"651 1280 LINE",
"651 1456 LINE",
"56 1456 LINE",
"56 1280 LINE",
"211 1250 LINE",
"211 205 LINE",
"56 175 LINE",
"56 0 LINE",
"651 0 LINE",
"651 175 LINE",
"503 205 LINE",
"503 419 LINE",
"710 629 LINE",
"1031 187 LINE",
"1030 187 LINE",
"894 175 LINE",
"894 0 LINE",
"1513 0 LINE",
"1513 175 LINE",
"1370 200 LINE",
"903 825 LINE"
);
}
);
width = 1545;
},
{
layerId = "3540F6DD-AC2C-489F-A09A-29A5B6885314";
paths = (
{
closed = 1;
nodes = (
"1377 1221 LINE",
"1514 1250 LINE",
"1514 1456 LINE",
"834 1456 LINE",
"834 1250 LINE",
"999 1239 LINE",
"998 1237 LINE",
"542 788 LINE",
"542 1218 LINE",
"680 1250 LINE",
"680 1456 LINE",
"40 1456 LINE",
"40 1250 LINE",
"191 1218 LINE",
"191 237 LINE",
"40 205 LINE",
"40 0 LINE",
"680 0 LINE",
"680 205 LINE",
"542 237 LINE",
"542 406 LINE",
"736 595 LINE",
"1013 216 LINE",
"1011 216 LINE",
"865 205 LINE",
"865 0 LINE",
"1567 0 LINE",
"1567 205 LINE",
"1418 230 LINE",
"972 826 LINE"
);
}
);
width = 1573;
}
);
note = K;
unicode = 004B;
},
{
glyphname = L;
lastChange = "2021-05-27 10:38:10 +0000";
layers = (
{
layerId = "E37246A9-A376-4020-9DA5-E0C9FF7935B5";
paths = (
{
closed = 1;
nodes = (
"982 293 LINE",
"982 54 LINE",
"289 54 LINE",
"289 1402 LINE",
"452 1402 LINE",
"452 1456 LINE",
"71 1456 LINE",
"71 1402 LINE",
"234 1402 LINE",
"234 54 LINE",
"71 54 LINE",
"71 0 LINE",
"1036 0 LINE",
"1036 293 LINE"
);
}
);
width = 1161;
},
{
layerId = "142AFF07-46EF-45A1-8A7E-F20FA79F7038";
paths = (
{
closed = 1;
nodes = (
"981 334 LINE",
"970 99 LINE",
"359 99 LINE",
"359 1355 LINE",
"522 1368 LINE",
"522 1456 LINE",
"76 1456 LINE",
"76 1368 LINE",
"239 1355 LINE",
"239 100 LINE",
"76 87 LINE",
"76 0 LINE",
"1079 0 LINE",
"1079 334 LINE"
);
}
);
width = 1184;
},
{
layerId = "1A30CC2E-2F0E-43C1-8400-CBCC094AAC97";
paths = (
{
closed = 1;
nodes = (
"441 151 LINE",
"441 1301 LINE",
"604 1329 LINE",
"604 1456 LINE",
"81 1456 LINE",
"81 1329 LINE",
"244 1301 LINE",
"244 154 LINE",
"81 126 LINE",
"81 0 LINE",
"1130 0 LINE",
"1130 381 LINE",
"979 381 LINE",
"956 151 LINE"
);
}
);
userData = {
assembly = "NPUSHB[ ]	/* 17 values pushed */\01210 9 6 5 4 3 1 4 1 2 3 3 1 0 2 3 76 \012MPPEM[ ]	/* MeasurePixelPerEm */\012PUSHB[ ]	/* 1 value pushed */\01210 \012LT[ ]	/* LessThan */\012IF[ ]	/* If */\012NPUSHB[ ]	/* 24 values pushed */\0124 1 3 1 2 2 3 114 0 1 1 31 77 0 2 2 0 96 0 0 0 32 0 78 \012ELSE[ ]	/* Else */\012NPUSHB[ ]	/* 25 values pushed */\0124 1 3 1 2 1 3 2 128 0 1 1 31 77 0 2 2 0 96 0 0 0 32 0 78 \012EIF[ ]	/* EndIf */\012NPUSHB[ ]	/* 12 values pushed */\0120 0 0 13 0 13 19 21 17 5 8 25 \012CALL[ ]	/* CallFunction */";
};
width = 1210;
},
{
layerId = "E08E4BD2-F9DD-4A22-B137-462FE0EF4830";
paths = (
{
closed = 1;
nodes = (
"928 437 LINE",
"914 224 LINE",
"503 224 LINE",
"503 1250 LINE",
"679 1280 LINE",
"679 1456 LINE",
"56 1456 LINE",
"56 1280 LINE",
"211 1250 LINE",
"211 205 LINE",
"56 175 LINE",
"56 0 LINE",
"1151 0 LINE",
"1151 437 LINE"
);
}
);
width = 1200;
},
{
layerId = "3540F6DD-AC2C-489F-A09A-29A5B6885314";
paths = (
{
closed = 1;
nodes = (
"896 472 LINE",
"888 269 LINE",
"542 269 LINE",
"542 1218 LINE",
"726 1250 LINE",
"726 1456 LINE",
"40 1456 LINE",
"40 1250 LINE",
"191 1218 LINE",
"191 237 LINE",
"40 205 LINE",
"40 0 LINE",
"1164 0 LINE",
"1164 472 LINE"
);
}
);
width = 1194;
}
);
note = L;
unicode = 004C;
},
{
glyphname = M;
lastChange = "2021-05-27 10:38:10 +0000";
layers = (
{
layerId = "E37246A9-A376-4020-9DA5-E0C9FF7935B5";
paths = (
{
closed = 1;
nodes = (
"288 54 LINE",
"288 1354 LINE",
"294 1356 LINE",
"889 0 LINE",
"932 0 LINE",
"1530 1363 LINE",
"1536 1361 LINE",
"1536 54 LINE",
"1373 54 LINE",
"1373 0 LINE",
"1753 0 LINE",
"1753 54 LINE",
"1590 54 LINE",
"1590 1402 LINE",
"1753 1402 LINE",
"1753 1456 LINE",
"1511 1456 LINE",
"913 86 LINE",
"907 86 LINE",
"311 1456 LINE",
"71 1456 LINE",
"71 1402 LINE",
"234 1402 LINE",
"234 54 LINE",
"71 54 LINE",
"71 0 LINE",
"451 0 LINE",
"451 54 LINE"
);
}
);
width = 1824;
},
{
layerId = "142AFF07-46EF-45A1-8A7E-F20FA79F7038";
paths = (
{
closed = 1;
nodes = (
"359 100 LINE",
"359 735 LINE",
"355 1276 LINE",
"361 1278 LINE",
"907 24 LINE",
"991 24 LINE",
"1531 1282 LINE",
"1536 1281 LINE",
"1536 100 LINE",
"1369 87 LINE",
"1369 0 LINE",
"1815 0 LINE",
"1815 87 LINE",
"1652 100 LINE",
"1652 1355 LINE",
"1815 1368 LINE",
"1815 1456 LINE",
"1482 1456 LINE",
"951 208 LINE",
"945 208 LINE",
"407 1456 LINE",
"82 1456 LINE",
"82 1368 LINE",
"245 1355 LINE",
"245 100 LINE",
"82 87 LINE",
"82 0 LINE",
"528 0 LINE",
"528 87 LINE"
);
}
);
width = 1897;
},
{
layerId = "1A30CC2E-2F0E-43C1-8400-CBCC094AAC97";
paths = (
{
closed = 1;
nodes = (
"434 1185 LINE",
"439 1186 LINE",
"928 52 LINE",
"1059 52 LINE",
"1532 1188 LINE",
"1537 1187 LINE",
"1537 154 LINE",
"1365 126 LINE",
"1365 0 LINE",
"1888 0 LINE",
"1888 126 LINE",
"1725 154 LINE",
"1725 1301 LINE",
"1888 1329 LINE",
"1888 1456 LINE",
"1449 1456 LINE",
"995 351 LINE",
"989 351 LINE",
"520 1456 LINE",
"94 1456 LINE",
"94 1329 LINE",
"257 1301 LINE",
"257 154 LINE",
"94 126 LINE",
"94 0 LINE",
"617 0 LINE",
"617 126 LINE",
"441 154 LINE",
"441 576 LINE"
);
}
);
userData = {
assembly = "NPUSHB[ ]	/* 49 values pushed */\01228 25 21 20 19 16 15 14 13 9 6 5 4 3 0 15 4 1 1 76 0 4 1 0 1 4 0 128 2 1 1 1 31 77 3 1 0 0 32 0 78 21 21 19 21 17 5 8 27 \012CALL[ ]	/* CallFunction */";
};
width = 1982;
},
{
layerId = "E08E4BD2-F9DD-4A22-B137-462FE0EF4830";
paths = (
{
closed = 1;
nodes = (
"487 205 LINE",
"487 514 LINE",
"470 1132 LINE",
"476 1133 LINE",
"921 20 LINE",
"1142 20 LINE",
"1577 1142 LINE",
"1583 1141 LINE",
"1578 484 LINE",
"1578 205 LINE",
"1415 175 LINE",
"1415 0 LINE",
"2018 0 LINE",
"2018 175 LINE",
"1862 205 LINE",
"1862 1250 LINE",
"2018 1280 LINE",
"2018 1456 LINE",
"1430 1456 LINE",
"1046 441 LINE",
"1040 441 LINE",
"643 1456 LINE",
"56 1456 LINE",
"56 1280 LINE",
"211 1250 LINE",
"211 205 LINE",
"56 175 LINE",
"56 0 LINE",
"659 0 LINE",
"659 175 LINE"
);
}
);
width = 2066;
},
{
layerId = "3540F6DD-AC2C-489F-A09A-29A5B6885314";
paths = (
{
closed = 1;
nodes = (
"516 237 LINE",
"516 475 LINE",
"492 1099 LINE",
"499 1100 LINE",
"917 0 LINE",
"1193 0 LINE",
"1605 1113 LINE",
"1611 1112 LINE",
"1603 427 LINE",
"1603 237 LINE",
"1446 205 LINE",
"1446 0 LINE",
"2098 0 LINE",
"2098 205 LINE",
"1947 237 LINE",
"1947 1218 LINE",
"2098 1250 LINE",
"2098 1456 LINE",
"1419 1456 LINE",
"1077 497 LINE",
"1071 497 LINE",
"719 1456 LINE",
"32 1456 LINE",
"32 1250 LINE",
"182 1218 LINE",
"182 237 LINE",
"32 205 LINE",
"32 0 LINE",
"685 0 LINE",
"685 205 LINE"
);
}
);
width = 2118;
}
);
note = M;
unicode = 004D;
},
{
glyphname = N;
lastChange = "2021-05-27 10:38:10 +0000";
layers = (
{
layerId = "E37246A9-A376-4020-9DA5-E0C9FF7935B5";
paths = (
{
closed = 1;
nodes = (
"289 54 LINE",
"289 1354 LINE",
"295 1356 LINE",
"1229 0 LINE",
"1283 0 LINE",
"1283 1402 LINE",
"1446 1402 LINE",
"1446 1456 LINE",
"1066 1456 LINE",
"1066 1402 LINE",
"1229 1402 LINE",
"1229 105 LINE",
"1223 103 LINE",
"289 1456 LINE",
"71 1456 LINE",
"71 1402 LINE",
"234 1402 LINE",
"234 54 LINE",
"71 54 LINE",
"71 0 LINE",
"452 0 LINE",
"452 54 LINE"
);
}
);
width = 1517;
},
{
layerId = "142AFF07-46EF-45A1-8A7E-F20FA79F7038";
paths = (
{
closed = 1;
nodes = (
"353 100 LINE",
"353 1255 LINE",
"359 1257 LINE",
"1200 0 LINE",
"1312 0 LINE",
"1312 1355 LINE",
"1475 1368 LINE",
"1475 1456 LINE",
"1029 1456 LINE",
"1029 1368 LINE",
"1199 1355 LINE",
"1199 206 LINE",
"1193 204 LINE",
"361 1456 LINE",
"77 1456 LINE",
"77 1368 LINE",
"240 1355 LINE",
"240 100 LINE",
"77 87 LINE",
"77 0 LINE",
"523 0 LINE",
"523 87 LINE"
);
}
);
width = 1552;
},
{
layerId = "1A30CC2E-2F0E-43C1-8400-CBCC094AAC97";
paths = (
{
closed = 1;
nodes = (
"433 1141 LINE",
"1166 0 LINE",
"1346 0 LINE",
"1346 1301 LINE",
"1509 1329 LINE",
"1509 1456 LINE",
"986 1456 LINE",
"986 1329 LINE",
"1165 1301 LINE",
"1165 323 LINE",
"1159 321 LINE",
"445 1456 LINE",
"83 1456 LINE",
"83 1329 LINE",
"246 1301 LINE",
"246 154 LINE",
"83 126 LINE",
"83 0 LINE",
"606 0 LINE",
"606 126 LINE",
"427 154 LINE",
"427 1139 LINE"
);
}
);
userData = {
assembly = "NPUSHB[ ]	/* 37 values pushed */\01221 19 16 15 12 11 9 6 5 4 3 0 12 0 1 1 76 2 1 1 1 31 77 3 1 0 0 32 0 78 19 21 21 17 4 8 26 \012CALL[ ]	/* CallFunction */";
};
width = 1592;
},
{
layerId = "E08E4BD2-F9DD-4A22-B137-462FE0EF4830";
paths = (
{
closed = 1;
nodes = (
"472 205 LINE",
"472 999 LINE",
"478 1000 LINE",
"1126 0 LINE",
"1408 0 LINE",
"1408 1250 LINE",
"1564 1280 LINE",
"1564 1456 LINE",
"961 1456 LINE",
"961 1280 LINE",
"1147 1250 LINE",
"1147 447 LINE",
"1141 446 LINE",
"507 1456 LINE",
"56 1456 LINE",
"56 1280 LINE",
"211 1250 LINE",
"211 205 LINE",
"56 175 LINE",
"56 0 LINE",
"659 0 LINE",
"659 175 LINE"
);
}
);
width = 1604;
},
{
layerId = "3540F6DD-AC2C-489F-A09A-29A5B6885314";
paths = (
{
closed = 1;
nodes = (
"500 237 LINE",
"500 912 LINE",
"506 912 LINE",
"1101 0 LINE",
"1447 0 LINE",
"1447 1218 LINE",
"1598 1250 LINE",
"1598 1456 LINE",
"945 1456 LINE",
"945 1250 LINE",
"1136 1218 LINE",
"1136 524 LINE",
"1130 524 LINE",
"546 1456 LINE",
"39 1456 LINE",
"39 1250 LINE",
"189 1218 LINE",
"189 237 LINE",
"39 205 LINE",
"39 0 LINE",
"692 0 LINE",
"692 205 LINE"
);
}
);
width = 1611;
}
);
note = N;
unicode = 004E;
},
{
glyphname = O;
lastChange = "2021-05-27 10:38:10 +0000";
layers = (
{
layerId = "E37246A9-A376-4020-9DA5-E0C9FF7935B5";
paths = (
{
closed = 1;
nodes = (
"920 -21 OFFCURVE",
"1072 52 OFFCURVE",
"1180 181 CURVE SMOOTH",
"1287 310 OFFCURVE",
"1348 495 OFFCURVE",
"1348 719 CURVE SMOOTH",
"1348 737 LINE SMOOTH",
"1348 961 OFFCURVE",
"1287 1145 OFFCURVE",
"1179 1275 CURVE SMOOTH",
"1070 1405 OFFCURVE",
"918 1477 OFFCURVE",
"738 1477 CURVE SMOOTH",
"557 1477 OFFCURVE",
"406 1405 OFFCURVE",
"298 1275 CURVE SMOOTH",
"190 1145 OFFCURVE",
"130 961 OFFCURVE",
"130 737 CURVE SMOOTH",
"130 719 LINE SMOOTH",
"130 495 OFFCURVE",
"191 312 OFFCURVE",
"299 182 CURVE SMOOTH",
"407 52 OFFCURVE",
"559 -21 OFFCURVE",
"740 -21 CURVE SMOOTH"
);
},
{
closed = 1;
nodes = (
"515 33 OFFCURVE",
"345 152 OFFCURVE",
"254 358 CURVE SMOOTH",
"208 461 OFFCURVE",
"185 581 OFFCURVE",
"185 719 CURVE SMOOTH",
"185 739 LINE SMOOTH",
"185 1014 OFFCURVE",
"281 1225 OFFCURVE",
"446 1338 CURVE SMOOTH",
"529 1395 OFFCURVE",
"626 1423 OFFCURVE",
"738 1423 CURVE SMOOTH",
"963 1423 OFFCURVE",
"1134 1304 OFFCURVE",
"1226 1099 CURVE SMOOTH",
"1271 996 OFFCURVE",
"1294 876 OFFCURVE",
"1294 739 CURVE SMOOTH",
"1294 719 LINE SMOOTH",
"1294 443 OFFCURVE",
"1200 231 OFFCURVE",
"1034 118 CURVE SMOOTH",
"951 61 OFFCURVE",
"853 33 OFFCURVE",
"740 33 CURVE SMOOTH"
);
}
);
width = 1488;
},
{
layerId = "142AFF07-46EF-45A1-8A7E-F20FA79F7038";
paths = (
{
closed = 1;
nodes = (
"898 -21 OFFCURVE",
"1050 52 OFFCURVE",
"1155 183 CURVE SMOOTH",
"1260 314 OFFCURVE",
"1317 497 OFFCURVE",
"1317 718 CURVE SMOOTH",
"1317 737 LINE SMOOTH",
"1317 958 OFFCURVE",
"1261 1141 OFFCURVE",
"1155 1273 CURVE SMOOTH",
"1049 1404 OFFCURVE",
"897 1477 OFFCURVE",
"709 1477 CURVE SMOOTH",
"525 1477 OFFCURVE",
"374 1404 OFFCURVE",
"267 1273 CURVE SMOOTH",
"160 1141 OFFCURVE",
"102 958 OFFCURVE",
"102 737 CURVE SMOOTH",
"102 718 LINE SMOOTH",
"102 497 OFFCURVE",
"161 314 OFFCURVE",
"268 183 CURVE SMOOTH",
"375 52 OFFCURVE",
"526 -21 OFFCURVE",
"710 -21 CURVE SMOOTH"
);
},
{
closed = 1;
nodes = (
"509 84 OFFCURVE",
"360 194 OFFCURVE",
"282 385 CURVE SMOOTH",
"243 480 OFFCURVE",
"223 591 OFFCURVE",
"223 718 CURVE SMOOTH",
"223 739 LINE SMOOTH",
"223 991 OFFCURVE",
"304 1187 OFFCURVE",
"449 1293 CURVE SMOOTH",
"522 1346 OFFCURVE",
"608 1372 OFFCURVE",
"709 1372 CURVE SMOOTH",
"918 1372 OFFCURVE",
"1065 1260 OFFCURVE",
"1141 1071 CURVE SMOOTH",
"1178 976 OFFCURVE",
"1197 866 OFFCURVE",
"1197 739 CURVE SMOOTH",
"1197 718 LINE SMOOTH",
"1197 465 OFFCURVE",
"1121 268 OFFCURVE",
"977 163 CURVE SMOOTH",
"904 110 OFFCURVE",
"815 84 OFFCURVE",
"710 84 CURVE SMOOTH"
);
}
);
width = 1425;
},
{
layerId = "1A30CC2E-2F0E-43C1-8400-CBCC094AAC97";
paths = (
{
closed = 1;
nodes = (
"874 -21 OFFCURVE",
"1025 54 OFFCURVE",
"1127 186 CURVE SMOOTH",
"1229 317 OFFCURVE",
"1281 500 OFFCURVE",
"1281 717 CURVE SMOOTH",
"1281 738 LINE SMOOTH",
"1281 954 OFFCURVE",
"1229 1138 OFFCURVE",
"1127 1270 CURVE SMOOTH",
"1025 1402 OFFCURVE",
"874 1477 OFFCURVE",
"675 1477 CURVE SMOOTH",
"487 1477 OFFCURVE",
"336 1402 OFFCURVE",
"232 1270 CURVE SMOOTH",
"127 1138 OFFCURVE",
"70 954 OFFCURVE",
"70 738 CURVE SMOOTH",
"70 717 LINE SMOOTH",
"70 500 OFFCURVE",
"127 317 OFFCURVE",
"232 186 CURVE SMOOTH",
"336 54 OFFCURVE",
"487 -21 OFFCURVE",
"675 -21 CURVE SMOOTH"
);
},
{
closed = 1;
nodes = (
"500 143 OFFCURVE",
"378 245 OFFCURVE",
"315 418 CURVE SMOOTH",
"284 504 OFFCURVE",
"268 604 OFFCURVE",
"268 717 CURVE SMOOTH",
"268 740 LINE SMOOTH",
"268 965 OFFCURVE",
"332 1142 OFFCURVE",
"453 1239 CURVE SMOOTH",
"514 1288 OFFCURVE",
"588 1312 OFFCURVE",
"675 1312 CURVE SMOOTH",
"866 1312 OFFCURVE",
"984 1210 OFFCURVE",
"1041 1039 CURVE SMOOTH",
"1069 953 OFFCURVE",
"1083 853 OFFCURVE",
"1083 740 CURVE SMOOTH",
"1083 717 LINE SMOOTH",
"1083 489 OFFCURVE",
"1029 311 OFFCURVE",
"910 215 CURVE SMOOTH",
"850 167 OFFCURVE",
"772 143 OFFCURVE",
"675 143 CURVE SMOOTH"
);
}
);
userData = {
assembly = "NPUSHB[ ]	/* 42 values pushed */\0120 3 3 1 97 0 1 1 37 77 5 1 2 2 0 97 4 1 0 0 38 0 78 23 22 1 0 32 30 22 39 23 39 12 10 0 21 1 21 6 8 22 \012CALL[ ]	/* CallFunction */";
};
width = 1351;
},
{
layerId = "E08E4BD2-F9DD-4A22-B137-462FE0EF4830";
paths = (
{
closed = 1;
nodes = (
"920 -21 OFFCURVE",
"1085 56 OFFCURVE",
"1202 189 CURVE SMOOTH",
"1319 321 OFFCURVE",
"1385 504 OFFCURVE",
"1385 717 CURVE SMOOTH",
"1385 739 LINE SMOOTH",
"1385 951 OFFCURVE",
"1319 1134 OFFCURVE",
"1202 1267 CURVE SMOOTH",
"1085 1400 OFFCURVE",
"919 1477 OFFCURVE",
"722 1477 CURVE SMOOTH",
"526 1477 OFFCURVE",
"362 1400 OFFCURVE",
"246 1267 CURVE SMOOTH",
"130 1134 OFFCURVE",
"65 951 OFFCURVE",
"65 739 CURVE SMOOTH",
"65 717 LINE SMOOTH",
"65 504 OFFCURVE",
"130 321 OFFCURVE",
"247 189 CURVE SMOOTH",
"363 56 OFFCURVE",
"527 -21 OFFCURVE",
"723 -21 CURVE SMOOTH"
);
},
{
closed = 1;
nodes = (
"560 206 OFFCURVE",
"452 296 OFFCURVE",
"398 449 CURVE SMOOTH",
"371 526 OFFCURVE",
"357 615 OFFCURVE",
"357 717 CURVE SMOOTH",
"357 741 LINE SMOOTH",
"357 945 OFFCURVE",
"411 1101 OFFCURVE",
"519 1186 CURVE SMOOTH",
"573 1228 OFFCURVE",
"641 1249 OFFCURVE",
"722 1249 CURVE SMOOTH",
"886 1249 OFFCURVE",
"996 1159 OFFCURVE",
"1052 1007 CURVE SMOOTH",
"1080 930 OFFCURVE",
"1094 842 OFFCURVE",
"1094 741 CURVE SMOOTH",
"1094 717 LINE SMOOTH",
"1094 513 OFFCURVE",
"1038 355 OFFCURVE",
"929 270 CURVE SMOOTH",
"874 227 OFFCURVE",
"806 206 OFFCURVE",
"723 206 CURVE SMOOTH"
);
}
);
width = 1446;
},
{
layerId = "3540F6DD-AC2C-489F-A09A-29A5B6885314";
paths = (
{
closed = 1;
nodes = (
"949 -21 OFFCURVE",
"1122 57 OFFCURVE",
"1249 190 CURVE SMOOTH",
"1376 323 OFFCURVE",
"1450 506 OFFCURVE",
"1450 717 CURVE SMOOTH",
"1450 740 LINE SMOOTH",
"1450 949 OFFCURVE",
"1376 1132 OFFCURVE",
"1249 1265 CURVE SMOOTH",
"1121 1398 OFFCURVE",
"948 1477 OFFCURVE",
"751 1477 CURVE SMOOTH",
"550 1477 OFFCURVE",
"379 1398 OFFCURVE",
"256 1265 CURVE SMOOTH",
"132 1132 OFFCURVE",
"62 949 OFFCURVE",
"62 740 CURVE SMOOTH",
"62 717 LINE SMOOTH",
"62 506 OFFCURVE",
"132 323 OFFCURVE",
"256 190 CURVE SMOOTH",
"380 57 OFFCURVE",
"552 -21 OFFCURVE",
"753 -21 CURVE SMOOTH"
);
},
{
closed = 1;
nodes = (
"598 245 OFFCURVE",
"498 327 OFFCURVE",
"450 469 CURVE SMOOTH",
"425 540 OFFCURVE",
"413 622 OFFCURVE",
"413 717 CURVE SMOOTH",
"413 742 LINE SMOOTH",
"413 931 OFFCURVE",
"460 1075 OFFCURVE",
"560 1152 CURVE SMOOTH",
"609 1191 OFFCURVE",
"673 1210 OFFCURVE",
"751 1210 CURVE SMOOTH",
"899 1210 OFFCURVE",
"1004 1127 OFFCURVE",
"1060 987 CURVE SMOOTH",
"1087 916 OFFCURVE",
"1101 835 OFFCURVE",
"1101 742 CURVE SMOOTH",
"1101 717 LINE SMOOTH",
"1101 528 OFFCURVE",
"1045 383 OFFCURVE",
"941 304 CURVE SMOOTH",
"889 265 OFFCURVE",
"826 245 OFFCURVE",
"753 245 CURVE SMOOTH"
);
}
);
width = 1505;
}
);
note = O;
unicode = 004F;
},
{
glyphname = P;
lastChange = "2021-05-27 10:38:10 +0000";
layers = (
{
layerId = "E37246A9-A376-4020-9DA5-E0C9FF7935B5";
paths = (
{
closed = 1;
nodes = (
"288 54 LINE",
"288 625 LINE",
"639 625 LINE SMOOTH",
"840 625 OFFCURVE",
"982 696 OFFCURVE",
"1055 821 CURVE SMOOTH",
"1091 883 OFFCURVE",
"1109 956 OFFCURVE",
"1109 1041 CURVE SMOOTH",
"1109 1208 OFFCURVE",
"1035 1336 OFFCURVE",
"895 1405 CURVE SMOOTH",
"825 1439 OFFCURVE",
"740 1456 OFFCURVE",
"639 1456 CURVE SMOOTH",
"71 1456 LINE",
"71 1402 LINE",
"234 1402 LINE",
"234 54 LINE",
"71 54 LINE",
"71 0 LINE",
"451 0 LINE",
"451 54 LINE"
);
},
{
closed = 1;
nodes = (
"916 1402 OFFCURVE",
"1055 1250 OFFCURVE",
"1055 1039 CURVE SMOOTH",
"1055 834 OFFCURVE",
"915 679 OFFCURVE",
"639 679 CURVE SMOOTH",
"288 679 LINE",
"288 1402 LINE",
"639 1402 LINE SMOOTH"
);
}
);
width = 1255;
},
{
layerId = "142AFF07-46EF-45A1-8A7E-F20FA79F7038";
paths = (
{
closed = 1;
nodes = (
"359 100 LINE",
"359 606 LINE",
"690 606 LINE SMOOTH",
"895 606 OFFCURVE",
"1039 679 OFFCURVE",
"1114 807 CURVE SMOOTH",
"1151 870 OFFCURVE",
"1170 945 OFFCURVE",
"1170 1031 CURVE SMOOTH",
"1170 1202 OFFCURVE",
"1094 1332 OFFCURVE",
"951 1403 CURVE SMOOTH",
"880 1438 OFFCURVE",
"793 1456 OFFCURVE",
"690 1456 CURVE SMOOTH",
"76 1456 LINE",
"76 1368 LINE",
"239 1355 LINE",
"239 100 LINE",
"76 87 LINE",
"76 0 LINE",
"522 0 LINE",
"522 87 LINE"
);
},
{
closed = 1;
nodes = (
"931 1355 OFFCURVE",
"1050 1217 OFFCURVE",
"1050 1029 CURVE SMOOTH",
"1050 845 OFFCURVE",
"930 706 OFFCURVE",
"690 706 CURVE SMOOTH",
"359 706 LINE",
"359 1355 LINE",
"690 1355 LINE SMOOTH"
);
}
);
width = 1274;
},
{
layerId = "1A30CC2E-2F0E-43C1-8400-CBCC094AAC97";
paths = (
{
closed = 1;
nodes = (
"441 584 LINE",
"750 584 LINE SMOOTH",
"958 584 OFFCURVE",
"1107 659 OFFCURVE",
"1184 790 CURVE SMOOTH",
"1223 855 OFFCURVE",
"1242 932 OFFCURVE",
"1242 1020 CURVE SMOOTH",
"1242 1195 OFFCURVE",
"1163 1329 OFFCURVE",
"1016 1402 CURVE SMOOTH",
"943 1438 OFFCURVE",
"854 1456 OFFCURVE",
"750 1456 CURVE SMOOTH",
"81 1456 LINE",
"81 1329 LINE",
"244 1301 LINE",
"244 154 LINE",
"81 126 LINE",
"81 0 LINE",
"604 0 LINE",
"604 126 LINE",
"441 154 LINE"
);
},
{
closed = 1;
nodes = (
"947 1301 OFFCURVE",
"1045 1179 OFFCURVE",
"1045 1018 CURVE SMOOTH",
"1045 857 OFFCURVE",
"947 738 OFFCURVE",
"750 738 CURVE SMOOTH",
"441 738 LINE",
"441 1301 LINE",
"750 1301 LINE SMOOTH"
);
}
);
userData = {
assembly = "NPUSHB[ ]	/* 56 values pushed */\0125 1 4 1 19 18 3 2 4 0 2 2 76 4 1 4 1 75 0 3 0 2 0 3 2 103 5 1 4 4 1 95 0 1 1 31 77 0 0 0 32 0 78 20 20 20 28 20 27 36 38 53 16 6 8 26 \012CALL[ ]	/* CallFunction */";
};
width = 1297;
},
{
layerId = "E08E4BD2-F9DD-4A22-B137-462FE0EF4830";
paths = (
{
closed = 1;
nodes = (
"503 205 LINE",
"503 528 LINE",
"749 528 LINE SMOOTH",
"972 528 OFFCURVE",
"1136 608 OFFCURVE",
"1223 748 CURVE SMOOTH",
"1266 817 OFFCURVE",
"1288 898 OFFCURVE",
"1288 991 CURVE SMOOTH",
"1288 1176 OFFCURVE",
"1198 1320 OFFCURVE",
"1037 1398 CURVE SMOOTH",
"956 1437 OFFCURVE",
"860 1456 OFFCURVE",
"749 1456 CURVE SMOOTH",
"56 1456 LINE",
"56 1280 LINE",
"211 1250 LINE",
"211 205 LINE",
"56 175 LINE",
"56 0 LINE",
"659 0 LINE",
"659 175 LINE"
);
},
{
closed = 1;
nodes = (
"912 1231 OFFCURVE",
"996 1129 OFFCURVE",
"996 989 CURVE SMOOTH",
"996 852 OFFCURVE",
"912 753 OFFCURVE",
"749 753 CURVE SMOOTH",
"503 753 LINE",
"503 1231 LINE",
"749 1231 LINE SMOOTH"
);
}
);
width = 1325;
},
{
layerId = "3540F6DD-AC2C-489F-A09A-29A5B6885314";
paths = (
{
closed = 1;
nodes = (
"542 237 LINE",
"542 493 LINE",
"748 493 LINE SMOOTH",
"980 493 OFFCURVE",
"1155 577 OFFCURVE",
"1248 721 CURVE SMOOTH",
"1294 793 OFFCURVE",
"1317 877 OFFCURVE",
"1317 973 CURVE SMOOTH",
"1317 1165 OFFCURVE",
"1221 1314 OFFCURVE",
"1050 1395 CURVE SMOOTH",
"965 1436 OFFCURVE",
"864 1456 OFFCURVE",
"748 1456 CURVE SMOOTH",
"40 1456 LINE",
"40 1250 LINE",
"191 1218 LINE",
"191 237 LINE",
"40 205 LINE",
"40 0 LINE",
"693 0 LINE",
"693 205 LINE"
);
},
{
closed = 1;
nodes = (
"891 1188 OFFCURVE",
"966 1098 OFFCURVE",
"966 971 CURVE SMOOTH",
"966 848 OFFCURVE",
"891 762 OFFCURVE",
"748 762 CURVE SMOOTH",
"542 762 LINE",
"542 1188 LINE",
"748 1188 LINE SMOOTH"
);
}
);
width = 1342;
}
);
note = P;
unicode = 0050;
},
{
glyphname = Q;
lastChange = "2021-05-27 10:38:10 +0000";
layers = (
{
layerId = "E37246A9-A376-4020-9DA5-E0C9FF7935B5";
paths = (
{
closed = 1;
nodes = (
"1230 171 OFFCURVE",
"1348 410 OFFCURVE",
"1348 719 CURVE SMOOTH",
"1348 737 LINE SMOOTH",
"1348 961 OFFCURVE",
"1287 1145 OFFCURVE",
"1179 1275 CURVE SMOOTH",
"1070 1405 OFFCURVE",
"918 1477 OFFCURVE",
"738 1477 CURVE SMOOTH",
"557 1477 OFFCURVE",
"406 1405 OFFCURVE",
"298 1275 CURVE SMOOTH",
"190 1145 OFFCURVE",
"130 961 OFFCURVE",
"130 737 CURVE SMOOTH",
"130 719 LINE SMOOTH",
"130 495 OFFCURVE",
"191 312 OFFCURVE",
"299 182 CURVE SMOOTH",
"407 52 OFFCURVE",
"559 -21 OFFCURVE",
"740 -21 CURVE SMOOTH",
"825 -21 OFFCURVE",
"906 -5 OFFCURVE",
"979 28 CURVE",
"1308 -206 LINE",
"1343 -165 LINE",
"1033 56 LINE"
);
},
{
closed = 1;
nodes = (
"515 33 OFFCURVE",
"345 152 OFFCURVE",
"254 358 CURVE SMOOTH",
"208 461 OFFCURVE",
"185 581 OFFCURVE",
"185 719 CURVE SMOOTH",
"185 739 LINE SMOOTH",
"185 1014 OFFCURVE",
"281 1225 OFFCURVE",
"446 1338 CURVE SMOOTH",
"529 1395 OFFCURVE",
"626 1423 OFFCURVE",
"738 1423 CURVE SMOOTH",
"963 1423 OFFCURVE",
"1134 1304 OFFCURVE",
"1226 1099 CURVE SMOOTH",
"1271 996 OFFCURVE",
"1294 876 OFFCURVE",
"1294 739 CURVE SMOOTH",
"1294 719 LINE SMOOTH",
"1294 443 OFFCURVE",
"1200 231 OFFCURVE",
"1034 118 CURVE SMOOTH",
"951 61 OFFCURVE",
"853 33 OFFCURVE",
"740 33 CURVE SMOOTH"
);
}
);
width = 1478;
},
{
layerId = "142AFF07-46EF-45A1-8A7E-F20FA79F7038";
paths = (
{
closed = 1;
nodes = (
"1229 200 OFFCURVE",
"1316 430 OFFCURVE",
"1316 718 CURVE SMOOTH",
"1316 737 LINE SMOOTH",
"1316 958 OFFCURVE",
"1260 1141 OFFCURVE",
"1154 1273 CURVE SMOOTH",
"1048 1404 OFFCURVE",
"896 1477 OFFCURVE",
"708 1477 CURVE SMOOTH",
"524 1477 OFFCURVE",
"374 1404 OFFCURVE",
"267 1273 CURVE SMOOTH",
"160 1141 OFFCURVE",
"102 958 OFFCURVE",
"102 737 CURVE SMOOTH",
"102 718 LINE SMOOTH",
"102 498 OFFCURVE",
"161 315 OFFCURVE",
"268 184 CURVE SMOOTH",
"375 52 OFFCURVE",
"526 -21 OFFCURVE",
"710 -21 CURVE SMOOTH",
"789 -21 OFFCURVE",
"865 -7 OFFCURVE",
"936 21 CURVE",
"1275 -224 LINE",
"1345 -134 LINE",
"1044 79 LINE"
);
},
{
closed = 1;
nodes = (
"507 84 OFFCURVE",
"360 194 OFFCURVE",
"282 385 CURVE SMOOTH",
"243 480 OFFCURVE",
"223 591 OFFCURVE",
"223 718 CURVE SMOOTH",
"223 739 LINE SMOOTH",
"223 991 OFFCURVE",
"304 1187 OFFCURVE",
"449 1293 CURVE SMOOTH",
"522 1346 OFFCURVE",
"608 1372 OFFCURVE",
"708 1372 CURVE SMOOTH",
"917 1372 OFFCURVE",
"1064 1260 OFFCURVE",
"1140 1071 CURVE SMOOTH",
"1177 976 OFFCURVE",
"1196 866 OFFCURVE",
"1196 739 CURVE SMOOTH",
"1196 718 LINE SMOOTH",
"1196 465 OFFCURVE",
"1119 268 OFFCURVE",
"975 163 CURVE SMOOTH",
"902 110 OFFCURVE",
"814 84 OFFCURVE",
"710 84 CURVE SMOOTH"
);
}
);
width = 1431;
},
{
layerId = "1A30CC2E-2F0E-43C1-8400-CBCC094AAC97";
paths = (
{
closed = 1;
nodes = (
"1228 236 OFFCURVE",
"1279 454 OFFCURVE",
"1279 717 CURVE SMOOTH",
"1279 738 LINE SMOOTH",
"1279 954 OFFCURVE",
"1227 1137 OFFCURVE",
"1125 1270 CURVE SMOOTH",
"1023 1402 OFFCURVE",
"871 1477 OFFCURVE",
"674 1477 CURVE SMOOTH",
"486 1477 OFFCURVE",
"335 1402 OFFCURVE",
"231 1270 CURVE SMOOTH",
"127 1137 OFFCURVE",
"70 954 OFFCURVE",
"70 738 CURVE SMOOTH",
"70 717 LINE SMOOTH",
"70 501 OFFCURVE",
"127 318 OFFCURVE",
"232 186 CURVE SMOOTH",
"336 54 OFFCURVE",
"487 -21 OFFCURVE",
"674 -21 CURVE SMOOTH",
"747 -21 OFFCURVE",
"818 -8 OFFCURVE",
"885 13 CURVE",
"1237 -245 LINE",
"1348 -98 LINE",
"1056 105 LINE"
);
},
{
closed = 1;
nodes = (
"498 143 OFFCURVE",
"376 245 OFFCURVE",
"314 418 CURVE SMOOTH",
"283 504 OFFCURVE",
"267 604 OFFCURVE",
"267 717 CURVE SMOOTH",
"267 740 LINE SMOOTH",
"267 965 OFFCURVE",
"332 1142 OFFCURVE",
"453 1239 CURVE SMOOTH",
"514 1288 OFFCURVE",
"587 1312 OFFCURVE",
"674 1312 CURVE SMOOTH",
"865 1312 OFFCURVE",
"983 1210 OFFCURVE",
"1040 1039 CURVE SMOOTH",
"1068 953 OFFCURVE",
"1082 853 OFFCURVE",
"1082 740 CURVE SMOOTH",
"1082 717 LINE SMOOTH",
"1082 489 OFFCURVE",
"1025 311 OFFCURVE",
"905 215 CURVE SMOOTH",
"845 167 OFFCURVE",
"768 143 OFFCURVE",
"674 143 CURVE SMOOTH"
);
}
);
userData = {
assembly = "NPUSHB[ ]	/* 46 values pushed */\01225 2 2 0 2 1 76 1 1 0 73 0 3 3 1 97 0 1 1 37 77 4 1 2 2 0 97 0 0 0 38 0 78 27 26 36 34 26 43 27 43 41 36 5 8 24 \012CALL[ ]	/* CallFunction */";
};
width = 1376;
},
{
layerId = "E08E4BD2-F9DD-4A22-B137-462FE0EF4830";
paths = (
{
closed = 1;
nodes = (
"1291 246 OFFCURVE",
"1387 464 OFFCURVE",
"1387 717 CURVE SMOOTH",
"1387 739 LINE SMOOTH",
"1387 951 OFFCURVE",
"1322 1135 OFFCURVE",
"1204 1268 CURVE SMOOTH",
"1086 1400 OFFCURVE",
"921 1477 OFFCURVE",
"724 1477 CURVE SMOOTH",
"528 1477 OFFCURVE",
"364 1400 OFFCURVE",
"248 1268 CURVE SMOOTH",
"132 1135 OFFCURVE",
"67 951 OFFCURVE",
"67 739 CURVE SMOOTH",
"67 717 LINE SMOOTH",
"67 504 OFFCURVE",
"132 320 OFFCURVE",
"248 188 CURVE SMOOTH",
"364 56 OFFCURVE",
"529 -21 OFFCURVE",
"725 -21 CURVE SMOOTH",
"777 -21 OFFCURVE",
"830 -14 OFFCURVE",
"882 -3 CURVE",
"1293 -281 LINE",
"1437 -79 LINE",
"1127 114 LINE"
);
},
{
closed = 1;
nodes = (
"564 206 OFFCURVE",
"454 296 OFFCURVE",
"400 449 CURVE SMOOTH",
"373 526 OFFCURVE",
"359 615 OFFCURVE",
"359 717 CURVE SMOOTH",
"359 741 LINE SMOOTH",
"359 945 OFFCURVE",
"412 1101 OFFCURVE",
"520 1186 CURVE SMOOTH",
"574 1228 OFFCURVE",
"642 1249 OFFCURVE",
"724 1249 CURVE SMOOTH",
"888 1249 OFFCURVE",
"998 1159 OFFCURVE",
"1054 1007 CURVE SMOOTH",
"1082 930 OFFCURVE",
"1096 842 OFFCURVE",
"1096 741 CURVE SMOOTH",
"1096 717 LINE SMOOTH",
"1096 513 OFFCURVE",
"1042 355 OFFCURVE",
"932 270 CURVE SMOOTH",
"877 227 OFFCURVE",
"808 206 OFFCURVE",
"725 206 CURVE SMOOTH"
);
}
);
width = 1449;
},
{
layerId = "3540F6DD-AC2C-489F-A09A-29A5B6885314";
paths = (
{
closed = 1;
nodes = (
"1330 252 OFFCURVE",
"1454 470 OFFCURVE",
"1454 717 CURVE SMOOTH",
"1454 740 LINE SMOOTH",
"1454 949 OFFCURVE",
"1380 1133 OFFCURVE",
"1253 1266 CURVE SMOOTH",
"1125 1399 OFFCURVE",
"952 1477 OFFCURVE",
"755 1477 CURVE SMOOTH",
"554 1477 OFFCURVE",
"382 1399 OFFCURVE",
"259 1266 CURVE SMOOTH",
"135 1133 OFFCURVE",
"65 949 OFFCURVE",
"65 740 CURVE SMOOTH",
"65 717 LINE SMOOTH",
"65 505 OFFCURVE",
"135 322 OFFCURVE",
"259 190 CURVE SMOOTH",
"382 57 OFFCURVE",
"554 -21 OFFCURVE",
"757 -21 CURVE SMOOTH",
"796 -21 OFFCURVE",
"837 -17 OFFCURVE",
"880 -13 CURVE",
"1328 -303 LINE",
"1492 -67 LINE",
"1171 120 LINE"
);
},
{
closed = 1;
nodes = (
"604 245 OFFCURVE",
"502 327 OFFCURVE",
"453 469 CURVE SMOOTH",
"428 540 OFFCURVE",
"416 622 OFFCURVE",
"416 717 CURVE SMOOTH",
"416 742 LINE SMOOTH",
"416 931 OFFCURVE",
"462 1075 OFFCURVE",
"562 1152 CURVE SMOOTH",
"612 1191 OFFCURVE",
"676 1210 OFFCURVE",
"755 1210 CURVE SMOOTH",
"903 1210 OFFCURVE",
"1008 1127 OFFCURVE",
"1064 987 CURVE SMOOTH",
"1091 916 OFFCURVE",
"1105 835 OFFCURVE",
"1105 742 CURVE SMOOTH",
"1105 717 LINE SMOOTH",
"1105 528 OFFCURVE",
"1051 383 OFFCURVE",
"948 304 CURVE SMOOTH",
"896 265 OFFCURVE",
"832 245 OFFCURVE",
"757 245 CURVE SMOOTH"
);
}
);
width = 1494;
}
);
note = Q;
unicode = 0051;
},
{
glyphname = R;
lastChange = "2021-05-27 10:38:10 +0000";
layers = (
{
layerId = "E37246A9-A376-4020-9DA5-E0C9FF7935B5";
paths = (
{
closed = 1;
nodes = (
"933 728 OFFCURVE",
"1019 781 OFFCURVE",
"1074 858 CURVE SMOOTH",
"1114 915 OFFCURVE",
"1134 984 OFFCURVE",
"1134 1065 CURVE SMOOTH",
"1134 1236 OFFCURVE",
"1059 1351 OFFCURVE",
"917 1411 CURVE SMOOTH",
"846 1440 OFFCURVE",
"759 1455 OFFCURVE",
"656 1455 CURVE SMOOTH",
"71 1455 LINE",
"71 1401 LINE",
"234 1401 LINE",
"234 53 LINE",
"71 53 LINE",
"71 -1 LINE",
"451 -1 LINE",
"451 53 LINE",
"288 53 LINE",
"288 683 LINE",
"652 683 LINE SMOOTH",
"695 683 OFFCURVE",
"735 686 OFFCURVE",
"773 692 CURVE",
"1067 -1 LINE",
"1236 -1 LINE",
"1236 53 LINE",
"1103 53 LINE",
"823 702 LINE"
);
},
{
closed = 1;
nodes = (
"288 1401 LINE",
"656 1401 LINE SMOOTH",
"937 1401 OFFCURVE",
"1080 1282 OFFCURVE",
"1080 1065 CURVE SMOOTH",
"1080 878 OFFCURVE",
"946 737 OFFCURVE",
"651 737 CURVE SMOOTH",
"288 737 LINE"
);
}
);
width = 1364;
},
{
layerId = "142AFF07-46EF-45A1-8A7E-F20FA79F7038";
paths = (
{
closed = 1;
nodes = (
"982 717 OFFCURVE",
"1065 770 OFFCURVE",
"1117 847 CURVE SMOOTH",
"1156 904 OFFCURVE",
"1175 975 OFFCURVE",
"1175 1058 CURVE SMOOTH",
"1175 1230 OFFCURVE",
"1098 1348 OFFCURVE",
"954 1409 CURVE SMOOTH",
"882 1440 OFFCURVE",
"794 1455 OFFCURVE",
"690 1455 CURVE SMOOTH",
"76 1455 LINE",
"76 1368 LINE",
"239 1355 LINE",
"239 100 LINE",
"76 87 LINE",
"76 -1 LINE",
"522 -1 LINE",
"522 87 LINE",
"359 100 LINE",
"359 668 LINE",
"705 671 LINE SMOOTH",
"725 671 OFFCURVE",
"744 672 OFFCURVE",
"763 673 CURVE",
"1055 -1 LINE",
"1259 -1 LINE",
"1259 88 LINE",
"1140 96 LINE",
"876 691 LINE"
);
},
{
closed = 1;
nodes = (
"359 1355 LINE",
"690 1355 LINE SMOOTH",
"934 1355 OFFCURVE",
"1055 1247 OFFCURVE",
"1055 1059 CURVE SMOOTH",
"1055 884 OFFCURVE",
"938 768 OFFCURVE",
"678 768 CURVE SMOOTH",
"359 768 LINE"
);
}
);
width = 1374;
},
{
layerId = "1A30CC2E-2F0E-43C1-8400-CBCC094AAC97";
paths = (
{
closed = 1;
nodes = (
"1040 706 OFFCURVE",
"1118 758 OFFCURVE",
"1167 835 CURVE SMOOTH",
"1204 893 OFFCURVE",
"1222 965 OFFCURVE",
"1222 1050 CURVE SMOOTH",
"1222 1223 OFFCURVE",
"1145 1344 OFFCURVE",
"999 1408 CURVE SMOOTH",
"926 1439 OFFCURVE",
"836 1455 OFFCURVE",
"730 1455 CURVE SMOOTH",
"81 1455 LINE",
"81 1329 LINE",
"244 1301 LINE",
"244 154 LINE",
"81 126 LINE",
"81 0 LINE",
"604 0 LINE",
"604 126 LINE",
"441 154 LINE",
"441 650 LINE",
"750 656 LINE",
"1042 0 LINE",
"1285 0 LINE",
"1285 129 LINE",
"1184 147 LINE",
"938 679 LINE"
);
},
{
closed = 1;
nodes = (
"730 1301 LINE SMOOTH",
"931 1301 OFFCURVE",
"1025 1205 OFFCURVE",
"1025 1052 CURVE SMOOTH",
"1025 891 OFFCURVE",
"930 805 OFFCURVE",
"710 805 CURVE SMOOTH",
"441 805 LINE",
"441 1301 LINE"
);
}
);
userData = {
assembly = "NPUSHB[ ]	/* 19 values pushed */\0125 1 4 1 28 18 17 3 2 5 0 2 2 76 4 1 4 1 75 \012MPPEM[ ]	/* MeasurePixelPerEm */\012PUSHB[ ]	/* 1 value pushed */\01233 \012LT[ ]	/* LessThan */\012IF[ ]	/* If */\012NPUSHB[ ]	/* 33 values pushed */\0120 6 3 2 3 6 114 0 3 0 2 0 3 2 103 7 1 4 4 1 95 0 1 1 31 77 5 1 0 0 32 0 78 \012ELSE[ ]	/* Else */\012NPUSHB[ ]	/* 34 values pushed */\0120 6 3 2 3 6 2 128 0 3 0 2 0 3 2 103 7 1 4 4 1 95 0 1 1 31 77 5 1 0 0 32 0 78 \012EIF[ ]	/* EndIf */\012NPUSHB[ ]	/* 17 values pushed */\01219 19 32 31 30 29 19 27 19 26 36 38 37 16 8 8 26 \012CALL[ ]	/* CallFunction */";
};
width = 1385;
},
{
layerId = "E08E4BD2-F9DD-4A22-B137-462FE0EF4830";
paths = (
{
closed = 1;
nodes = (
"1114 670 OFFCURVE",
"1176 724 OFFCURVE",
"1219 793 CURVE SMOOTH",
"1262 860 OFFCURVE",
"1283 937 OFFCURVE",
"1283 1022 CURVE SMOOTH",
"1283 1203 OFFCURVE",
"1194 1335 OFFCURVE",
"1034 1404 CURVE SMOOTH",
"954 1439 OFFCURVE",
"858 1456 OFFCURVE",
"746 1456 CURVE SMOOTH",
"56 1456 LINE",
"56 1280 LINE",
"211 1250 LINE",
"211 205 LINE",
"56 175 LINE",
"56 0 LINE",
"659 0 LINE",
"659 175 LINE",
"503 205 LINE",
"503 575 LINE",
"769 575 LINE",
"993 0 LINE",
"1347 0 LINE",
"1347 175 LINE",
"1223 204 LINE",
"1038 632 LINE"
);
},
{
closed = 1;
nodes = (
"746 1231 LINE SMOOTH",
"909 1231 OFFCURVE",
"992 1144 OFFCURVE",
"992 1009 CURVE SMOOTH",
"992 873 OFFCURVE",
"909 800 OFFCURVE",
"741 800 CURVE SMOOTH",
"503 800 LINE",
"503 1231 LINE"
);
}
);
width = 1408;
},
{
layerId = "3540F6DD-AC2C-489F-A09A-29A5B6885314";
paths = (
{
closed = 1;
nodes = (
"1160 651 OFFCURVE",
"1212 705 OFFCURVE",
"1252 767 CURVE SMOOTH",
"1298 840 OFFCURVE",
"1321 920 OFFCURVE",
"1321 1005 CURVE SMOOTH",
"1321 1190 OFFCURVE",
"1225 1329 OFFCURVE",
"1056 1402 CURVE SMOOTH",
"971 1439 OFFCURVE",
"871 1457 OFFCURVE",
"756 1457 CURVE SMOOTH",
"40 1457 LINE",
"40 1250 LINE",
"191 1218 LINE",
"191 237 LINE",
"40 205 LINE",
"40 0 LINE",
"693 0 LINE",
"693 205 LINE",
"542 237 LINE",
"542 528 LINE",
"781 525 LINE",
"962 0 LINE",
"1386 0 LINE",
"1386 204 LINE",
"1248 239 LINE",
"1096 611 LINE"
);
},
{
closed = 1;
nodes = (
"756 1188 LINE SMOOTH",
"895 1188 OFFCURVE",
"972 1106 OFFCURVE",
"972 982 CURVE SMOOTH",
"972 862 OFFCURVE",
"896 797 OFFCURVE",
"760 797 CURVE SMOOTH",
"542 797 LINE",
"542 1188 LINE"
);
}
);
width = 1422;
}
);
note = R;
unicode = 0052;
},
{
glyphname = S;
lastChange = "2021-05-27 10:38:10 +0000";
layers = (
{
layerId = "E37246A9-A376-4020-9DA5-E0C9FF7935B5";
paths = (
{
closed = 1;
nodes = (
"778 -21 OFFCURVE",
"933 41 OFFCURVE",
"1019 153 CURVE SMOOTH",
"1062 208 OFFCURVE",
"1083 274 OFFCURVE",
"1083 351 CURVE SMOOTH",
"1083 580 OFFCURVE",
"917 694 OFFCURVE",
"594 781 CURVE SMOOTH",
"373 841 OFFCURVE",
"263 903 OFFCURVE",
"219 987 CURVE SMOOTH",
"197 1028 OFFCURVE",
"186 1076 OFFCURVE",
"186 1131 CURVE SMOOTH",
"186 1235 OFFCURVE",
"249 1329 OFFCURVE",
"367 1383 CURVE SMOOTH",
"426 1410 OFFCURVE",
"497 1423 OFFCURVE",
"582 1423 CURVE SMOOTH",
"738 1423 OFFCURVE",
"877 1379 OFFCURVE",
"981 1292 CURVE",
"981 1088 LINE",
"1035 1088 LINE",
"1035 1322 LINE",
"922 1417 OFFCURVE",
"770 1477 OFFCURVE",
"582 1477 CURVE SMOOTH",
"402 1477 OFFCURVE",
"263 1415 OFFCURVE",
"188 1311 CURVE SMOOTH",
"151 1259 OFFCURVE",
"132 1198 OFFCURVE",
"132 1129 CURVE SMOOTH",
"132 988 OFFCURVE",
"184 896 OFFCURVE",
"315 827 CURVE SMOOTH",
"380 792 OFFCURVE",
"468 760 OFFCURVE",
"579 729 CURVE SMOOTH",
"800 668 OFFCURVE",
"927 600 OFFCURVE",
"985 509 CURVE SMOOTH",
"1014 464 OFFCURVE",
"1028 410 OFFCURVE",
"1028 349 CURVE SMOOTH",
"1028 225 OFFCURVE",
"948 126 OFFCURVE",
"816 73 CURVE SMOOTH",
"750 46 OFFCURVE",
"674 33 OFFCURVE",
"589 33 CURVE SMOOTH",
"449 33 OFFCURVE",
"298 73 OFFCURVE",
"154 164 CURVE",
"154 390 LINE",
"100 390 LINE",
"100 133 LINE",
"259 26 OFFCURVE",
"433 -21 OFFCURVE",
"589 -21 CURVE SMOOTH"
);
}
);
width = 1183;
},
{
layerId = "142AFF07-46EF-45A1-8A7E-F20FA79F7038";
paths = (
{
closed = 1;
nodes = (
"794 -21 OFFCURVE",
"950 46 OFFCURVE",
"1035 162 CURVE SMOOTH",
"1077 219 OFFCURVE",
"1098 287 OFFCURVE",
"1098 364 CURVE SMOOTH",
"1098 588 OFFCURVE",
"935 719 OFFCURVE",
"619 800 CURVE SMOOTH",
"424 852 OFFCURVE",
"322 906 OFFCURVE",
"278 980 CURVE SMOOTH",
"256 1017 OFFCURVE",
"245 1059 OFFCURVE",
"245 1108 CURVE SMOOTH",
"245 1209 OFFCURVE",
"302 1292 OFFCURVE",
"405 1340 CURVE SMOOTH",
"456 1363 OFFCURVE",
"518 1375 OFFCURVE",
"589 1375 CURVE SMOOTH",
"734 1375 OFFCURVE",
"849 1334 OFFCURVE",
"933 1266 CURVE",
"948 1060 LINE",
"1047 1060 LINE",
"1047 1320 LINE",
"940 1412 OFFCURVE",
"785 1477 OFFCURVE",
"589 1477 CURVE SMOOTH",
"404 1477 OFFCURVE",
"260 1410 OFFCURVE",
"183 1299 CURVE SMOOTH",
"144 1243 OFFCURVE",
"125 1179 OFFCURVE",
"125 1106 CURVE SMOOTH",
"125 963 OFFCURVE",
"187 862 OFFCURVE",
"321 789 CURVE SMOOTH",
"388 752 OFFCURVE",
"474 720 OFFCURVE",
"580 693 CURVE SMOOTH",
"777 642 OFFCURVE",
"888 583 OFFCURVE",
"940 503 CURVE SMOOTH",
"965 462 OFFCURVE",
"978 415 OFFCURVE",
"978 362 CURVE SMOOTH",
"978 251 OFFCURVE",
"912 164 OFFCURVE",
"798 117 CURVE SMOOTH",
"741 93 OFFCURVE",
"674 81 OFFCURVE",
"597 81 CURVE SMOOTH",
"468 81 OFFCURVE",
"339 117 OFFCURVE",
"222 190 CURVE",
"207 417 LINE",
"107 417 LINE",
"107 135 LINE",
"262 28 OFFCURVE",
"430 -21 OFFCURVE",
"597 -21 CURVE SMOOTH"
);
}
);
width = 1194;
},
{
layerId = "1A30CC2E-2F0E-43C1-8400-CBCC094AAC97";
paths = (
{
closed = 1;
nodes = (
"813 -21 OFFCURVE",
"969 51 OFFCURVE",
"1053 172 CURVE SMOOTH",
"1095 232 OFFCURVE",
"1116 301 OFFCURVE",
"1116 379 CURVE SMOOTH",
"1116 598 OFFCURVE",
"956 747 OFFCURVE",
"649 823 CURVE SMOOTH",
"485 864 OFFCURVE",
"390 909 OFFCURVE",
"347 972 CURVE SMOOTH",
"325 1003 OFFCURVE",
"314 1040 OFFCURVE",
"314 1082 CURVE SMOOTH",
"314 1178 OFFCURVE",
"365 1250 OFFCURVE",
"450 1290 CURVE SMOOTH",
"493 1309 OFFCURVE",
"542 1319 OFFCURVE",
"598 1319 CURVE SMOOTH",
"730 1319 OFFCURVE",
"816 1283 OFFCURVE",
"876 1235 CURVE",
"909 1027 LINE",
"1062 1027 LINE",
"1062 1318 LINE",
"961 1406 OFFCURVE",
"802 1477 OFFCURVE",
"598 1477 CURVE SMOOTH",
"406 1477 OFFCURVE",
"258 1403 OFFCURVE",
"178 1283 CURVE SMOOTH",
"137 1223 OFFCURVE",
"117 1155 OFFCURVE",
"117 1079 CURVE SMOOTH",
"117 935 OFFCURVE",
"190 824 OFFCURVE",
"328 746 CURVE SMOOTH",
"397 707 OFFCURVE",
"481 675 OFFCURVE",
"581 652 CURVE SMOOTH",
"750 613 OFFCURVE",
"844 563 OFFCURVE",
"887 495 CURVE SMOOTH",
"908 461 OFFCURVE",
"919 422 OFFCURVE",
"919 377 CURVE SMOOTH",
"919 281 OFFCURVE",
"868 207 OFFCURVE",
"776 167 CURVE SMOOTH",
"729 146 OFFCURVE",
"673 136 OFFCURVE",
"606 136 CURVE SMOOTH",
"489 136 OFFCURVE",
"388 167 OFFCURVE",
"301 220 CURVE",
"268 449 LINE",
"115 449 LINE",
"115 138 LINE",
"264 30 OFFCURVE",
"429 -21 OFFCURVE",
"606 -21 CURVE SMOOTH"
);
}
);
userData = {
assembly = "NPUSHB[ ]	/* 66 values pushed */\01228 1 4 5 3 1 2 1 2 76 0 4 5 1 5 4 1 128 0 1 2 5 1 2 126 0 5 5 3 97 0 3 3 37 77 0 2 2 0 97 6 1 0 0 38 0 78 1 0 35 33 30 29 26 24 10 8 5 4 0 48 1 48 7 8 22 \012CALL[ ]	/* CallFunction */";
};
width = 1206;
},
{
layerId = "E08E4BD2-F9DD-4A22-B137-462FE0EF4830";
paths = (
{
closed = 1;
nodes = (
"866 -21 OFFCURVE",
"1032 47 OFFCURVE",
"1121 168 CURVE SMOOTH",
"1166 228 OFFCURVE",
"1188 299 OFFCURVE",
"1188 382 CURVE SMOOTH",
"1188 621 OFFCURVE",
"1019 759 OFFCURVE",
"698 848 CURVE",
"549 897 OFFCURVE",
"468 938 OFFCURVE",
"432 987 CURVE SMOOTH",
"414 1011 OFFCURVE",
"405 1039 OFFCURVE",
"405 1072 CURVE SMOOTH",
"405 1148 OFFCURVE",
"449 1202 OFFCURVE",
"521 1230 CURVE SMOOTH",
"556 1244 OFFCURVE",
"597 1251 OFFCURVE",
"644 1251 CURVE SMOOTH",
"753 1251 OFFCURVE",
"842 1223 OFFCURVE",
"893 1191 CURVE",
"931 991 LINE",
"1150 991 LINE",
"1150 1319 LINE",
"1025 1419 OFFCURVE",
"853 1479 OFFCURVE",
"629 1476 CURVE SMOOTH",
"426 1473 OFFCURVE",
"267 1400 OFFCURVE",
"180 1280 CURVE SMOOTH",
"136 1219 OFFCURVE",
"114 1150 OFFCURVE",
"114 1071 CURVE SMOOTH",
"114 912 OFFCURVE",
"189 803 OFFCURVE",
"341 723 CURVE SMOOTH",
"416 682 OFFCURVE",
"512 645 OFFCURVE",
"627 611 CURVE SMOOTH",
"760 570 OFFCURVE",
"836 527 OFFCURVE",
"870 473 CURVE SMOOTH",
"887 446 OFFCURVE",
"895 415 OFFCURVE",
"895 380 CURVE SMOOTH",
"895 307 OFFCURVE",
"856 251 OFFCURVE",
"784 222 CURVE SMOOTH",
"747 207 OFFCURVE",
"703 200 OFFCURVE",
"650 200 CURVE SMOOTH",
"526 200 OFFCURVE",
"414 234 OFFCURVE",
"354 285 CURVE",
"323 492 LINE",
"97 492 LINE",
"97 140 LINE",
"268 21 OFFCURVE",
"435 -21 OFFCURVE",
"650 -21 CURVE SMOOTH"
);
}
);
width = 1247;
},
{
layerId = "3540F6DD-AC2C-489F-A09A-29A5B6885314";
paths = (
{
closed = 1;
nodes = (
"898 -21 OFFCURVE",
"1070 44 OFFCURVE",
"1163 165 CURVE SMOOTH",
"1210 225 OFFCURVE",
"1233 298 OFFCURVE",
"1233 384 CURVE SMOOTH",
"1233 635 OFFCURVE",
"1059 767 OFFCURVE",
"728 864 CURVE",
"616 907 OFFCURVE",
"518 951 OFFCURVE",
"485 996 CURVE SMOOTH",
"470 1016 OFFCURVE",
"462 1039 OFFCURVE",
"462 1065 CURVE SMOOTH",
"462 1129 OFFCURVE",
"501 1172 OFFCURVE",
"565 1193 CURVE SMOOTH",
"596 1204 OFFCURVE",
"632 1209 OFFCURVE",
"673 1209 CURVE SMOOTH",
"768 1209 OFFCURVE",
"859 1187 OFFCURVE",
"904 1164 CURVE",
"945 969 LINE",
"1205 969 LINE",
"1205 1320 LINE",
"1065 1427 OFFCURVE",
"885 1480 OFFCURVE",
"648 1475 CURVE SMOOTH",
"440 1471 OFFCURVE",
"273 1398 OFFCURVE",
"181 1278 CURVE SMOOTH",
"135 1217 OFFCURVE",
"112 1147 OFFCURVE",
"112 1066 CURVE SMOOTH",
"112 898 OFFCURVE",
"189 791 OFFCURVE",
"349 708 CURVE SMOOTH",
"429 667 OFFCURVE",
"531 626 OFFCURVE",
"656 586 CURVE",
"767 543 OFFCURVE",
"830 504 OFFCURVE",
"859 459 CURVE SMOOTH",
"873 436 OFFCURVE",
"880 411 OFFCURVE",
"880 382 CURVE SMOOTH",
"880 322 OFFCURVE",
"849 279 OFFCURVE",
"789 257 CURVE SMOOTH",
"759 246 OFFCURVE",
"722 240 OFFCURVE",
"677 240 CURVE SMOOTH",
"549 240 OFFCURVE",
"430 277 OFFCURVE",
"387 325 CURVE",
"357 519 LINE",
"86 519 LINE",
"86 141 LINE",
"269 16 OFFCURVE",
"440 -21 OFFCURVE",
"677 -21 CURVE SMOOTH"
);
}
);
width = 1272;
}
);
note = S;
unicode = 0053;
},
{
glyphname = T;
lastChange = "2021-05-27 10:38:10 +0000";
layers = (
{
layerId = "E37246A9-A376-4020-9DA5-E0C9FF7935B5";
paths = (
{
closed = 1;
nodes = (
"664 54 LINE",
"664 1402 LINE",
"1140 1402 LINE",
"1140 1163 LINE",
"1194 1163 LINE",
"1194 1456 LINE",
"80 1456 LINE",
"80 1163 LINE",
"134 1163 LINE",
"134 1402 LINE",
"610 1402 LINE",
"610 54 LINE",
"447 54 LINE",
"447 0 LINE",
"827 0 LINE",
"827 54 LINE"
);
}
);
width = 1277;
},
{
layerId = "142AFF07-46EF-45A1-8A7E-F20FA79F7038";
paths = (
{
closed = 1;
nodes = (
"727 100 LINE",
"727 1358 LINE",
"1135 1358 LINE",
"1149 1136 LINE",
"1246 1136 LINE",
"1246 1456 LINE",
"87 1456 LINE",
"87 1136 LINE",
"185 1136 LINE",
"198 1358 LINE",
"607 1358 LINE",
"607 100 LINE",
"444 87 LINE",
"444 0 LINE",
"890 0 LINE",
"890 87 LINE"
);
}
);
width = 1337;
},
{
layerId = "1A30CC2E-2F0E-43C1-8400-CBCC094AAC97";
paths = (
{
closed = 1;
nodes = (
"1130 1307 LINE",
"1160 1105 LINE",
"1306 1105 LINE",
"1306 1456 LINE",
"96 1456 LINE",
"96 1105 LINE",
"244 1105 LINE",
"273 1307 LINE",
"603 1307 LINE",
"603 154 LINE",
"440 126 LINE",
"440 0 LINE",
"963 0 LINE",
"963 126 LINE",
"800 154 LINE",
"800 1307 LINE"
);
}
);
userData = {
assembly = "NPUSHB[ ]	/* 9 values pushed */\01215 4 3 0 4 0 2 1 76 \012MPPEM[ ]	/* MeasurePixelPerEm */\012PUSHB[ ]	/* 1 value pushed */\01212 \012LT[ ]	/* LessThan */\012IF[ ]	/* If */\012NPUSHB[ ]	/* 25 values pushed */\0124 1 2 1 0 1 2 114 5 1 1 1 3 95 0 3 3 31 77 0 0 0 32 0 78 \012ELSE[ ]	/* Else */\012NPUSHB[ ]	/* 26 values pushed */\0124 1 2 1 0 1 2 0 128 5 1 1 1 3 95 0 3 3 31 77 0 0 0 32 0 78 \012EIF[ ]	/* EndIf */\012NPUSHB[ ]	/* 9 values pushed */\01217 17 17 17 19 17 6 8 28 \012CALL[ ]	/* CallFunction */";
};
width = 1406;
},
{
layerId = "E08E4BD2-F9DD-4A22-B137-462FE0EF4830";
paths = (
{
closed = 1;
nodes = (
"839 205 LINE",
"839 1231 LINE",
"1106 1231 LINE",
"1122 1057 LINE",
"1344 1057 LINE",
"1344 1456 LINE",
"45 1456 LINE",
"45 1057 LINE",
"266 1057 LINE",
"282 1231 LINE",
"547 1231 LINE",
"547 205 LINE",
"391 175 LINE",
"391 0 LINE",
"996 0 LINE",
"996 175 LINE"
);
}
);
width = 1389;
},
{
layerId = "3540F6DD-AC2C-489F-A09A-29A5B6885314";
paths = (
{
closed = 1;
nodes = (
"864 237 LINE",
"864 1184 LINE",
"1091 1184 LINE",
"1099 1027 LINE",
"1367 1027 LINE",
"1367 1456 LINE",
"14 1456 LINE",
"14 1027 LINE",
"279 1027 LINE",
"288 1184 LINE",
"513 1184 LINE",
"513 237 LINE",
"361 205 LINE",
"361 0 LINE",
"1016 0 LINE",
"1016 205 LINE"
);
}
);
width = 1379;
}
);
note = T;
unicode = 0054;
},
{
glyphname = U;
lastChange = "2021-05-27 10:38:10 +0000";
layers = (
{
layerId = "E37246A9-A376-4020-9DA5-E0C9FF7935B5";
paths = (
{
closed = 1;
nodes = (
"917 -21 OFFCURVE",
"1071 56 OFFCURVE",
"1155 201 CURVE SMOOTH",
"1197 274 OFFCURVE",
"1218 363 OFFCURVE",
"1218 469 CURVE SMOOTH",
"1218 1402 LINE",
"1381 1402 LINE",
"1381 1456 LINE",
"1001 1456 LINE",
"1001 1402 LINE",
"1164 1402 LINE",
"1164 469 LINE SMOOTH",
"1164 286 OFFCURVE",
"1084 154 OFFCURVE",
"951 85 CURVE SMOOTH",
"884 50 OFFCURVE",
"808 33 OFFCURVE",
"721 33 CURVE SMOOTH",
"546 33 OFFCURVE",
"409 105 OFFCURVE",
"334 235 CURVE SMOOTH",
"296 300 OFFCURVE",
"277 378 OFFCURVE",
"277 469 CURVE SMOOTH",
"277 1402 LINE",
"440 1402 LINE",
"440 1456 LINE",
"60 1456 LINE",
"60 1402 LINE",
"223 1402 LINE",
"223 469 LINE SMOOTH",
"223 258 OFFCURVE",
"311 111 OFFCURVE",
"460 36 CURVE SMOOTH",
"535 -2 OFFCURVE",
"622 -21 OFFCURVE",
"721 -21 CURVE SMOOTH"
);
}
);
width = 1441;
},
{
layerId = "142AFF07-46EF-45A1-8A7E-F20FA79F7038";
paths = (
{
closed = 1;
nodes = (
"941 -21 OFFCURVE",
"1101 56 OFFCURVE",
"1187 201 CURVE SMOOTH",
"1230 274 OFFCURVE",
"1251 363 OFFCURVE",
"1251 469 CURVE SMOOTH",
"1251 1355 LINE",
"1414 1368 LINE",
"1414 1456 LINE",
"968 1456 LINE",
"968 1368 LINE",
"1131 1355 LINE",
"1131 469 LINE SMOOTH",
"1131 302 OFFCURVE",
"1061 186 OFFCURVE",
"942 126 CURVE SMOOTH",
"883 96 OFFCURVE",
"815 81 OFFCURVE",
"738 81 CURVE SMOOTH",
"585 81 OFFCURVE",
"464 143 OFFCURVE",
"398 259 CURVE SMOOTH",
"365 316 OFFCURVE",
"348 386 OFFCURVE",
"348 469 CURVE SMOOTH",
"348 1355 LINE",
"511 1368 LINE",
"511 1456 LINE",
"65 1456 LINE",
"65 1368 LINE",
"228 1355 LINE",
"228 469 LINE SMOOTH",
"228 261 OFFCURVE",
"320 113 OFFCURVE",
"473 37 CURVE SMOOTH",
"549 -2 OFFCURVE",
"637 -21 OFFCURVE",
"737 -21 CURVE SMOOTH"
);
}
);
width = 1478;
},
{
layerId = "1A30CC2E-2F0E-43C1-8400-CBCC094AAC97";
paths = (
{
closed = 1;
nodes = (
"970 -21 OFFCURVE",
"1134 56 OFFCURVE",
"1223 202 CURVE SMOOTH",
"1267 275 OFFCURVE",
"1289 364 OFFCURVE",
"1289 469 CURVE SMOOTH",
"1289 1301 LINE",
"1452 1329 LINE",
"1452 1456 LINE",
"929 1456 LINE",
"929 1329 LINE",
"1092 1301 LINE",
"1092 469 LINE SMOOTH",
"1092 322 OFFCURVE",
"1032 223 OFFCURVE",
"932 174 CURVE SMOOTH",
"881 149 OFFCURVE",
"823 137 OFFCURVE",
"758 137 CURVE SMOOTH",
"629 137 OFFCURVE",
"527 187 OFFCURVE",
"472 286 CURVE SMOOTH",
"444 335 OFFCURVE",
"430 396 OFFCURVE",
"430 469 CURVE SMOOTH",
"430 1301 LINE",
"593 1329 LINE",
"593 1456 LINE",
"70 1456 LINE",
"70 1329 LINE",
"233 1301 LINE",
"233 469 LINE SMOOTH",
"233 265 OFFCURVE",
"330 117 OFFCURVE",
"487 38 CURVE SMOOTH",
"566 -1 OFFCURVE",
"655 -21 OFFCURVE",
"755 -21 CURVE SMOOTH"
);
}
);
userData = {
assembly = "NPUSHB[ ]	/* 46 values pushed */\01225 24 21 20 10 9 6 5 8 2 1 1 76 3 1 1 1 31 77 0 2 2 0 97 4 1 0 0 38 0 78 1 0 23 22 16 14 8 7 0 29 1 29 5 8 22 \012CALL[ ]	/* CallFunction */";
};
width = 1522;
},
{
layerId = "E08E4BD2-F9DD-4A22-B137-462FE0EF4830";
paths = (
{
closed = 1;
nodes = (
"1009 -21 OFFCURVE",
"1190 60 OFFCURVE",
"1288 213 CURVE SMOOTH",
"1337 289 OFFCURVE",
"1361 381 OFFCURVE",
"1361 490 CURVE SMOOTH",
"1361 1250 LINE",
"1517 1280 LINE",
"1517 1456 LINE",
"914 1456 LINE",
"914 1280 LINE",
"1069 1250 LINE",
"1069 490 LINE SMOOTH",
"1069 362 OFFCURVE",
"1021 277 OFFCURVE",
"934 235 CURVE SMOOTH",
"890 214 OFFCURVE",
"837 203 OFFCURVE",
"776 203 CURVE SMOOTH",
"656 203 OFFCURVE",
"568 245 OFFCURVE",
"521 330 CURVE SMOOTH",
"498 373 OFFCURVE",
"486 426 OFFCURVE",
"486 490 CURVE SMOOTH",
"486 1250 LINE",
"642 1280 LINE",
"642 1456 LINE",
"39 1456 LINE",
"39 1280 LINE",
"194 1250 LINE",
"194 490 LINE SMOOTH",
"194 273 OFFCURVE",
"296 119 OFFCURVE",
"472 39 CURVE SMOOTH",
"559 -1 OFFCURVE",
"661 -21 OFFCURVE",
"776 -21 CURVE SMOOTH"
);
}
);
width = 1555;
},
{
layerId = "3540F6DD-AC2C-489F-A09A-29A5B6885314";
paths = (
{
closed = 1;
nodes = (
"1034 -21 OFFCURVE",
"1224 63 OFFCURVE",
"1328 220 CURVE SMOOTH",
"1380 298 OFFCURVE",
"1406 392 OFFCURVE",
"1406 503 CURVE SMOOTH",
"1406 1218 LINE",
"1557 1250 LINE",
"1557 1456 LINE",
"905 1456 LINE",
"905 1250 LINE",
"1055 1218 LINE",
"1055 503 LINE SMOOTH",
"1055 386 OFFCURVE",
"1014 309 OFFCURVE",
"935 272 CURVE SMOOTH",
"895 253 OFFCURVE",
"846 244 OFFCURVE",
"787 244 CURVE SMOOTH",
"674 244 OFFCURVE",
"593 281 OFFCURVE",
"552 358 CURVE SMOOTH",
"531 396 OFFCURVE",
"521 444 OFFCURVE",
"521 503 CURVE SMOOTH",
"521 1218 LINE",
"672 1250 LINE",
"672 1456 LINE",
"20 1456 LINE",
"20 1250 LINE",
"170 1218 LINE",
"170 503 LINE SMOOTH",
"170 278 OFFCURVE",
"276 120 OFFCURVE",
"462 40 CURVE SMOOTH",
"555 -1 OFFCURVE",
"664 -21 OFFCURVE",
"789 -21 CURVE SMOOTH"
);
}
);
width = 1575;
}
);
note = U;
unicode = 0055;
},
{
glyphname = V;
lastChange = "2021-05-27 10:38:10 +0000";
layers = (
{
layerId = "E37246A9-A376-4020-9DA5-E0C9FF7935B5";
paths = (
{
closed = 1;
nodes = (
"1383 1402 LINE",
"1383 1456 LINE",
"1064 1456 LINE",
"1064 1402 LINE",
"1217 1402 LINE",
"748 142 LINE",
"722 63 LINE",
"716 63 LINE",
"690 142 LINE",
"221 1402 LINE",
"374 1402 LINE",
"374 1456 LINE",
"55 1456 LINE",
"55 1402 LINE",
"162 1402 LINE",
"686 0 LINE",
"752 0 LINE",
"1276 1402 LINE"
);
}
);
width = 1434;
},
{
layerId = "142AFF07-46EF-45A1-8A7E-F20FA79F7038";
paths = (
{
closed = 1;
nodes = (
"1411 1368 LINE",
"1411 1456 LINE",
"1027 1456 LINE",
"1027 1368 LINE",
"1178 1359 LINE",
"769 253 LINE",
"739 157 LINE",
"733 157 LINE",
"703 253 LINE",
"300 1359 LINE",
"444 1368 LINE",
"444 1456 LINE",
"60 1456 LINE",
"60 1368 LINE",
"171 1361 LINE",
"678 0 LINE",
"792 0 LINE",
"1299 1361 LINE"
);
}
);
width = 1468;
},
{
layerId = "1A30CC2E-2F0E-43C1-8400-CBCC094AAC97";
paths = (
{
closed = 1;
nodes = (
"984 1456 LINE",
"984 1329 LINE",
"1132 1309 LINE",
"794 382 LINE",
"758 267 LINE",
"752 267 LINE",
"718 382 LINE",
"392 1308 LINE",
"525 1329 LINE",
"525 1456 LINE",
"65 1456 LINE",
"65 1329 LINE",
"181 1313 LINE",
"669 0 LINE",
"838 0 LINE",
"1326 1313 LINE",
"1443 1329 LINE",
"1443 1456 LINE"
);
}
);
userData = {
assembly = "NPUSHB[ ]	/* 30 values pushed */\01217 14 13 10 8 7 4 7 0 1 1 76 2 1 1 1 31 77 0 0 0 32 0 78 25 19 17 3 8 25 \012CALL[ ]	/* CallFunction */";
};
width = 1508;
},
{
layerId = "E08E4BD2-F9DD-4A22-B137-462FE0EF4830";
paths = (
{
closed = 1;
nodes = (
"1502 1280 LINE",
"1502 1456 LINE",
"950 1456 LINE",
"950 1280 LINE",
"1103 1260 LINE",
"817 399 LINE",
"796 321 LINE",
"790 321 LINE",
"768 401 LINE",
"482 1260 LINE",
"613 1280 LINE",
"613 1456 LINE",
"34 1456 LINE",
"34 1280 LINE",
"164 1264 LINE",
"632 0 LINE",
"931 0 LINE",
"1370 1264 LINE"
);
}
);
width = 1535;
},
{
layerId = "3540F6DD-AC2C-489F-A09A-29A5B6885314";
paths = (
{
closed = 1;
nodes = (
"1539 1250 LINE",
"1539 1456 LINE",
"929 1456 LINE",
"929 1250 LINE",
"1085 1230 LINE",
"832 409 LINE",
"819 355 LINE",
"813 355 LINE",
"799 412 LINE",
"538 1230 LINE",
"668 1250 LINE",
"668 1456 LINE",
"15 1456 LINE",
"15 1250 LINE",
"153 1234 LINE",
"609 0 LINE",
"989 0 LINE",
"1397 1234 LINE"
);
}
);
width = 1552;
}
);
note = V;
unicode = 0056;
},
{
glyphname = W;
lastChange = "2021-05-27 10:38:10 +0000";
layers = (
{
layerId = "E37246A9-A376-4020-9DA5-E0C9FF7935B5";
paths = (
{
closed = 1;
nodes = (
"1008 1359 LINE",
"1014 1359 LINE",
"1062 1214 LINE",
"1443 0 LINE",
"1504 0 LINE",
"1862 1402 LINE",
"1963 1402 LINE",
"1963 1456 LINE",
"1644 1456 LINE",
"1644 1402 LINE",
"1803 1402 LINE",
"1537 330 LINE",
"1472 101 LINE",
"1466 101 LINE",
"1404 330 LINE",
"1042 1456 LINE",
"982 1456 LINE",
"618 330 LINE",
"555 101 LINE",
"549 101 LINE",
"486 330 LINE",
"217 1402 LINE",
"377 1402 LINE",
"377 1456 LINE",
"57 1456 LINE",
"57 1402 LINE",
"158 1402 LINE",
"517 0 LINE",
"578 0 LINE"
);
}
);
width = 2000;
},
{
layerId = "142AFF07-46EF-45A1-8A7E-F20FA79F7038";
paths = (
{
closed = 1;
nodes = (
"1035 1265 LINE",
"1041 1265 LINE",
"1086 1119 LINE",
"1437 0 LINE",
"1556 0 LINE",
"1899 1361 LINE",
"2006 1368 LINE",
"2006 1456 LINE",
"1620 1456 LINE",
"1620 1368 LINE",
"1781 1358 LINE",
"1551 410 LINE",
"1492 196 LINE",
"1486 196 LINE",
"1427 410 LINE",
"1095 1456 LINE",
"983 1456 LINE",
"652 410 LINE",
"591 201 LINE",
"585 201 LINE",
"531 411 LINE",
"298 1358 LINE",
"454 1368 LINE",
"454 1456 LINE",
"64 1456 LINE",
"64 1368 LINE",
"175 1361 LINE",
"525 0 LINE",
"639 0 LINE",
"992 1119 LINE"
);
}
);
width = 2060;
},
{
layerId = "1A30CC2E-2F0E-43C1-8400-CBCC094AAC97";
paths = (
{
closed = 1;
nodes = (
"1113 1008 LINE",
"1429 0 LINE",
"1616 0 LINE",
"1942 1314 LINE",
"2057 1329 LINE",
"2057 1456 LINE",
"1593 1456 LINE",
"1593 1329 LINE",
"1756 1306 LINE",
"1568 504 LINE",
"1516 306 LINE",
"1510 306 LINE",
"1453 504 LINE",
"1157 1456 LINE",
"984 1456 LINE",
"691 504 LINE",
"633 317 LINE",
"627 318 LINE",
"583 505 LINE",
"393 1306 LINE",
"544 1329 LINE",
"544 1456 LINE",
"72 1456 LINE",
"72 1329 LINE",
"195 1314 LINE",
"535 0 LINE",
"711 0 LINE",
"1028 1008 LINE",
"1067 1155 LINE",
"1073 1155 LINE"
);
}
);
userData = {
assembly = "NPUSHB[ ]	/* 36 values pushed */\01228 23 20 19 16 10 8 7 4 9 0 1 1 76 3 2 2 1 1 31 77 4 1 0 0 32 0 78 19 23 23 19 17 5 8 27 \012CALL[ ]	/* CallFunction */";
};
width = 2129;
},
{
layerId = "E08E4BD2-F9DD-4A22-B137-462FE0EF4830";
paths = (
{
closed = 1;
nodes = (
"1105 971 LINE",
"1111 971 LINE",
"1146 851 LINE",
"1422 0 LINE",
"1686 0 LINE",
"2028 1265 LINE",
"2167 1280 LINE",
"2167 1456 LINE",
"1592 1456 LINE",
"1592 1280 LINE",
"1758 1257 LINE",
"1581 524 LINE",
"1551 409 LINE",
"1545 409 LINE",
"1510 524 LINE",
"1211 1456 LINE",
"996 1456 LINE",
"708 549 LINE",
"671 419 LINE",
"665 419 LINE",
"634 549 LINE",
"463 1257 LINE",
"620 1280 LINE",
"620 1456 LINE",
"34 1456 LINE",
"34 1280 LINE",
"183 1265 LINE",
"521 0 LINE",
"787 0 LINE",
"1066 847 LINE"
);
}
);
width = 2202;
},
{
layerId = "3540F6DD-AC2C-489F-A09A-29A5B6885314";
paths = (
{
closed = 1;
nodes = (
"1129 857 LINE",
"1135 857 LINE",
"1166 753 LINE",
"1417 0 LINE",
"1730 0 LINE",
"2081 1235 LINE",
"2236 1250 LINE",
"2236 1456 LINE",
"1592 1456 LINE",
"1592 1250 LINE",
"1759 1227 LINE",
"1589 536 LINE",
"1572 473 LINE",
"1566 473 LINE",
"1545 536 LINE",
"1245 1456 LINE",
"1003 1456 LINE",
"718 577 LINE",
"694 482 LINE",
"688 482 LINE",
"506 1227 LINE",
"668 1250 LINE",
"668 1456 LINE",
"11 1456 LINE",
"11 1250 LINE",
"176 1235 LINE",
"512 0 LINE",
"835 0 LINE",
"1090 747 LINE"
);
}
);
width = 2247;
}
);
note = W;
unicode = 0057;
},
{
glyphname = X;
lastChange = "2021-05-27 10:38:10 +0000";
layers = (
{
layerId = "E37246A9-A376-4020-9DA5-E0C9FF7935B5";
paths = (
{
closed = 1;
nodes = (
"238 54 LINE",
"691 701 LINE",
"1145 54 LINE",
"980 54 LINE",
"980 0 LINE",
"1327 0 LINE",
"1327 54 LINE",
"1212 54 LINE",
"726 743 LINE",
"1191 1402 LINE",
"1306 1402 LINE",
"1306 1456 LINE",
"959 1456 LINE",
"959 1402 LINE",
"1124 1402 LINE",
"691 785 LINE",
"259 1402 LINE",
"425 1402 LINE",
"425 1456 LINE",
"77 1456 LINE",
"77 1402 LINE",
"192 1402 LINE",
"658 743 LINE",
"172 54 LINE",
"57 54 LINE",
"57 0 LINE",
"403 0 LINE",
"403 54 LINE"
);
}
);
width = 1384;
},
{
layerId = "142AFF07-46EF-45A1-8A7E-F20FA79F7038";
paths = (
{
closed = 1;
nodes = (
"323 93 LINE",
"726 660 LINE",
"1130 93 LINE",
"976 87 LINE",
"976 0 LINE",
"1383 0 LINE",
"1383 87 LINE",
"1262 97 LINE",
"798 741 LINE",
"1231 1358 LINE",
"1354 1368 LINE",
"1354 1456 LINE",
"948 1456 LINE",
"948 1368 LINE",
"1101 1362 LINE",
"727 823 LINE",
"346 1362 LINE",
"498 1368 LINE",
"498 1456 LINE",
"93 1456 LINE",
"93 1368 LINE",
"214 1358 LINE",
"658 741 LINE",
"188 97 LINE",
"68 87 LINE",
"68 0 LINE",
"474 0 LINE",
"474 87 LINE"
);
}
);
width = 1451;
},
{
layerId = "1A30CC2E-2F0E-43C1-8400-CBCC094AAC97";
paths = (
{
closed = 1;
nodes = (
"1112 139 LINE",
"971 126 LINE",
"971 0 LINE",
"1449 0 LINE",
"1449 126 LINE",
"1320 148 LINE",
"882 739 LINE",
"1277 1307 LINE",
"1410 1329 LINE",
"1410 1456 LINE",
"935 1456 LINE",
"935 1329 LINE",
"1075 1316 LINE",
"769 867 LINE",
"447 1316 LINE",
"584 1329 LINE",
"584 1456 LINE",
"112 1456 LINE",
"112 1329 LINE",
"239 1307 LINE",
"657 739 LINE",
"206 148 LINE",
"80 126 LINE",
"80 0 LINE",
"556 0 LINE",
"556 126 LINE",
"423 139 LINE",
"767 612 LINE"
);
}
);
userData = {
assembly = "NPUSHB[ ]	/* 41 values pushed */\01227 26 25 24 21 19 17 14 13 12 11 10 7 5 3 0 16 0 1 1 76 2 1 1 1 31 77 3 1 0 0 32 0 78 22 22 22 17 4 8 26 \012CALL[ ]	/* CallFunction */";
};
width = 1529;
},
{
layerId = "E08E4BD2-F9DD-4A22-B137-462FE0EF4830";
paths = (
{
closed = 1;
nodes = (
"475 187 LINE",
"751 557 LINE",
"1021 187 LINE",
"896 175 LINE",
"896 0 LINE",
"1479 0 LINE",
"1479 175 LINE",
"1340 200 LINE",
"922 747 LINE",
"1295 1255 LINE",
"1424 1280 LINE",
"1424 1456 LINE",
"863 1456 LINE",
"863 1280 LINE",
"999 1267 LINE",
"749 917 LINE",
"499 1267 LINE",
"638 1280 LINE",
"638 1456 LINE",
"69 1456 LINE",
"69 1280 LINE",
"187 1255 LINE",
"575 721 LINE",
"163 199 LINE",
"36 175 LINE",
"36 0 LINE",
"597 0 LINE",
"597 175 LINE"
);
}
);
width = 1514;
},
{
layerId = "3540F6DD-AC2C-489F-A09A-29A5B6885314";
paths = (
{
closed = 1;
nodes = (
"508 217 LINE",
"741 523 LINE",
"965 217 LINE",
"849 205 LINE",
"849 0 LINE",
"1497 0 LINE",
"1497 205 LINE",
"1353 232 LINE",
"947 752 LINE",
"1306 1223 LINE",
"1432 1250 LINE",
"1432 1456 LINE",
"818 1456 LINE",
"818 1250 LINE",
"951 1237 LINE",
"737 948 LINE",
"531 1237 LINE",
"671 1250 LINE",
"671 1456 LINE",
"42 1456 LINE",
"42 1250 LINE",
"154 1223 LINE",
"524 710 LINE",
"137 231 LINE",
"8 205 LINE",
"8 0 LINE",
"623 0 LINE",
"623 205 LINE"
);
}
);
width = 1505;
}
);
note = X;
unicode = 0058;
},
{
glyphname = Y;
lastChange = "2021-05-27 10:38:10 +0000";
layers = (
{
layerId = "E37246A9-A376-4020-9DA5-E0C9FF7935B5";
paths = (
{
closed = 1;
nodes = (
"744 54 LINE",
"744 553 LINE",
"1258 1402 LINE",
"1378 1402 LINE",
"1378 1456 LINE",
"1052 1456 LINE",
"1052 1402 LINE",
"1193 1402 LINE",
"742 647 LINE",
"716 599 LINE",
"715 597 LINE",
"689 647 LINE",
"240 1402 LINE",
"381 1402 LINE",
"381 1456 LINE",
"55 1456 LINE",
"55 1402 LINE",
"174 1402 LINE",
"689 553 LINE",
"689 54 LINE",
"526 54 LINE",
"526 0 LINE",
"907 0 LINE",
"907 54 LINE"
);
}
);
width = 1429;
},
{
layerId = "142AFF07-46EF-45A1-8A7E-F20FA79F7038";
paths = (
{
closed = 1;
nodes = (
"783 100 LINE",
"783 549 LINE",
"1263 1360 LINE",
"1386 1368 LINE",
"1386 1456 LINE",
"984 1456 LINE",
"984 1368 LINE",
"1139 1360 LINE",
"747 689 LINE",
"723 646 LINE",
"722 644 LINE",
"699 689 LINE",
"314 1360 LINE",
"467 1368 LINE",
"467 1456 LINE",
"60 1456 LINE",
"60 1368 LINE",
"179 1360 LINE",
"663 542 LINE",
"663 100 LINE",
"500 87 LINE",
"500 0 LINE",
"946 0 LINE",
"946 87 LINE"
);
}
);
width = 1444;
},
{
layerId = "1A30CC2E-2F0E-43C1-8400-CBCC094AAC97";
paths = (
{
closed = 1;
nodes = (
"1269 1310 LINE",
"1396 1329 LINE",
"1396 1456 LINE",
"904 1456 LINE",
"904 1329 LINE",
"1076 1310 LINE",
"752 738 LINE",
"732 701 LINE",
"731 699 LINE",
"401 1310 LINE",
"567 1329 LINE",
"567 1456 LINE",
"65 1456 LINE",
"65 1329 LINE",
"185 1310 LINE",
"633 530 LINE",
"633 154 LINE",
"470 126 LINE",
"470 0 LINE",
"992 0 LINE",
"992 126 LINE",
"829 154 LINE",
"829 545 LINE"
);
}
);
userData = {
assembly = "NPUSHB[ ]	/* 36 values pushed */\01222 21 19 16 15 12 11 10 7 5 4 3 0 13 0 1 1 76 2 1 1 1 31 77 0 0 0 32 0 78 24 22 17 3 8 25 \012CALL[ ]	/* CallFunction */";
};
width = 1461;
},
{
layerId = "E08E4BD2-F9DD-4A22-B137-462FE0EF4830";
paths = (
{
closed = 1;
nodes = (
"899 205 LINE",
"899 522 LINE",
"1325 1260 LINE",
"1469 1280 LINE",
"1469 1456 LINE",
"899 1456 LINE",
"899 1280 LINE",
"1059 1263 LINE",
"790 796 LINE",
"768 752 LINE",
"762 751 LINE",
"740 798 LINE",
"498 1263 LINE",
"617 1280 LINE",
"617 1456 LINE",
"36 1456 LINE",
"36 1280 LINE",
"176 1260 LINE",
"608 499 LINE",
"608 205 LINE",
"452 175 LINE",
"452 0 LINE",
"1055 0 LINE",
"1055 175 LINE"
);
}
);
width = 1508;
},
{
layerId = "3540F6DD-AC2C-489F-A09A-29A5B6885314";
paths = (
{
closed = 1;
nodes = (
"942 237 LINE",
"942 508 LINE",
"1360 1229 LINE",
"1514 1250 LINE",
"1514 1456 LINE",
"896 1456 LINE",
"896 1250 LINE",
"1048 1234 LINE",
"814 832 LINE",
"790 784 LINE",
"781 784 LINE",
"758 835 LINE",
"558 1234 LINE",
"648 1250 LINE",
"648 1456 LINE",
"18 1456 LINE",
"18 1250 LINE",
"170 1229 LINE",
"592 480 LINE",
"592 237 LINE",
"441 205 LINE",
"441 0 LINE",
"1094 0 LINE",
"1094 205 LINE"
);
}
);
width = 1537;
}
);
note = Y;
unicode = 0059;
},
{
glyphname = Z;
lastChange = "2021-05-27 10:38:10 +0000";
layers = (
{
layerId = "E37246A9-A376-4020-9DA5-E0C9FF7935B5";
paths = (
{
closed = 1;
nodes = (
"1074 293 LINE",
"1074 54 LINE",
"166 54 LINE",
"1096 1418 LINE",
"1096 1456 LINE",
"132 1456 LINE",
"132 1163 LINE",
"186 1163 LINE",
"186 1403 LINE",
"1021 1403 LINE",
"92 44 LINE",
"92 0 LINE",
"1128 0 LINE",
"1128 293 LINE"
);
}
);
width = 1220;
},
{
layerId = "142AFF07-46EF-45A1-8A7E-F20FA79F7038";
paths = (
{
closed = 1;
nodes = (
"1017 324 LINE",
"1008 100 LINE",
"234 100 LINE",
"1086 1369 LINE",
"1086 1456 LINE",
"120 1456 LINE",
"120 1140 LINE",
"222 1140 LINE",
"230 1356 LINE",
"941 1356 LINE",
"91 92 LINE",
"91 0 LINE",
"1118 0 LINE",
"1118 324 LINE"
);
}
);
width = 1209;
},
{
layerId = "1A30CC2E-2F0E-43C1-8400-CBCC094AAC97";
paths = (
{
closed = 1;
nodes = (
"313 153 LINE",
"1074 1311 LINE",
"1074 1456 LINE",
"105 1456 LINE",
"105 1114 LINE",
"263 1114 LINE",
"281 1302 LINE",
"847 1302 LINE",
"90 149 LINE",
"90 0 LINE",
"1107 0 LINE",
"1107 360 LINE",
"950 360 LINE",
"932 153 LINE"
);
}
);
userData = {
assembly = "NPUSHB[ ]	/* 10 values pushed */\01210 1 1 3 3 1 0 4 2 76 \012MPPEM[ ]	/* MeasurePixelPerEm */\012PUSHB[ ]	/* 1 value pushed */\01212 \012LT[ ]	/* LessThan */\012IF[ ]	/* If */\012NPUSHB[ ]	/* 35 values pushed */\0120 2 1 5 1 2 114 6 1 5 4 4 5 112 0 1 1 3 95 0 3 3 31 77 0 4 4 0 96 0 0 0 32 0 78 \012ELSE[ ]	/* Else */\012MPPEM[ ]	/* MeasurePixelPerEm */\012PUSHB[ ]	/* 1 value pushed */\01214 \012LT[ ]	/* LessThan */\012IF[ ]	/* If */\012NPUSHB[ ]	/* 36 values pushed */\0120 2 1 5 1 2 114 6 1 5 4 1 5 4 126 0 1 1 3 95 0 3 3 31 77 0 4 4 0 96 0 0 0 32 0 78 \012ELSE[ ]	/* Else */\012NPUSHB[ ]	/* 37 values pushed */\0120 2 1 5 1 2 5 128 6 1 5 4 1 5 4 126 0 1 1 3 95 0 3 3 31 77 0 4 4 0 96 0 0 0 32 0 78 \012EIF[ ]	/* EndIf */\012EIF[ ]	/* EndIf */\012NPUSHB[ ]	/* 14 values pushed */\0120 0 0 13 0 13 18 17 17 18 17 7 8 27 \012CALL[ ]	/* CallFunction */";
};
width = 1197;
},
{
layerId = "E08E4BD2-F9DD-4A22-B137-462FE0EF4830";
paths = (
{
closed = 1;
nodes = (
"961 410 LINE",
"937 224 LINE",
"430 224 LINE",
"1143 1270 LINE",
"1143 1456 LINE",
"107 1456 LINE",
"95 1045 LINE",
"318 1045 LINE",
"341 1231 LINE",
"784 1231 LINE",
"74 192 LINE",
"74 0 LINE",
"1165 0 LINE",
"1183 410 LINE"
);
}
);
width = 1226;
},
{
layerId = "3540F6DD-AC2C-489F-A09A-29A5B6885314";
paths = (
{
closed = 1;
nodes = (
"968 441 LINE",
"940 268 LINE",
"503 268 LINE",
"1186 1245 LINE",
"1186 1456 LINE",
"108 1456 LINE",
"89 1002 LINE",
"352 1002 LINE",
"378 1187 LINE",
"745 1187 LINE",
"64 219 LINE",
"64 0 LINE",
"1201 0 LINE",
"1230 441 LINE"
);
}
);
width = 1244;
}
);
note = Z;
unicode = 005A;
},
{
glyphname = a;
lastChange = "2021-05-27 10:38:10 +0000";
layers = (
{
layerId = "E37246A9-A376-4020-9DA5-E0C9FF7935B5";
paths = (
{
closed = 1;
nodes = (
"598 -21 OFFCURVE",
"746 68 OFFCURVE",
"827 199 CURVE",
"827 128 OFFCURVE",
"832 95 OFFCURVE",
"849 0 CURVE",
"1046 0 LINE",
"1046 54 LINE",
"896 54 LINE",
"885 107 OFFCURVE",
"881 162 OFFCURVE",
"881 218 CURVE SMOOTH",
"881 740 LINE SMOOTH",
"881 963 OFFCURVE",
"754 1102 OFFCURVE",
"505 1102 CURVE SMOOTH",
"361 1102 OFFCURVE",
"254 1048 OFFCURVE",
"165 965 CURVE",
"165 759 LINE",
"219 759 LINE",
"219 936 LINE",
"287 999 OFFCURVE",
"387 1049 OFFCURVE",
"504 1049 CURVE SMOOTH",
"727 1049 OFFCURVE",
"827 922 OFFCURVE",
"827 742 CURVE SMOOTH",
"827 604 LINE",
"578 604 LINE SMOOTH",
"386 604 OFFCURVE",
"241 545 OFFCURVE",
"163 446 CURVE SMOOTH",
"124 396 OFFCURVE",
"104 339 OFFCURVE",
"104 274 CURVE SMOOTH",
"104 98 OFFCURVE",
"228 -21 OFFCURVE",
"417 -21 CURVE SMOOTH"
);
},
{
closed = 1;
nodes = (
"266 32 OFFCURVE",
"158 135 OFFCURVE",
"158 270 CURVE SMOOTH",
"158 435 OFFCURVE",
"326 549 OFFCURVE",
"581 549 CURVE SMOOTH",
"827 549 LINE",
"827 292 LINE",
"751 129 OFFCURVE",
"581 32 OFFCURVE",
"417 32 CURVE SMOOTH"
);
}
);
width = 1116;
},
{
layerId = "142AFF07-46EF-45A1-8A7E-F20FA79F7038";
paths = (
{
closed = 1;
nodes = (
"577 -21 OFFCURVE",
"712 60 OFFCURVE",
"791 176 CURVE",
"792 116 OFFCURVE",
"797 79 OFFCURVE",
"813 0 CURVE",
"1049 0 LINE",
"1049 87 LINE",
"920 92 LINE",
"913 133 OFFCURVE",
"911 175 OFFCURVE",
"911 218 CURVE SMOOTH",
"911 740 LINE SMOOTH",
"911 967 OFFCURVE",
"769 1102 OFFCURVE",
"514 1102 CURVE SMOOTH",
"363 1102 OFFCURVE",
"246 1053 OFFCURVE",
"153 973 CURVE",
"153 747 LINE",
"252 747 LINE",
"262 912 LINE",
"323 964 OFFCURVE",
"407 1002 OFFCURVE",
"512 1002 CURVE SMOOTH",
"699 1002 OFFCURVE",
"791 898 OFFCURVE",
"791 742 CURVE SMOOTH",
"791 618 LINE",
"567 618 LINE SMOOTH",
"372 618 OFFCURVE",
"227 559 OFFCURVE",
"150 459 CURVE SMOOTH",
"111 408 OFFCURVE",
"92 350 OFFCURVE",
"92 283 CURVE SMOOTH",
"92 96 OFFCURVE",
"215 -21 OFFCURVE",
"420 -21 CURVE SMOOTH"
);
},
{
closed = 1;
nodes = (
"298 84 OFFCURVE",
"212 163 OFFCURVE",
"212 279 CURVE SMOOTH",
"212 418 OFFCURVE",
"345 526 OFFCURVE",
"566 526 CURVE SMOOTH",
"791 526 LINE",
"791 298 LINE",
"728 169 OFFCURVE",
"582 84 OFFCURVE",
"434 84 CURVE SMOOTH"
);
}
);
width = 1123;
},
{
layerId = "1A30CC2E-2F0E-43C1-8400-CBCC094AAC97";
paths = (
{
closed = 1;
nodes = (
"553 -21 OFFCURVE",
"673 52 OFFCURVE",
"749 149 CURVE",
"752 102 OFFCURVE",
"758 59 OFFCURVE",
"770 0 CURVE",
"1053 0 LINE",
"1053 126 LINE",
"948 137 LINE",
"945 164 OFFCURVE",
"945 190 OFFCURVE",
"945 218 CURVE SMOOTH",
"945 739 LINE SMOOTH",
"945 972 OFFCURVE",
"787 1102 OFFCURVE",
"524 1102 CURVE SMOOTH",
"367 1102 OFFCURVE",
"236 1061 OFFCURVE",
"139 982 CURVE",
"139 734 LINE",
"291 734 LINE",
"312 885 LINE",
"367 924 OFFCURVE",
"430 947 OFFCURVE",
"521 947 CURVE SMOOTH",
"665 947 OFFCURVE",
"748 872 OFFCURVE",
"748 741 CURVE SMOOTH",
"748 635 LINE",
"555 635 LINE SMOOTH",
"356 635 OFFCURVE",
"211 576 OFFCURVE",
"136 474 CURVE SMOOTH",
"98 423 OFFCURVE",
"79 363 OFFCURVE",
"79 294 CURVE SMOOTH",
"79 94 OFFCURVE",
"199 -21 OFFCURVE",
"424 -21 CURVE SMOOTH"
);
},
{
closed = 1;
nodes = (
"334 144 OFFCURVE",
"276 195 OFFCURVE",
"276 290 CURVE SMOOTH",
"276 397 OFFCURVE",
"367 500 OFFCURVE",
"548 500 CURVE SMOOTH",
"748 500 LINE",
"748 304 LINE",
"701 216 OFFCURVE",
"584 144 OFFCURVE",
"453 144 CURVE SMOOTH"
);
}
);
userData = {
assembly = "MPPEM[ ]	/* MeasurePixelPerEm */\012PUSHB[ ]	/* 1 value pushed */\01223 \012LT[ ]	/* LessThan */\012IF[ ]	/* If */\012NPUSHB[ ]	/* 15 values pushed */\01218 1 2 4 40 34 2 6 7 29 1 0 6 3 76 \012ELSE[ ]	/* Else */\012NPUSHB[ ]	/* 15 values pushed */\01218 1 2 4 40 34 2 6 7 29 1 5 6 3 76 \012EIF[ ]	/* EndIf */\012MPPEM[ ]	/* MeasurePixelPerEm */\012PUSHB[ ]	/* 1 value pushed */\01223 \012LT[ ]	/* LessThan */\012IF[ ]	/* If */\012NPUSHB[ ]	/* 40 values pushed */\0120 3 2 1 2 3 1 128 0 1 0 7 6 1 7 103 0 2 2 4 97 0 4 4 40 77 9 1 6 6 0 97 5 8 2 0 0 38 0 78 \012ELSE[ ]	/* Else */\012NPUSHB[ ]	/* 44 values pushed */\0120 3 2 1 2 3 1 128 0 1 0 7 6 1 7 103 0 2 2 4 97 0 4 4 40 77 0 5 5 32 77 9 1 6 6 0 97 8 1 0 0 38 0 78 \012EIF[ ]	/* EndIf */\012NPUSHB[ ]	/* 27 values pushed */\01238 37 1 0 43 41 37 47 38 47 31 30 22 20 17 16 13 11 8 6 0 36 1 36 10 8 22 \012CALL[ ]	/* CallFunction */";
};
width = 1132;
},
{
layerId = "E08E4BD2-F9DD-4A22-B137-462FE0EF4830";
paths = (
{
closed = 1;
nodes = (
"552 -21 OFFCURVE",
"644 36 OFFCURVE",
"713 124 CURVE",
"720 81 OFFCURVE",
"736 37 OFFCURVE",
"751 0 CURVE",
"1113 0 LINE",
"1113 175 LINE",
"1000 191 LINE",
"996 218 OFFCURVE",
"996 247 OFFCURVE",
"996 276 CURVE SMOOTH",
"996 722 LINE SMOOTH",
"996 966 OFFCURVE",
"821 1102 OFFCURVE",
"538 1102 CURVE SMOOTH",
"375 1102 OFFCURVE",
"246 1058 OFFCURVE",
"133 994 CURVE",
"137 713 LINE",
"347 713 LINE",
"370 856 LINE",
"410 884 OFFCURVE",
"459 900 OFFCURVE",
"522 900 CURVE SMOOTH",
"643 900 OFFCURVE",
"704 829 OFFCURVE",
"704 725 CURVE SMOOTH",
"704 645 LINE",
"561 645 LINE SMOOTH",
"349 645 OFFCURVE",
"204 583 OFFCURVE",
"130 480 CURVE SMOOTH",
"93 429 OFFCURVE",
"74 369 OFFCURVE",
"74 301 CURVE SMOOTH",
"74 102 OFFCURVE",
"210 -21 OFFCURVE",
"425 -21 CURVE SMOOTH"
);
},
{
closed = 1;
nodes = (
"416 195 OFFCURVE",
"365 239 OFFCURVE",
"365 316 CURVE SMOOTH",
"365 399 OFFCURVE",
"432 466 OFFCURVE",
"560 466 CURVE SMOOTH",
"704 466 LINE",
"704 295 LINE",
"664 235 OFFCURVE",
"584 195 OFFCURVE",
"503 195 CURVE SMOOTH"
);
}
);
width = 1154;
},
{
layerId = "3540F6DD-AC2C-489F-A09A-29A5B6885314";
paths = (
{
closed = 1;
nodes = (
"551 -21 OFFCURVE",
"626 27 OFFCURVE",
"691 108 CURVE",
"699 68 OFFCURVE",
"723 24 OFFCURVE",
"740 0 CURVE",
"1150 0 LINE",
"1150 205 LINE",
"1033 225 LINE",
"1028 252 OFFCURVE",
"1028 281 OFFCURVE",
"1028 312 CURVE SMOOTH",
"1028 711 LINE SMOOTH",
"1028 962 OFFCURVE",
"842 1102 OFFCURVE",
"547 1102 CURVE SMOOTH",
"382 1102 OFFCURVE",
"253 1056 OFFCURVE",
"130 1001 CURVE",
"135 700 LINE",
"382 700 LINE",
"406 838 LINE",
"438 859 OFFCURVE",
"478 871 OFFCURVE",
"523 871 CURVE SMOOTH",
"630 871 OFFCURVE",
"677 802 OFFCURVE",
"677 715 CURVE SMOOTH",
"677 651 LINE",
"564 651 LINE SMOOTH",
"344 651 OFFCURVE",
"198 588 OFFCURVE",
"126 484 CURVE SMOOTH",
"89 432 OFFCURVE",
"71 372 OFFCURVE",
"71 305 CURVE SMOOTH",
"71 108 OFFCURVE",
"217 -21 OFFCURVE",
"426 -21 CURVE SMOOTH"
);
},
{
closed = 1;
nodes = (
"467 227 OFFCURVE",
"420 267 OFFCURVE",
"420 332 CURVE SMOOTH",
"420 400 OFFCURVE",
"473 445 OFFCURVE",
"568 445 CURVE SMOOTH",
"677 445 LINE",
"677 289 LINE",
"640 248 OFFCURVE",
"585 227 OFFCURVE",
"534 227 CURVE SMOOTH"
);
}
);
width = 1167;
}
);
note = a;
unicode = 0061;
},
{
glyphname = b;
lastChange = "2021-05-27 10:38:10 +0000";
layers = (
{
layerId = "E37246A9-A376-4020-9DA5-E0C9FF7935B5";
paths = (
{
closed = 1;
nodes = (
"747 -21 OFFCURVE",
"871 71 OFFCURVE",
"936 233 CURVE SMOOTH",
"968 314 OFFCURVE",
"984 410 OFFCURVE",
"984 521 CURVE SMOOTH",
"984 542 LINE SMOOTH",
"984 770 OFFCURVE",
"917 942 OFFCURVE",
"795 1034 CURVE SMOOTH",
"734 1079 OFFCURVE",
"661 1102 OFFCURVE",
"576 1102 CURVE SMOOTH",
"404 1102 OFFCURVE",
"281 1020 OFFCURVE",
"209 885 CURVE",
"209 1560 LINE",
"-8 1560 LINE",
"-8 1506 LINE",
"155 1506 LINE",
"155 0 LINE",
"200 0 LINE",
"207 173 LINE",
"278 54 OFFCURVE",
"406 -21 OFFCURVE",
"578 -21 CURVE SMOOTH"
);
},
{
closed = 1;
nodes = (
"387 33 OFFCURVE",
"261 127 OFFCURVE",
"209 274 CURVE",
"209 770 LINE",
"258 926 OFFCURVE",
"366 1048 OFFCURVE",
"577 1048 CURVE SMOOTH",
"729 1048 OFFCURVE",
"835 958 OFFCURVE",
"888 806 CURVE SMOOTH",
"915 730 OFFCURVE",
"928 642 OFFCURVE",
"928 542 CURVE SMOOTH",
"928 521 LINE SMOOTH",
"928 222 OFFCURVE",
"807 33 OFFCURVE",
"579 33 CURVE SMOOTH"
);
}
);
width = 1088;
},
{
layerId = "142AFF07-46EF-45A1-8A7E-F20FA79F7038";
paths = (
{
closed = 1;
nodes = (
"783 -21 OFFCURVE",
"909 71 OFFCURVE",
"975 230 CURVE SMOOTH",
"1008 309 OFFCURVE",
"1024 403 OFFCURVE",
"1024 511 CURVE SMOOTH",
"1024 532 LINE SMOOTH",
"1024 763 OFFCURVE",
"956 938 OFFCURVE",
"832 1032 CURVE SMOOTH",
"770 1079 OFFCURVE",
"696 1102 OFFCURVE",
"609 1102 CURVE SMOOTH",
"454 1102 OFFCURVE",
"342 1033 OFFCURVE",
"271 917 CURVE",
"271 1560 LINE",
"-12 1560 LINE",
"-12 1472 LINE",
"151 1459 LINE",
"151 0 LINE",
"254 0 LINE",
"266 157 LINE",
"337 45 OFFCURVE",
"452 -21 OFFCURVE",
"611 -21 CURVE SMOOTH"
);
},
{
closed = 1;
nodes = (
"429 82 OFFCURVE",
"322 162 OFFCURVE",
"271 287 CURVE",
"271 775 LINE",
"320 904 OFFCURVE",
"417 999 OFFCURVE",
"586 999 CURVE SMOOTH",
"726 999 OFFCURVE",
"820 916 OFFCURVE",
"868 776 CURVE SMOOTH",
"891 706 OFFCURVE",
"903 625 OFFCURVE",
"903 532 CURVE SMOOTH",
"903 511 LINE SMOOTH",
"903 250 OFFCURVE",
"796 82 OFFCURVE",
"588 82 CURVE SMOOTH"
);
}
);
width = 1114;
},
{
layerId = "1A30CC2E-2F0E-43C1-8400-CBCC094AAC97";
paths = (
{
closed = 1;
nodes = (
"825 -21 OFFCURVE",
"953 71 OFFCURVE",
"1021 227 CURVE SMOOTH",
"1054 305 OFFCURVE",
"1071 396 OFFCURVE",
"1071 500 CURVE SMOOTH",
"1071 521 LINE SMOOTH",
"1071 753 OFFCURVE",
"1002 933 OFFCURVE",
"876 1030 CURVE SMOOTH",
"813 1078 OFFCURVE",
"736 1102 OFFCURVE",
"647 1102 CURVE SMOOTH",
"512 1102 OFFCURVE",
"412 1050 OFFCURVE",
"344 954 CURVE",
"344 1560 LINE",
"-16 1560 LINE",
"-16 1433 LINE",
"147 1405 LINE",
"147 0 LINE",
"317 0 LINE",
"335 139 LINE",
"404 34 OFFCURVE",
"508 -21 OFFCURVE",
"649 -21 CURVE SMOOTH"
);
},
{
closed = 1;
nodes = (
"478 139 OFFCURVE",
"393 202 OFFCURVE",
"344 302 CURVE",
"344 780 LINE",
"393 879 OFFCURVE",
"476 942 OFFCURVE",
"597 942 CURVE SMOOTH",
"722 942 OFFCURVE",
"803 867 OFFCURVE",
"843 741 CURVE SMOOTH",
"863 678 OFFCURVE",
"873 604 OFFCURVE",
"873 521 CURVE SMOOTH",
"873 500 LINE SMOOTH",
"873 283 OFFCURVE",
"784 139 OFFCURVE",
"599 139 CURVE SMOOTH"
);
}
);
userData = {
assembly = "NPUSHB[ ]	/* 21 values pushed */\0127 6 2 3 2 10 1 5 3 34 33 2 4 5 3 76 3 1 4 1 75 \012MPPEM[ ]	/* MeasurePixelPerEm */\012PUSHB[ ]	/* 1 value pushed */\01223 \012LT[ ]	/* LessThan */\012IF[ ]	/* If */\012NPUSHB[ ]	/* 29 values pushed */\0120 2 2 33 77 0 5 5 3 97 0 3 3 40 77 7 1 4 4 0 97 1 6 2 0 0 38 0 78 \012ELSE[ ]	/* Else */\012NPUSHB[ ]	/* 33 values pushed */\0120 2 2 33 77 0 5 5 3 97 0 3 3 40 77 0 1 1 32 77 7 1 4 4 0 97 6 1 0 0 38 0 78 \012EIF[ ]	/* EndIf */\012NPUSHB[ ]	/* 23 values pushed */\01223 22 1 0 31 29 22 36 23 36 14 12 9 8 5 4 0 21 1 21 8 8 22 \012CALL[ ]	/* CallFunction */";
};
width = 1145;
},
{
layerId = "E08E4BD2-F9DD-4A22-B137-462FE0EF4830";
paths = (
{
closed = 1;
nodes = (
"873 -21 OFFCURVE",
"997 71 OFFCURVE",
"1061 231 CURVE SMOOTH",
"1093 310 OFFCURVE",
"1109 404 OFFCURVE",
"1109 511 CURVE SMOOTH",
"1109 532 LINE SMOOTH",
"1109 763 OFFCURVE",
"1044 938 OFFCURVE",
"922 1032 CURVE SMOOTH",
"861 1079 OFFCURVE",
"786 1102 OFFCURVE",
"699 1102 CURVE SMOOTH",
"578 1102 OFFCURVE",
"487 1054 OFFCURVE",
"424 967 CURVE",
"424 1560 LINE",
"-22 1560 LINE",
"-22 1384 LINE",
"133 1354 LINE",
"133 0 LINE",
"385 0 LINE",
"406 133 LINE",
"470 33 OFFCURVE",
"563 -21 OFFCURVE",
"696 -21 CURVE SMOOTH"
);
},
{
closed = 1;
nodes = (
"527 206 OFFCURVE",
"464 241 OFFCURVE",
"424 308 CURVE",
"424 760 LINE",
"460 831 OFFCURVE",
"523 875 OFFCURVE",
"611 875 CURVE SMOOTH",
"708 875 OFFCURVE",
"768 817 OFFCURVE",
"797 715 CURVE SMOOTH",
"811 664 OFFCURVE",
"818 603 OFFCURVE",
"818 532 CURVE SMOOTH",
"818 511 LINE SMOOTH",
"818 316 OFFCURVE",
"757 206 OFFCURVE",
"608 206 CURVE SMOOTH"
);
}
);
width = 1181;
},
{
layerId = "3540F6DD-AC2C-489F-A09A-29A5B6885314";
paths = (
{
closed = 1;
nodes = (
"903 -21 OFFCURVE",
"1025 71 OFFCURVE",
"1087 233 CURVE SMOOTH",
"1118 314 OFFCURVE",
"1133 409 OFFCURVE",
"1133 518 CURVE SMOOTH",
"1133 539 LINE SMOOTH",
"1133 768 OFFCURVE",
"1070 941 OFFCURVE",
"951 1033 CURVE SMOOTH",
"891 1079 OFFCURVE",
"818 1102 OFFCURVE",
"732 1102 CURVE SMOOTH",
"619 1102 OFFCURVE",
"533 1056 OFFCURVE",
"474 975 CURVE",
"474 1560 LINE",
"-26 1560 LINE",
"-26 1354 LINE",
"124 1322 LINE",
"124 0 LINE",
"427 0 LINE",
"450 129 LINE",
"511 32 OFFCURVE",
"597 -21 OFFCURVE",
"726 -21 CURVE SMOOTH"
);
},
{
closed = 1;
nodes = (
"557 248 OFFCURVE",
"509 267 OFFCURVE",
"474 312 CURVE",
"474 747 LINE",
"502 800 OFFCURVE",
"554 833 OFFCURVE",
"619 833 CURVE SMOOTH",
"699 833 OFFCURVE",
"746 786 OFFCURVE",
"768 699 CURVE SMOOTH",
"779 655 OFFCURVE",
"784 602 OFFCURVE",
"784 539 CURVE SMOOTH",
"784 518 LINE SMOOTH",
"784 337 OFFCURVE",
"741 248 OFFCURVE",
"614 248 CURVE SMOOTH"
);
}
);
width = 1203;
}
);
note = b;
unicode = 0062;
},
{
glyphname = c;
lastChange = "2021-05-27 10:38:10 +0000";
layers = (
{
layerId = "E37246A9-A376-4020-9DA5-E0C9FF7935B5";
paths = (
{
closed = 1;
nodes = (
"687 -21 OFFCURVE",
"801 30 OFFCURVE",
"872 131 CURVE SMOOTH",
"907 181 OFFCURVE",
"929 243 OFFCURVE",
"937 317 CURVE",
"935 323 LINE",
"889 323 LINE",
"865 126 OFFCURVE",
"728 33 OFFCURVE",
"543 33 CURVE SMOOTH",
"388 33 OFFCURVE",
"270 119 OFFCURVE",
"206 266 CURVE SMOOTH",
"174 339 OFFCURVE",
"158 424 OFFCURVE",
"158 520 CURVE SMOOTH",
"158 562 LINE SMOOTH",
"158 753 OFFCURVE",
"224 903 OFFCURVE",
"339 986 CURVE SMOOTH",
"396 1027 OFFCURVE",
"463 1048 OFFCURVE",
"539 1048 CURVE SMOOTH",
"674 1048 OFFCURVE",
"781 996 OFFCURVE",
"866 905 CURVE",
"866 693 LINE",
"920 693 LINE",
"920 925 LINE",
"833 1024 OFFCURVE",
"701 1102 OFFCURVE",
"538 1102 CURVE SMOOTH",
"369 1102 OFFCURVE",
"234 1008 OFFCURVE",
"160 846 CURVE SMOOTH",
"123 765 OFFCURVE",
"104 670 OFFCURVE",
"104 562 CURVE SMOOTH",
"104 520 LINE SMOOTH",
"104 304 OFFCURVE",
"185 138 OFFCURVE",
"317 47 CURVE SMOOTH",
"383 2 OFFCURVE",
"457 -21 OFFCURVE",
"540 -21 CURVE SMOOTH"
);
}
);
width = 1082;
},
{
layerId = "142AFF07-46EF-45A1-8A7E-F20FA79F7038";
paths = (
{
closed = 1;
nodes = (
"712 -21 OFFCURVE",
"832 40 OFFCURVE",
"901 144 CURVE SMOOTH",
"935 196 OFFCURVE",
"955 256 OFFCURVE",
"961 324 CURVE",
"959 330 LINE",
"852 330 LINE",
"829 165 OFFCURVE",
"713 79 OFFCURVE",
"552 79 CURVE SMOOTH",
"413 79 OFFCURVE",
"310 156 OFFCURVE",
"254 289 CURVE SMOOTH",
"226 355 OFFCURVE",
"212 432 OFFCURVE",
"212 520 CURVE SMOOTH",
"212 562 LINE SMOOTH",
"212 730 OFFCURVE",
"271 868 OFFCURVE",
"374 944 CURVE SMOOTH",
"425 982 OFFCURVE",
"485 1001 OFFCURVE",
"553 1001 CURVE SMOOTH",
"669 1001 OFFCURVE",
"757 960 OFFCURVE",
"824 889 CURVE",
"840 687 LINE",
"940 687 LINE",
"938 932 LINE",
"850 1032 OFFCURVE",
"718 1102 OFFCURVE",
"550 1102 CURVE SMOOTH",
"365 1102 OFFCURVE",
"224 1005 OFFCURVE",
"149 842 CURVE SMOOTH",
"111 761 OFFCURVE",
"92 667 OFFCURVE",
"92 562 CURVE SMOOTH",
"92 520 LINE SMOOTH",
"92 305 OFFCURVE",
"175 138 OFFCURVE",
"313 47 CURVE SMOOTH",
"382 2 OFFCURVE",
"461 -21 OFFCURVE",
"551 -21 CURVE SMOOTH"
);
}
);
width = 1075;
},
{
layerId = "1A30CC2E-2F0E-43C1-8400-CBCC094AAC97";
paths = (
{
closed = 1;
nodes = (
"743 -21 OFFCURVE",
"866 51 OFFCURVE",
"933 159 CURVE SMOOTH",
"966 213 OFFCURVE",
"985 271 OFFCURVE",
"988 333 CURVE",
"986 339 LINE",
"809 339 LINE",
"789 211 OFFCURVE",
"695 133 OFFCURVE",
"562 133 CURVE SMOOTH",
"443 133 OFFCURVE",
"356 199 OFFCURVE",
"310 315 CURVE SMOOTH",
"287 373 OFFCURVE",
"275 441 OFFCURVE",
"275 520 CURVE SMOOTH",
"275 562 LINE SMOOTH",
"275 705 OFFCURVE",
"327 826 OFFCURVE",
"416 895 CURVE SMOOTH",
"460 930 OFFCURVE",
"511 947 OFFCURVE",
"570 947 CURVE SMOOTH",
"662 947 OFFCURVE",
"730 917 OFFCURVE",
"775 870 CURVE",
"809 681 LINE",
"963 681 LINE",
"958 941 LINE",
"869 1041 OFFCURVE",
"738 1102 OFFCURVE",
"563 1102 CURVE SMOOTH",
"362 1102 OFFCURVE",
"213 1001 OFFCURVE",
"136 838 CURVE SMOOTH",
"97 757 OFFCURVE",
"78 665 OFFCURVE",
"78 562 CURVE SMOOTH",
"78 520 LINE SMOOTH",
"78 307 OFFCURVE",
"162 139 OFFCURVE",
"307 48 CURVE SMOOTH",
"380 2 OFFCURVE",
"465 -21 OFFCURVE",
"563 -21 CURVE SMOOTH"
);
}
);
userData = {
assembly = "NPUSHB[ ]	/* 62 values pushed */\01212 1 2 3 1 76 0 2 3 5 3 2 5 128 0 5 4 3 5 4 126 0 3 3 1 97 0 1 1 40 77 0 4 4 0 97 6 1 0 0 38 0 78 1 0 31 30 28 26 19 17 14 13 10 8 0 35 1 35 7 8 22 \012CALL[ ]	/* CallFunction */";
};
width = 1067;
},
{
layerId = "E08E4BD2-F9DD-4A22-B137-462FE0EF4830";
paths = (
{
closed = 1;
nodes = (
"760 -21 OFFCURVE",
"879 41 OFFCURVE",
"947 153 CURVE SMOOTH",
"980 209 OFFCURVE",
"1003 275 OFFCURVE",
"1014 352 CURVE",
"1011 358 LINE",
"762 358 LINE",
"738 259 OFFCURVE",
"677 203 OFFCURVE",
"574 203 CURVE SMOOTH",
"494 203 OFFCURVE",
"427 247 OFFCURVE",
"388 343 CURVE SMOOTH",
"369 390 OFFCURVE",
"359 451 OFFCURVE",
"359 525 CURVE SMOOTH",
"359 555 LINE SMOOTH",
"359 695 OFFCURVE",
"394 795 OFFCURVE",
"464 848 CURVE SMOOTH",
"499 875 OFFCURVE",
"543 888 OFFCURVE",
"596 888 CURVE SMOOTH",
"647 888 OFFCURVE",
"700 866 OFFCURVE",
"732 834 CURVE",
"771 641 LINE",
"991 641 LINE",
"993 951 LINE",
"905 1031 OFFCURVE",
"765 1102 OFFCURVE",
"570 1102 CURVE SMOOTH",
"366 1102 OFFCURVE",
"212 1002 OFFCURVE",
"129 838 CURVE SMOOTH",
"88 756 OFFCURVE",
"67 662 OFFCURVE",
"67 555 CURVE SMOOTH",
"67 525 LINE SMOOTH",
"67 313 OFFCURVE",
"151 142 OFFCURVE",
"303 49 CURVE SMOOTH",
"378 2 OFFCURVE",
"468 -21 OFFCURVE",
"572 -21 CURVE SMOOTH"
);
}
);
width = 1082;
},
{
layerId = "3540F6DD-AC2C-489F-A09A-29A5B6885314";
paths = (
{
closed = 1;
nodes = (
"772 -21 OFFCURVE",
"887 36 OFFCURVE",
"955 150 CURVE SMOOTH",
"989 207 OFFCURVE",
"1014 278 OFFCURVE",
"1030 364 CURVE",
"1026 370 LINE",
"732 370 LINE",
"707 289 OFFCURVE",
"665 246 OFFCURVE",
"581 246 CURVE SMOOTH",
"526 246 OFFCURVE",
"471 278 OFFCURVE",
"437 360 CURVE SMOOTH",
"420 401 OFFCURVE",
"411 457 OFFCURVE",
"411 528 CURVE SMOOTH",
"411 551 LINE SMOOTH",
"411 688 OFFCURVE",
"434 775 OFFCURVE",
"493 819 CURVE SMOOTH",
"522 840 OFFCURVE",
"562 851 OFFCURVE",
"612 851 CURVE SMOOTH",
"637 851 OFFCURVE",
"682 835 OFFCURVE",
"705 812 CURVE",
"747 616 LINE",
"1008 616 LINE",
"1014 957 LINE",
"929 1025 OFFCURVE",
"781 1102 OFFCURVE",
"574 1102 CURVE SMOOTH",
"369 1102 OFFCURVE",
"211 1003 OFFCURVE",
"125 838 CURVE SMOOTH",
"82 755 OFFCURVE",
"60 660 OFFCURVE",
"60 551 CURVE SMOOTH",
"60 528 LINE SMOOTH",
"60 316 OFFCURVE",
"145 145 OFFCURVE",
"300 50 CURVE SMOOTH",
"377 3 OFFCURVE",
"470 -21 OFFCURVE",
"577 -21 CURVE SMOOTH"
);
}
);
width = 1092;
}
);
note = c;
unicode = 0063;
},
{
glyphname = d;
lastChange = "2021-05-27 10:38:10 +0000";
layers = (
{
layerId = "E37246A9-A376-4020-9DA5-E0C9FF7935B5";
paths = (
{
closed = 1;
nodes = (
"681 -21 OFFCURVE",
"808 54 OFFCURVE",
"879 173 CURVE",
"881 0 LINE",
"1096 0 LINE",
"1096 54 LINE",
"933 54 LINE",
"933 1560 LINE",
"716 1560 LINE",
"716 1506 LINE",
"879 1506 LINE",
"879 883 LINE",
"806 1019 OFFCURVE",
"683 1102 OFFCURVE",
"512 1102 CURVE SMOOTH",
"341 1102 OFFCURVE",
"217 1007 OFFCURVE",
"153 839 CURVE SMOOTH",
"120 755 OFFCURVE",
"104 656 OFFCURVE",
"104 542 CURVE SMOOTH",
"104 521 LINE SMOOTH",
"104 298 OFFCURVE",
"171 133 OFFCURVE",
"292 45 CURVE SMOOTH",
"353 1 OFFCURVE",
"425 -21 OFFCURVE",
"510 -21 CURVE SMOOTH"
);
},
{
closed = 1;
nodes = (
"280 33 OFFCURVE",
"160 222 OFFCURVE",
"160 521 CURVE SMOOTH",
"160 542 LINE SMOOTH",
"160 742 OFFCURVE",
"214 899 OFFCURVE",
"318 984 CURVE SMOOTH",
"370 1027 OFFCURVE",
"434 1048 OFFCURVE",
"511 1048 CURVE SMOOTH",
"718 1048 OFFCURVE",
"827 930 OFFCURVE",
"879 775 CURVE",
"879 268 LINE",
"823 125 OFFCURVE",
"697 33 OFFCURVE",
"509 33 CURVE SMOOTH"
);
}
);
width = 1205;
},
{
layerId = "142AFF07-46EF-45A1-8A7E-F20FA79F7038";
paths = (
{
closed = 1;
nodes = (
"658 -21 OFFCURVE",
"774 44 OFFCURVE",
"845 153 CURVE",
"854 0 LINE",
"1124 0 LINE",
"1124 87 LINE",
"961 100 LINE",
"961 1560 LINE",
"678 1560 LINE",
"678 1472 LINE",
"841 1459 LINE",
"841 920 LINE",
"769 1035 OFFCURVE",
"658 1102 OFFCURVE",
"507 1102 CURVE SMOOTH",
"334 1102 OFFCURVE",
"206 1004 OFFCURVE",
"141 833 CURVE SMOOTH",
"108 748 OFFCURVE",
"92 647 OFFCURVE",
"92 532 CURVE SMOOTH",
"92 511 LINE SMOOTH",
"92 295 OFFCURVE",
"159 133 OFFCURVE",
"283 45 CURVE SMOOTH",
"345 1 OFFCURVE",
"419 -21 OFFCURVE",
"505 -21 CURVE SMOOTH"
);
},
{
closed = 1;
nodes = (
"318 82 OFFCURVE",
"213 250 OFFCURVE",
"213 511 CURVE SMOOTH",
"213 532 LINE SMOOTH",
"213 717 OFFCURVE",
"261 861 OFFCURVE",
"354 940 CURVE SMOOTH",
"401 979 OFFCURVE",
"459 999 OFFCURVE",
"529 999 CURVE SMOOTH",
"693 999 OFFCURVE",
"789 909 OFFCURVE",
"841 784 CURVE",
"841 279 LINE",
"786 158 OFFCURVE",
"683 82 OFFCURVE",
"527 82 CURVE SMOOTH"
);
}
);
width = 1211;
},
{
layerId = "1A30CC2E-2F0E-43C1-8400-CBCC094AAC97";
paths = (
{
closed = 1;
nodes = (
"634 -21 OFFCURVE",
"735 30 OFFCURVE",
"806 129 CURVE",
"822 0 LINE",
"1156 0 LINE",
"1156 126 LINE",
"993 154 LINE",
"993 1560 LINE",
"633 1560 LINE",
"633 1433 LINE",
"796 1405 LINE",
"796 964 LINE",
"727 1053 OFFCURVE",
"629 1102 OFFCURVE",
"501 1102 CURVE SMOOTH",
"324 1102 OFFCURVE",
"195 1001 OFFCURVE",
"128 826 CURVE SMOOTH",
"95 739 OFFCURVE",
"78 637 OFFCURVE",
"78 521 CURVE SMOOTH",
"78 500 LINE SMOOTH",
"78 292 OFFCURVE",
"147 132 OFFCURVE",
"273 45 CURVE SMOOTH",
"336 1 OFFCURVE",
"411 -21 OFFCURVE",
"499 -21 CURVE SMOOTH"
);
},
{
closed = 1;
nodes = (
"362 139 OFFCURVE",
"275 283 OFFCURVE",
"275 500 CURVE SMOOTH",
"275 521 LINE SMOOTH",
"275 688 OFFCURVE",
"315 817 OFFCURVE",
"396 889 CURVE SMOOTH",
"437 924 OFFCURVE",
"488 942 OFFCURVE",
"551 942 CURVE SMOOTH",
"664 942 OFFCURVE",
"745 885 OFFCURVE",
"796 794 CURVE",
"796 292 LINE",
"744 195 OFFCURVE",
"666 139 OFFCURVE",
"549 139 CURVE SMOOTH"
);
}
);
userData = {
assembly = "MPPEM[ ]	/* MeasurePixelPerEm */\012PUSHB[ ]	/* 1 value pushed */\01223 \012LT[ ]	/* LessThan */\012IF[ ]	/* If */\012NPUSHB[ ]	/* 22 values pushed */\01214 13 2 1 2 12 1 5 1 29 28 18 3 4 5 22 19 2 0 4 4 76 \012ELSE[ ]	/* Else */\012NPUSHB[ ]	/* 22 values pushed */\01214 13 2 1 2 12 1 5 1 29 28 18 3 4 5 22 19 2 3 4 4 76 \012EIF[ ]	/* EndIf */\012MPPEM[ ]	/* MeasurePixelPerEm */\012PUSHB[ ]	/* 1 value pushed */\01223 \012LT[ ]	/* LessThan */\012IF[ ]	/* If */\012NPUSHB[ ]	/* 29 values pushed */\0120 2 2 33 77 0 5 5 1 97 0 1 1 40 77 7 1 4 4 0 97 3 6 2 0 0 38 0 78 \012ELSE[ ]	/* Else */\012NPUSHB[ ]	/* 33 values pushed */\0120 2 2 33 77 0 5 5 1 97 0 1 1 40 77 0 3 3 32 77 7 1 4 4 0 97 6 1 0 0 38 0 78 \012EIF[ ]	/* EndIf */\012NPUSHB[ ]	/* 23 values pushed */\01226 25 1 0 33 31 25 39 26 39 21 20 17 15 10 8 0 24 1 24 8 8 22 \012CALL[ ]	/* CallFunction */";
};
width = 1218;
},
{
layerId = "E08E4BD2-F9DD-4A22-B137-462FE0EF4830";
paths = (
{
closed = 1;
nodes = (
"607 -21 OFFCURVE",
"699 32 OFFCURVE",
"767 132 CURVE",
"789 0 LINE",
"1182 0 LINE",
"1182 175 LINE",
"1042 205 LINE",
"1042 1560 LINE",
"594 1560 LINE",
"594 1384 LINE",
"750 1354 LINE",
"750 966 LINE",
"685 1053 OFFCURVE",
"597 1102 OFFCURVE",
"478 1102 CURVE SMOOTH",
"307 1102 OFFCURVE",
"183 1002 OFFCURVE",
"117 831 CURVE SMOOTH",
"84 746 OFFCURVE",
"67 646 OFFCURVE",
"67 532 CURVE SMOOTH",
"67 511 LINE SMOOTH",
"67 298 OFFCURVE",
"134 134 OFFCURVE",
"258 46 CURVE SMOOTH",
"319 1 OFFCURVE",
"393 -21 OFFCURVE",
"479 -21 CURVE SMOOTH"
);
},
{
closed = 1;
nodes = (
"418 206 OFFCURVE",
"359 322 OFFCURVE",
"359 511 CURVE SMOOTH",
"359 532 LINE SMOOTH",
"359 668 OFFCURVE",
"387 774 OFFCURVE",
"449 832 CURVE SMOOTH",
"480 861 OFFCURVE",
"519 875 OFFCURVE",
"568 875 CURVE SMOOTH",
"648 875 OFFCURVE",
"710 835 OFFCURVE",
"750 766 CURVE",
"750 307 LINE",
"709 242 OFFCURVE",
"647 206 OFFCURVE",
"566 206 CURVE SMOOTH"
);
}
);
width = 1212;
},
{
layerId = "3540F6DD-AC2C-489F-A09A-29A5B6885314";
paths = (
{
closed = 1;
nodes = (
"590 -21 OFFCURVE",
"677 33 OFFCURVE",
"742 134 CURVE",
"768 0 LINE",
"1198 0 LINE",
"1198 205 LINE",
"1072 237 LINE",
"1072 1560 LINE",
"569 1560 LINE",
"569 1354 LINE",
"721 1322 LINE",
"721 967 LINE",
"658 1052 OFFCURVE",
"578 1102 OFFCURVE",
"463 1102 CURVE SMOOTH",
"298 1102 OFFCURVE",
"174 1003 OFFCURVE",
"109 835 CURVE SMOOTH",
"76 750 OFFCURVE",
"60 652 OFFCURVE",
"60 539 CURVE SMOOTH",
"60 518 LINE SMOOTH",
"60 302 OFFCURVE",
"127 135 OFFCURVE",
"249 46 CURVE SMOOTH",
"310 1 OFFCURVE",
"382 -21 OFFCURVE",
"467 -21 CURVE SMOOTH"
);
},
{
closed = 1;
nodes = (
"452 248 OFFCURVE",
"411 346 OFFCURVE",
"411 518 CURVE SMOOTH",
"411 539 LINE SMOOTH",
"411 656 OFFCURVE",
"432 747 OFFCURVE",
"481 796 CURVE SMOOTH",
"506 821 OFFCURVE",
"538 833 OFFCURVE",
"578 833 CURVE SMOOTH",
"638 833 OFFCURVE",
"688 804 OFFCURVE",
"721 749 CURVE",
"721 316 LINE",
"688 271 OFFCURVE",
"635 248 OFFCURVE",
"576 248 CURVE SMOOTH"
);
}
);
width = 1208;
}
);
note = d;
unicode = 0064;
},
{
glyphname = e;
lastChange = "2021-05-27 10:38:10 +0000";
layers = (
{
layerId = "E37246A9-A376-4020-9DA5-E0C9FF7935B5";
paths = (
{
closed = 1;
nodes = (
"719 -21 OFFCURVE",
"828 38 OFFCURVE",
"917 123 CURVE",
"888 165 LINE",
"805 84 OFFCURVE",
"701 33 OFFCURVE",
"564 33 CURVE SMOOTH",
"409 33 OFFCURVE",
"285 120 OFFCURVE",
"217 261 CURVE SMOOTH",
"183 331 OFFCURVE",
"166 411 OFFCURVE",
"166 500 CURVE SMOOTH",
"166 577 LINE",
"957 577 LINE",
"957 660 LINE SMOOTH",
"957 840 OFFCURVE",
"887 975 OFFCURVE",
"765 1048 CURVE SMOOTH",
"704 1084 OFFCURVE",
"632 1102 OFFCURVE",
"551 1102 CURVE SMOOTH",
"383 1102 OFFCURVE",
"245 1003 OFFCURVE",
"169 841 CURVE SMOOTH",
"131 760 OFFCURVE",
"112 667 OFFCURVE",
"112 564 CURVE SMOOTH",
"112 500 LINE SMOOTH",
"112 296 OFFCURVE",
"196 134 OFFCURVE",
"332 46 CURVE SMOOTH",
"400 1 OFFCURVE",
"477 -21 OFFCURVE",
"564 -21 CURVE SMOOTH"
);
},
{
closed = 1;
nodes = (
"186 793 OFFCURVE",
"258 922 OFFCURVE",
"367 994 CURVE SMOOTH",
"422 1030 OFFCURVE",
"483 1048 OFFCURVE",
"551 1048 CURVE SMOOTH",
"694 1048 OFFCURVE",
"802 977 OFFCURVE",
"860 861 CURVE SMOOTH",
"889 803 OFFCURVE",
"903 737 OFFCURVE",
"903 664 CURVE SMOOTH",
"903 631 LINE",
"177 631 LINE",
"174 637 LINE"
);
}
);
width = 1084;
},
{
layerId = "142AFF07-46EF-45A1-8A7E-F20FA79F7038";
paths = (
{
closed = 1;
nodes = (
"732 -21 OFFCURVE",
"848 38 OFFCURVE",
"932 118 CURVE",
"881 200 LINE",
"802 125 OFFCURVE",
"701 79 OFFCURVE",
"565 79 CURVE SMOOTH",
"426 79 OFFCURVE",
"319 156 OFFCURVE",
"261 281 CURVE SMOOTH",
"232 344 OFFCURVE",
"217 415 OFFCURVE",
"216 495 CURVE SMOOTH",
"218 539 LINE",
"968 539 LINE",
"968 641 LINE SMOOTH",
"968 828 OFFCURVE",
"899 969 OFFCURVE",
"773 1045 CURVE SMOOTH",
"710 1083 OFFCURVE",
"634 1102 OFFCURVE",
"545 1102 CURVE SMOOTH",
"377 1102 OFFCURVE",
"234 1003 OFFCURVE",
"154 841 CURVE SMOOTH",
"114 760 OFFCURVE",
"94 667 OFFCURVE",
"94 564 CURVE SMOOTH",
"94 509 LINE SMOOTH",
"94 301 OFFCURVE",
"179 137 OFFCURVE",
"320 47 CURVE SMOOTH",
"391 2 OFFCURVE",
"472 -21 OFFCURVE",
"565 -21 CURVE SMOOTH"
);
},
{
closed = 1;
nodes = (
"237 781 OFFCURVE",
"298 893 OFFCURVE",
"390 955 CURVE SMOOTH",
"436 986 OFFCURVE",
"488 1001 OFFCURVE",
"545 1001 CURVE SMOOTH",
"672 1001 OFFCURVE",
"763 940 OFFCURVE",
"812 840 CURVE SMOOTH",
"836 789 OFFCURVE",
"848 732 OFFCURVE",
"848 669 CURVE SMOOTH",
"848 639 LINE",
"226 639 LINE",
"224 645 LINE"
);
}
);
width = 1072;
},
{
layerId = "1A30CC2E-2F0E-43C1-8400-CBCC094AAC97";
paths = (
{
closed = 1;
nodes = (
"746 -21 OFFCURVE",
"873 37 OFFCURVE",
"950 112 CURVE",
"873 240 LINE",
"800 173 OFFCURVE",
"700 133 OFFCURVE",
"567 133 CURVE SMOOTH",
"446 133 OFFCURVE",
"358 198 OFFCURVE",
"312 306 CURVE SMOOTH",
"289 359 OFFCURVE",
"276 421 OFFCURVE",
"275 490 CURVE",
"278 495 LINE",
"980 495 LINE",
"980 618 LINE SMOOTH",
"980 814 OFFCURVE",
"913 962 OFFCURVE",
"782 1042 CURVE SMOOTH",
"716 1082 OFFCURVE",
"634 1102 OFFCURVE",
"537 1102 CURVE SMOOTH",
"370 1102 OFFCURVE",
"222 1002 OFFCURVE",
"138 840 CURVE SMOOTH",
"95 759 OFFCURVE",
"74 667 OFFCURVE",
"74 564 CURVE SMOOTH",
"74 520 LINE SMOOTH",
"74 307 OFFCURVE",
"158 139 OFFCURVE",
"306 48 CURVE SMOOTH",
"380 2 OFFCURVE",
"467 -21 OFFCURVE",
"567 -21 CURVE SMOOTH"
);
},
{
closed = 1;
nodes = (
"297 766 OFFCURVE",
"345 857 OFFCURVE",
"417 909 CURVE SMOOTH",
"453 934 OFFCURVE",
"493 947 OFFCURVE",
"537 947 CURVE SMOOTH",
"646 947 OFFCURVE",
"719 897 OFFCURVE",
"756 815 CURVE SMOOTH",
"774 774 OFFCURVE",
"783 727 OFFCURVE",
"783 675 CURVE SMOOTH",
"783 649 LINE",
"284 649 LINE",
"282 654 LINE"
);
}
);
userData = {
assembly = "NPUSHB[ ]	/* 59 values pushed */\01223 1 3 2 24 1 0 3 2 76 0 4 0 2 3 4 2 103 0 5 5 1 97 0 1 1 40 77 0 3 3 0 97 6 1 0 0 38 0 78 1 0 35 33 29 27 21 19 15 14 10 8 0 26 1 26 7 8 22 \012CALL[ ]	/* CallFunction */";
};
width = 1059;
},
{
layerId = "E08E4BD2-F9DD-4A22-B137-462FE0EF4830";
paths = (
{
closed = 1;
nodes = (
"756 -21 OFFCURVE",
"893 32 OFFCURVE",
"982 104 CURVE",
"903 284 LINE",
"815 231 OFFCURVE",
"725 203 OFFCURVE",
"618 203 CURVE SMOOTH",
"515 203 OFFCURVE",
"443 248 OFFCURVE",
"404 322 CURVE SMOOTH",
"384 359 OFFCURVE",
"372 401 OFFCURVE",
"368 448 CURVE",
"370 454 LINE",
"1006 454 LINE",
"1006 613 LINE SMOOTH",
"1006 820 OFFCURVE",
"935 967 OFFCURVE",
"802 1044 CURVE SMOOTH",
"735 1083 OFFCURVE",
"653 1102 OFFCURVE",
"555 1102 CURVE SMOOTH",
"356 1103 OFFCURVE",
"207 1002 OFFCURVE",
"127 836 CURVE SMOOTH",
"87 753 OFFCURVE",
"67 657 OFFCURVE",
"67 550 CURVE SMOOTH",
"67 510 LINE SMOOTH",
"67 305 OFFCURVE",
"155 139 OFFCURVE",
"310 48 CURVE SMOOTH",
"387 2 OFFCURVE",
"478 -21 OFFCURVE",
"581 -21 CURVE SMOOTH"
);
},
{
closed = 1;
nodes = (
"380 741 OFFCURVE",
"409 815 OFFCURVE",
"462 856 CURVE SMOOTH",
"489 876 OFFCURVE",
"521 886 OFFCURVE",
"560 886 CURVE SMOOTH",
"641 886 OFFCURVE",
"692 850 OFFCURVE",
"716 787 CURVE SMOOTH",
"727 755 OFFCURVE",
"733 717 OFFCURVE",
"733 673 CURVE SMOOTH",
"733 647 LINE",
"372 647 LINE",
"369 652 LINE"
);
}
);
width = 1078;
},
{
layerId = "3540F6DD-AC2C-489F-A09A-29A5B6885314";
paths = (
{
closed = 1;
nodes = (
"762 -21 OFFCURVE",
"905 30 OFFCURVE",
"1002 99 CURVE",
"922 311 LINE",
"825 266 OFFCURVE",
"741 246 OFFCURVE",
"650 246 CURVE SMOOTH",
"558 246 OFFCURVE",
"496 279 OFFCURVE",
"461 332 CURVE SMOOTH",
"443 358 OFFCURVE",
"431 388 OFFCURVE",
"426 422 CURVE",
"427 429 LINE",
"1022 429 LINE",
"1022 610 LINE SMOOTH",
"1022 823 OFFCURVE",
"950 970 OFFCURVE",
"815 1046 CURVE SMOOTH",
"747 1083 OFFCURVE",
"664 1102 OFFCURVE",
"566 1102 CURVE SMOOTH",
"349 1103 OFFCURVE",
"198 1002 OFFCURVE",
"121 833 CURVE SMOOTH",
"82 748 OFFCURVE",
"63 651 OFFCURVE",
"63 541 CURVE SMOOTH",
"63 504 LINE SMOOTH",
"63 304 OFFCURVE",
"155 139 OFFCURVE",
"313 48 CURVE SMOOTH",
"392 2 OFFCURVE",
"484 -21 OFFCURVE",
"590 -21 CURVE SMOOTH"
);
},
{
closed = 1;
nodes = (
"431 727 OFFCURVE",
"448 789 OFFCURVE",
"490 823 CURVE SMOOTH",
"511 840 OFFCURVE",
"539 848 OFFCURVE",
"574 848 CURVE SMOOTH",
"639 848 OFFCURVE",
"675 821 OFFCURVE",
"691 769 CURVE SMOOTH",
"698 743 OFFCURVE",
"702 711 OFFCURVE",
"702 672 CURVE SMOOTH",
"702 646 LINE",
"427 646 LINE",
"423 651 LINE"
);
}
);
width = 1090;
}
);
note = e;
unicode = 0065;
},
{
glyphname = f;
lastChange = "2021-05-27 10:38:10 +0000";
layers = (
{
layerId = "E37246A9-A376-4020-9DA5-E0C9FF7935B5";
paths = (
{
closed = 1;
nodes = (
"331 54 LINE",
"331 1027 LINE",
"617 1027 LINE",
"617 1082 LINE",
"331 1082 LINE",
"331 1260 LINE SMOOTH",
"331 1427 OFFCURVE",
"417 1527 OFFCURVE",
"561 1527 CURVE SMOOTH",
"612 1527 OFFCURVE",
"637 1523 OFFCURVE",
"680 1512 CURVE",
"688 1564 LINE",
"648 1576 OFFCURVE",
"604 1581 OFFCURVE",
"560 1581 CURVE SMOOTH",
"381 1581 OFFCURVE",
"277 1464 OFFCURVE",
"277 1260 CURVE SMOOTH",
"277 1082 LINE",
"89 1082 LINE",
"89 1027 LINE",
"277 1027 LINE",
"277 54 LINE",
"114 54 LINE",
"114 0 LINE",
"494 0 LINE",
"494 54 LINE"
);
}
);
width = 722;
},
{
layerId = "142AFF07-46EF-45A1-8A7E-F20FA79F7038";
paths = (
{
closed = 1;
nodes = (
"377 100 LINE",
"377 985 LINE",
"640 985 LINE",
"640 1082 LINE",
"377 1082 LINE",
"377 1241 LINE SMOOTH",
"377 1392 OFFCURVE",
"448 1478 OFFCURVE",
"579 1478 CURVE SMOOTH",
"623 1478 OFFCURVE",
"659 1473 OFFCURVE",
"692 1465 CURVE",
"708 1562 LINE",
"660 1575 OFFCURVE",
"612 1581 OFFCURVE",
"567 1581 CURVE SMOOTH",
"371 1581 OFFCURVE",
"257 1457 OFFCURVE",
"257 1241 CURVE SMOOTH",
"257 1082 LINE",
"77 1082 LINE",
"77 985 LINE",
"257 985 LINE",
"257 100 LINE",
"94 87 LINE",
"94 0 LINE",
"550 0 LINE",
"550 87 LINE"
);
}
);
width = 723;
},
{
layerId = "1A30CC2E-2F0E-43C1-8400-CBCC094AAC97";
paths = (
{
closed = 1;
nodes = (
"430 936 LINE",
"666 936 LINE",
"666 1082 LINE",
"430 1082 LINE",
"430 1219 LINE SMOOTH",
"430 1350 OFFCURVE",
"485 1420 OFFCURVE",
"601 1420 CURVE SMOOTH",
"637 1420 OFFCURVE",
"683 1415 OFFCURVE",
"707 1410 CURVE",
"731 1560 LINE",
"675 1573 OFFCURVE",
"621 1581 OFFCURVE",
"576 1581 CURVE SMOOTH",
"360 1581 OFFCURVE",
"233 1450 OFFCURVE",
"233 1219 CURVE SMOOTH",
"233 1082 LINE",
"64 1082 LINE",
"64 936 LINE",
"233 936 LINE",
"233 154 LINE",
"70 126 LINE",
"70 0 LINE",
"616 0 LINE",
"616 126 LINE",
"430 154 LINE"
);
}
);
userData = {
assembly = "NPUSHB[ ]	/* 55 values pushed */\01214 1 4 3 15 1 2 4 27 26 3 2 4 0 1 3 76 0 4 4 3 97 0 3 3 39 77 6 1 1 1 2 95 5 1 2 2 34 77 0 0 0 32 0 78 17 19 37 35 17 19 16 7 8 29 \012CALL[ ]	/* CallFunction */";
};
width = 725;
},
{
layerId = "E08E4BD2-F9DD-4A22-B137-462FE0EF4830";
paths = (
{
closed = 1;
nodes = (
"512 205 LINE",
"512 877 LINE",
"757 877 LINE",
"757 1082 LINE",
"512 1082 LINE",
"512 1202 LINE SMOOTH",
"512 1299 OFFCURVE",
"561 1353 OFFCURVE",
"662 1353 CURVE SMOOTH",
"705 1353 OFFCURVE",
"748 1348 OFFCURVE",
"780 1339 CURVE",
"805 1556 LINE",
"756 1569 OFFCURVE",
"680 1581 OFFCURVE",
"617 1581 CURVE SMOOTH",
"366 1581 OFFCURVE",
"220 1445 OFFCURVE",
"220 1202 CURVE SMOOTH",
"220 1082 LINE",
"59 1082 LINE",
"59 877 LINE",
"220 877 LINE",
"220 205 LINE",
"79 175 LINE",
"79 0 LINE",
"703 0 LINE",
"703 175 LINE"
);
}
);
width = 799;
},
{
layerId = "3540F6DD-AC2C-489F-A09A-29A5B6885314";
paths = (
{
closed = 1;
nodes = (
"563 237 LINE",
"563 840 LINE",
"814 840 LINE",
"814 1082 LINE",
"563 1082 LINE",
"563 1191 LINE SMOOTH",
"563 1268 OFFCURVE",
"608 1311 OFFCURVE",
"700 1311 CURVE SMOOTH",
"747 1311 OFFCURVE",
"788 1306 OFFCURVE",
"825 1295 CURVE",
"851 1554 LINE",
"806 1567 OFFCURVE",
"715 1581 OFFCURVE",
"643 1581 CURVE SMOOTH",
"371 1581 OFFCURVE",
"212 1442 OFFCURVE",
"212 1191 CURVE SMOOTH",
"212 1082 LINE",
"56 1082 LINE",
"56 840 LINE",
"212 840 LINE",
"212 237 LINE",
"85 205 LINE",
"85 0 LINE",
"757 0 LINE",
"757 205 LINE"
);
}
);
width = 845;
}
);
note = f;
unicode = 0066;
},
{
glyphname = g;
lastChange = "2021-05-27 10:38:10 +0000";
layers = (
{
layerId = "E37246A9-A376-4020-9DA5-E0C9FF7935B5";
paths = (
{
closed = 1;
nodes = (
"887 1082 LINE",
"879 882 LINE",
"807 1018 OFFCURVE",
"683 1102 OFFCURVE",
"512 1102 CURVE SMOOTH",
"341 1102 OFFCURVE",
"217 1007 OFFCURVE",
"153 840 CURVE SMOOTH",
"120 756 OFFCURVE",
"104 657 OFFCURVE",
"104 542 CURVE SMOOTH",
"104 521 LINE SMOOTH",
"104 300 OFFCURVE",
"171 133 OFFCURVE",
"292 45 CURVE SMOOTH",
"353 1 OFFCURVE",
"425 -21 OFFCURVE",
"510 -21 CURVE SMOOTH",
"679 -21 OFFCURVE",
"806 54 OFFCURVE",
"878 171 CURVE",
"878 14 LINE SMOOTH",
"878 -233 OFFCURVE",
"753 -384 OFFCURVE",
"522 -384 CURVE SMOOTH",
"406 -384 OFFCURVE",
"323 -364 OFFCURVE",
"226 -321 CURVE",
"210 -375 LINE",
"295 -414 OFFCURVE",
"419 -437 OFFCURVE",
"524 -437 CURVE SMOOTH",
"693 -437 OFFCURVE",
"818 -361 OFFCURVE",
"884 -226 CURVE SMOOTH",
"917 -158 OFFCURVE",
"933 -78 OFFCURVE",
"933 14 CURVE SMOOTH",
"933 1028 LINE",
"1076 1028 LINE",
"1076 1082 LINE"
);
},
{
closed = 1;
nodes = (
"825 128 OFFCURVE",
"701 33 OFFCURVE",
"509 33 CURVE SMOOTH",
"280 33 OFFCURVE",
"159 222 OFFCURVE",
"159 521 CURVE SMOOTH",
"159 542 LINE SMOOTH",
"159 742 OFFCURVE",
"214 899 OFFCURVE",
"319 984 CURVE SMOOTH",
"371 1027 OFFCURVE",
"435 1048 OFFCURVE",
"511 1048 CURVE SMOOTH",
"722 1048 OFFCURVE",
"827 926 OFFCURVE",
"878 767 CURVE",
"878 276 LINE"
);
}
);
width = 1155;
},
{
layerId = "142AFF07-46EF-45A1-8A7E-F20FA79F7038";
paths = (
{
closed = 1;
nodes = (
"862 1082 LINE",
"849 912 LINE",
"778 1032 OFFCURVE",
"665 1102 OFFCURVE",
"510 1102 CURVE SMOOTH",
"335 1102 OFFCURVE",
"209 1004 OFFCURVE",
"142 833 CURVE SMOOTH",
"109 748 OFFCURVE",
"92 647 OFFCURVE",
"92 532 CURVE SMOOTH",
"92 511 LINE SMOOTH",
"92 296 OFFCURVE",
"161 133 OFFCURVE",
"285 45 CURVE SMOOTH",
"347 1 OFFCURVE",
"421 -21 OFFCURVE",
"508 -21 CURVE SMOOTH",
"657 -21 OFFCURVE",
"771 41 OFFCURVE",
"843 146 CURVE",
"843 14 LINE SMOOTH",
"843 -203 OFFCURVE",
"739 -332 OFFCURVE",
"534 -332 CURVE SMOOTH",
"427 -332 OFFCURVE",
"332 -308 OFFCURVE",
"247 -267 CURVE",
"215 -367 LINE",
"303 -410 OFFCURVE",
"431 -437 OFFCURVE",
"536 -437 CURVE SMOOTH",
"715 -437 OFFCURVE",
"845 -361 OFFCURVE",
"913 -226 CURVE SMOOTH",
"946 -159 OFFCURVE",
"963 -79 OFFCURVE",
"963 14 CURVE SMOOTH",
"963 981 LINE",
"1102 995 LINE",
"1102 1082 LINE"
);
},
{
closed = 1;
nodes = (
"790 159 OFFCURVE",
"687 82 OFFCURVE",
"530 82 CURVE SMOOTH",
"319 82 OFFCURVE",
"213 250 OFFCURVE",
"213 511 CURVE SMOOTH",
"213 532 LINE SMOOTH",
"213 716 OFFCURVE",
"261 860 OFFCURVE",
"356 940 CURVE SMOOTH",
"403 979 OFFCURVE",
"462 999 OFFCURVE",
"532 999 CURVE SMOOTH",
"699 999 OFFCURVE",
"792 906 OFFCURVE",
"843 779 CURVE",
"843 284 LINE"
);
}
);
width = 1156;
},
{
layerId = "1A30CC2E-2F0E-43C1-8400-CBCC094AAC97";
paths = (
{
closed = 1;
nodes = (
"833 1082 LINE",
"815 946 LINE",
"746 1047 OFFCURVE",
"643 1102 OFFCURVE",
"507 1102 CURVE SMOOTH",
"328 1102 OFFCURVE",
"198 1001 OFFCURVE",
"130 826 CURVE SMOOTH",
"95 739 OFFCURVE",
"78 637 OFFCURVE",
"78 521 CURVE SMOOTH",
"78 500 LINE SMOOTH",
"78 293 OFFCURVE",
"149 132 OFFCURVE",
"277 45 CURVE SMOOTH",
"341 1 OFFCURVE",
"417 -21 OFFCURVE",
"505 -21 CURVE SMOOTH",
"633 -21 OFFCURVE",
"731 26 OFFCURVE",
"802 117 CURVE",
"802 14 LINE SMOOTH",
"802 -169 OFFCURVE",
"723 -271 OFFCURVE",
"547 -271 CURVE SMOOTH",
"452 -271 OFFCURVE",
"344 -243 OFFCURVE",
"271 -204 CURVE",
"220 -357 LINE",
"312 -406 OFFCURVE",
"445 -437 OFFCURVE",
"549 -437 CURVE SMOOTH",
"741 -437 OFFCURVE",
"877 -362 OFFCURVE",
"947 -227 CURVE SMOOTH",
"982 -160 OFFCURVE",
"999 -79 OFFCURVE",
"999 14 CURVE SMOOTH",
"999 927 LINE",
"1133 956 LINE",
"1133 1082 LINE"
);
},
{
closed = 1;
nodes = (
"750 195 OFFCURVE",
"673 139 OFFCURVE",
"554 139 CURVE SMOOTH",
"366 139 OFFCURVE",
"275 283 OFFCURVE",
"275 500 CURVE SMOOTH",
"275 521 LINE SMOOTH",
"275 686 OFFCURVE",
"316 816 OFFCURVE",
"400 888 CURVE SMOOTH",
"441 924 OFFCURVE",
"493 942 OFFCURVE",
"556 942 CURVE SMOOTH",
"671 942 OFFCURVE",
"751 884 OFFCURVE",
"802 792 CURVE",
"802 294 LINE"
);
}
);
userData = {
assembly = "MPPEM[ ]	/* MeasurePixelPerEm */\012PUSHB[ ]	/* 1 value pushed */\01225 \012LT[ ]	/* LessThan */\012IF[ ]	/* If */\012NPUSHB[ ]	/* 25 values pushed */\01249 26 2 6 3 50 37 36 3 5 6 11 1 2 5 4 1 1 2 3 1 0 1 5 76 \012ELSE[ ]	/* Else */\012NPUSHB[ ]	/* 25 values pushed */\01249 26 2 6 4 50 37 36 3 5 6 11 1 2 5 4 1 1 2 3 1 0 1 5 76 \012EIF[ ]	/* EndIf */\012MPPEM[ ]	/* MeasurePixelPerEm */\012PUSHB[ ]	/* 1 value pushed */\01225 \012LT[ ]	/* LessThan */\012IF[ ]	/* If */\012NPUSHB[ ]	/* 36 values pushed */\0120 6 6 3 95 10 7 4 3 3 3 34 77 9 1 5 5 2 97 0 2 2 38 77 0 1 1 0 97 8 1 0 0 42 0 78 \012ELSE[ ]	/* Else */\012NPUSHB[ ]	/* 40 values pushed */\01210 7 2 4 4 34 77 0 6 6 3 97 0 3 3 40 77 9 1 5 5 2 97 0 2 2 38 77 0 1 1 0 97 8 1 0 0 42 0 78 \012EIF[ ]	/* EndIf */\012NPUSHB[ ]	/* 31 values pushed */\01248 48 34 33 1 0 48 51 48 51 41 39 33 47 34 47 28 27 24 22 15 13 8 6 0 32 1 32 11 8 22 \012CALL[ ]	/* CallFunction */";
};
width = 1157;
},
{
layerId = "E08E4BD2-F9DD-4A22-B137-462FE0EF4830";
paths = (
{
closed = 1;
nodes = (
"790 1082 LINE",
"769 946 LINE",
"704 1046 OFFCURVE",
"612 1102 OFFCURVE",
"483 1102 CURVE SMOOTH",
"310 1102 OFFCURVE",
"184 1002 OFFCURVE",
"117 831 CURVE SMOOTH",
"84 746 OFFCURVE",
"67 646 OFFCURVE",
"67 532 CURVE SMOOTH",
"67 511 LINE SMOOTH",
"67 299 OFFCURVE",
"135 134 OFFCURVE",
"262 46 CURVE SMOOTH",
"325 1 OFFCURVE",
"401 -21 OFFCURVE",
"489 -21 CURVE SMOOTH",
"601 -21 OFFCURVE",
"687 23 OFFCURVE",
"751 104 CURVE",
"751 33 LINE SMOOTH",
"751 -122 OFFCURVE",
"681 -213 OFFCURVE",
"525 -213 CURVE SMOOTH",
"434 -213 OFFCURVE",
"323 -188 OFFCURVE",
"230 -148 CURVE",
"176 -356 LINE",
"280 -408 OFFCURVE",
"431 -437 OFFCURVE",
"540 -437 CURVE SMOOTH",
"749 -437 OFFCURVE",
"903 -356 OFFCURVE",
"984 -216 CURVE SMOOTH",
"1024 -146 OFFCURVE",
"1044 -63 OFFCURVE",
"1044 32 CURVE SMOOTH",
"1044 879 LINE",
"1171 906 LINE",
"1171 1082 LINE"
);
},
{
closed = 1;
nodes = (
"714 239 OFFCURVE",
"654 206 OFFCURVE",
"571 206 CURVE SMOOTH",
"419 206 OFFCURVE",
"359 322 OFFCURVE",
"359 511 CURVE SMOOTH",
"359 532 LINE SMOOTH",
"359 669 OFFCURVE",
"387 774 OFFCURVE",
"450 832 CURVE SMOOTH",
"481 861 OFFCURVE",
"522 875 OFFCURVE",
"572 875 CURVE SMOOTH",
"652 875 OFFCURVE",
"714 837 OFFCURVE",
"751 772 CURVE",
"751 302 LINE"
);
}
);
width = 1198;
},
{
layerId = "3540F6DD-AC2C-489F-A09A-29A5B6885314";
paths = (
{
closed = 1;
nodes = (
"763 1082 LINE",
"741 946 LINE",
"678 1045 OFFCURVE",
"593 1102 OFFCURVE",
"468 1102 CURVE SMOOTH",
"299 1102 OFFCURVE",
"174 1003 OFFCURVE",
"109 835 CURVE SMOOTH",
"76 750 OFFCURVE",
"60 652 OFFCURVE",
"60 539 CURVE SMOOTH",
"60 518 LINE SMOOTH",
"60 302 OFFCURVE",
"128 135 OFFCURVE",
"253 46 CURVE SMOOTH",
"316 1 OFFCURVE",
"391 -21 OFFCURVE",
"479 -21 CURVE SMOOTH",
"582 -21 OFFCURVE",
"660 21 OFFCURVE",
"720 96 CURVE",
"720 45 LINE SMOOTH",
"720 -92 OFFCURVE",
"655 -177 OFFCURVE",
"511 -177 CURVE SMOOTH",
"423 -177 OFFCURVE",
"310 -154 OFFCURVE",
"205 -113 CURVE",
"149 -355 LINE",
"260 -408 OFFCURVE",
"422 -437 OFFCURVE",
"535 -437 CURVE SMOOTH",
"755 -437 OFFCURVE",
"919 -353 OFFCURVE",
"1007 -209 CURVE SMOOTH",
"1050 -137 OFFCURVE",
"1072 -53 OFFCURVE",
"1072 43 CURVE SMOOTH",
"1072 849 LINE",
"1195 875 LINE",
"1195 1082 LINE"
);
},
{
closed = 1;
nodes = (
"691 267 OFFCURVE",
"641 248 OFFCURVE",
"582 248 CURVE SMOOTH",
"453 248 OFFCURVE",
"411 346 OFFCURVE",
"411 518 CURVE SMOOTH",
"411 539 LINE SMOOTH",
"411 658 OFFCURVE",
"432 748 OFFCURVE",
"482 797 CURVE SMOOTH",
"507 821 OFFCURVE",
"540 833 OFFCURVE",
"582 833 CURVE SMOOTH",
"641 833 OFFCURVE",
"691 808 OFFCURVE",
"720 760 CURVE",
"720 307 LINE"
);
}
);
width = 1224;
}
);
note = g;
unicode = 0067;
},
{
glyphname = h;
lastChange = "2021-05-27 10:38:11 +0000";
layers = (
{
layerId = "E37246A9-A376-4020-9DA5-E0C9FF7935B5";
paths = (
{
closed = 1;
nodes = (
"279 54 LINE",
"279 676 LINE",
"311 893 OFFCURVE",
"431 1048 OFFCURVE",
"664 1048 CURVE SMOOTH",
"839 1048 OFFCURVE",
"952 944 OFFCURVE",
"952 660 CURVE SMOOTH",
"952 54 LINE",
"789 54 LINE",
"789 0 LINE",
"1170 0 LINE",
"1170 54 LINE",
"1007 54 LINE",
"1007 658 LINE SMOOTH",
"1007 965 OFFCURVE",
"888 1102 OFFCURVE",
"663 1102 CURVE SMOOTH",
"476 1102 OFFCURVE",
"346 1011 OFFCURVE",
"279 854 CURVE",
"279 1560 LINE",
"62 1560 LINE",
"62 1506 LINE",
"225 1506 LINE",
"225 54 LINE",
"62 54 LINE",
"62 0 LINE",
"442 0 LINE",
"442 54 LINE"
);
}
);
width = 1278;
},
{
layerId = "142AFF07-46EF-45A1-8A7E-F20FA79F7038";
paths = (
{
closed = 1;
nodes = (
"339 100 LINE",
"339 733 LINE",
"383 890 OFFCURVE",
"489 999 OFFCURVE",
"665 999 CURVE SMOOTH",
"829 999 OFFCURVE",
"926 905 OFFCURVE",
"926 669 CURVE SMOOTH",
"926 100 LINE",
"763 87 LINE",
"763 0 LINE",
"1209 0 LINE",
"1209 87 LINE",
"1046 100 LINE",
"1046 667 LINE SMOOTH",
"1046 966 OFFCURVE",
"920 1102 OFFCURVE",
"692 1102 CURVE SMOOTH",
"531 1102 OFFCURVE",
"410 1025 OFFCURVE",
"339 893 CURVE",
"339 1560 LINE",
"56 1560 LINE",
"56 1472 LINE",
"219 1459 LINE",
"219 100 LINE",
"56 87 LINE",
"56 0 LINE",
"502 0 LINE",
"502 87 LINE"
);
}
);
width = 1295;
},
{
layerId = "1A30CC2E-2F0E-43C1-8400-CBCC094AAC97";
paths = (
{
closed = 1;
nodes = (
"409 799 LINE",
"466 887 OFFCURVE",
"558 942 OFFCURVE",
"666 942 CURVE SMOOTH",
"818 942 OFFCURVE",
"895 859 OFFCURVE",
"895 680 CURVE SMOOTH",
"895 154 LINE",
"732 126 LINE",
"732 0 LINE",
"1255 0 LINE",
"1255 126 LINE",
"1092 154 LINE",
"1092 678 LINE SMOOTH",
"1092 966 OFFCURVE",
"958 1102 OFFCURVE",
"726 1102 CURVE SMOOTH",
"594 1102 OFFCURVE",
"484 1042 OFFCURVE",
"409 938 CURVE",
"409 1560 LINE",
"49 1560 LINE",
"49 1433 LINE",
"212 1405 LINE",
"212 154 LINE",
"49 126 LINE",
"49 0 LINE",
"572 0 LINE",
"572 126 LINE",
"409 154 LINE"
);
}
);
userData = {
assembly = "NPUSHB[ ]	/* 50 values pushed */\0125 4 2 2 1 29 28 27 20 19 16 15 8 3 2 10 0 4 2 76 0 1 1 33 77 0 4 4 2 97 0 2 2 40 77 3 1 0 0 32 0 78 37 21 35 21 16 5 8 27 \012CALL[ ]	/* CallFunction */";
};
width = 1315;
},
{
layerId = "E08E4BD2-F9DD-4A22-B137-462FE0EF4830";
paths = (
{
closed = 1;
nodes = (
"479 205 LINE",
"479 779 LINE",
"520 842 OFFCURVE",
"587 875 OFFCURVE",
"666 875 CURVE SMOOTH",
"779 875 OFFCURVE",
"839 816 OFFCURVE",
"839 660 CURVE SMOOTH",
"839 205 LINE",
"713 175 LINE",
"713 0 LINE",
"1271 0 LINE",
"1271 175 LINE",
"1131 205 LINE",
"1131 658 LINE SMOOTH",
"1131 961 OFFCURVE",
"994 1102 OFFCURVE",
"777 1102 CURVE SMOOTH",
"649 1102 OFFCURVE",
"547 1044 OFFCURVE",
"479 944 CURVE",
"479 1560 LINE",
"32 1560 LINE",
"32 1384 LINE",
"188 1354 LINE",
"188 205 LINE",
"47 175 LINE",
"47 0 LINE",
"605 0 LINE",
"605 175 LINE"
);
}
);
width = 1302;
},
{
layerId = "3540F6DD-AC2C-489F-A09A-29A5B6885314";
paths = (
{
closed = 1;
nodes = (
"522 237 LINE",
"522 766 LINE",
"554 813 OFFCURVE",
"605 833 OFFCURVE",
"666 833 CURVE SMOOTH",
"755 833 OFFCURVE",
"804 789 OFFCURVE",
"804 648 CURVE SMOOTH",
"804 237 LINE",
"701 205 LINE",
"701 0 LINE",
"1281 0 LINE",
"1281 205 LINE",
"1155 237 LINE",
"1155 646 LINE SMOOTH",
"1155 957 OFFCURVE",
"1017 1102 OFFCURVE",
"809 1102 CURVE SMOOTH",
"682 1102 OFFCURVE",
"586 1045 OFFCURVE",
"522 948 CURVE",
"522 1560 LINE",
"21 1560 LINE",
"21 1354 LINE",
"173 1322 LINE",
"173 237 LINE",
"46 205 LINE",
"46 0 LINE",
"625 0 LINE",
"625 205 LINE"
);
}
);
width = 1294;
}
);
note = h;
unicode = 0068;
},
{
glyphname = i;
lastChange = "2021-05-27 10:38:11 +0000";
layers = (
{
layerId = "E37246A9-A376-4020-9DA5-E0C9FF7935B5";
paths = (
{
closed = 1;
nodes = (
"234 1560 LINE",
"234 1420 LINE",
"306 1420 LINE",
"306 1560 LINE"
);
},
{
closed = 1;
nodes = (
"306 54 LINE",
"306 1082 LINE",
"89 1082 LINE",
"89 1028 LINE",
"252 1028 LINE",
"252 54 LINE",
"89 54 LINE",
"89 0 LINE",
"469 0 LINE",
"469 54 LINE"
);
}
);
width = 609;
},
{
layerId = "142AFF07-46EF-45A1-8A7E-F20FA79F7038";
paths = (
{
closed = 1;
nodes = (
"228 1560 LINE",
"228 1387 LINE",
"362 1387 LINE",
"362 1560 LINE"
);
},
{
closed = 1;
nodes = (
"362 100 LINE",
"362 1082 LINE",
"79 1082 LINE",
"79 994 LINE",
"242 981 LINE",
"242 100 LINE",
"79 87 LINE",
"79 0 LINE",
"525 0 LINE",
"525 87 LINE"
);
}
);
width = 629;
},
{
layerId = "1A30CC2E-2F0E-43C1-8400-CBCC094AAC97";
paths = (
{
closed = 1;
nodes = (
"427 1349 LINE",
"427 1560 LINE",
"220 1560 LINE",
"220 1349 LINE"
);
},
{
closed = 1;
nodes = (
"67 1082 LINE",
"67 955 LINE",
"230 927 LINE",
"230 154 LINE",
"67 126 LINE",
"67 0 LINE",
"590 0 LINE",
"590 126 LINE",
"427 154 LINE",
"427 1082 LINE"
);
}
);
userData = {
assembly = "NPUSHB[ ]	/* 47 values pushed */\01213 10 9 8 7 4 6 2 3 1 76 0 0 0 1 95 4 1 1 1 33 77 0 3 3 34 77 0 2 2 32 2 78 0 0 12 11 6 5 0 3 0 3 17 5 8 23 \012CALL[ ]	/* CallFunction */";
};
width = 652;
},
{
layerId = "E08E4BD2-F9DD-4A22-B137-462FE0EF4830";
paths = (
{
closed = 1;
nodes = (
"185 1560 LINE",
"185 1311 LINE",
"487 1311 LINE",
"487 1560 LINE"
);
},
{
closed = 1;
nodes = (
"487 205 LINE",
"487 1082 LINE",
"39 1082 LINE",
"39 906 LINE",
"195 876 LINE",
"195 205 LINE",
"54 175 LINE",
"54 0 LINE",
"627 0 LINE",
"627 175 LINE"
);
}
);
width = 661;
},
{
layerId = "3540F6DD-AC2C-489F-A09A-29A5B6885314";
paths = (
{
closed = 1;
nodes = (
"163 1560 LINE",
"163 1287 LINE",
"524 1287 LINE",
"524 1560 LINE"
);
},
{
closed = 1;
nodes = (
"524 237 LINE",
"524 1082 LINE",
"22 1082 LINE",
"22 876 LINE",
"173 844 LINE",
"173 237 LINE",
"46 205 LINE",
"46 0 LINE",
"650 0 LINE",
"650 205 LINE"
);
}
);
width = 667;
}
);
note = i;
unicode = 0069;
},
{
glyphname = j;
lastChange = "2021-05-27 10:38:11 +0000";
layers = (
{
layerId = "E37246A9-A376-4020-9DA5-E0C9FF7935B5";
paths = (
{
closed = 1;
nodes = (
"315 1560 LINE",
"315 1420 LINE",
"387 1420 LINE",
"387 1560 LINE"
);
},
{
closed = 1;
nodes = (
"288 -437 OFFCURVE",
"393 -312 OFFCURVE",
"393 -89 CURVE SMOOTH",
"393 1082 LINE",
"176 1082 LINE",
"176 1028 LINE",
"339 1028 LINE",
"339 -89 LINE SMOOTH",
"339 -277 OFFCURVE",
"255 -383 OFFCURVE",
"108 -383 CURVE SMOOTH",
"73 -383 OFFCURVE",
"33 -373 OFFCURVE",
"9 -365 CURVE",
"-4 -417 LINE",
"36 -430 OFFCURVE",
"68 -437 OFFCURVE",
"108 -437 CURVE SMOOTH"
);
}
);
width = 563;
},
{
layerId = "142AFF07-46EF-45A1-8A7E-F20FA79F7038";
paths = (
{
closed = 1;
nodes = (
"250 1560 LINE",
"250 1387 LINE",
"384 1387 LINE",
"384 1560 LINE"
);
},
{
closed = 1;
nodes = (
"275 -437 OFFCURVE",
"387 -312 OFFCURVE",
"387 -89 CURVE SMOOTH",
"387 1082 LINE",
"104 1082 LINE",
"104 994 LINE",
"267 981 LINE",
"267 -89 LINE SMOOTH",
"267 -245 OFFCURVE",
"199 -336 OFFCURVE",
"84 -336 CURVE SMOOTH",
"55 -336 OFFCURVE",
"6 -328 OFFCURVE",
"-15 -321 CURVE",
"-28 -418 LINE",
"11 -430 OFFCURVE",
"43 -437 OFFCURVE",
"84 -437 CURVE SMOOTH"
);
}
);
width = 545;
},
{
layerId = "1A30CC2E-2F0E-43C1-8400-CBCC094AAC97";
paths = (
{
closed = 1;
nodes = (
"381 1349 LINE",
"381 1560 LINE",
"174 1560 LINE",
"174 1349 LINE"
);
},
{
closed = 1;
nodes = (
"260 -437 OFFCURVE",
"381 -312 OFFCURVE",
"381 -89 CURVE SMOOTH",
"381 1082 LINE",
"21 1082 LINE",
"21 955 LINE",
"184 927 LINE",
"184 -89 LINE SMOOTH",
"184 -209 OFFCURVE",
"135 -282 OFFCURVE",
"56 -282 CURVE SMOOTH",
"32 -282 OFFCURVE",
"-24 -276 OFFCURVE",
"-43 -269 CURVE",
"-56 -419 LINE",
"-19 -431 OFFCURVE",
"13 -437 OFFCURVE",
"56 -437 CURVE SMOOTH"
);
}
);
userData = {
assembly = "NPUSHB[ ]	/* 61 values pushed */\01212 11 4 3 1 2 3 1 0 1 2 76 0 3 3 4 95 6 1 4 4 33 77 0 2 2 34 77 0 1 1 0 98 5 1 0 0 42 0 78 18 18 1 0 18 21 18 21 20 19 14 13 8 6 0 17 1 17 7 8 22 \012CALL[ ]	/* CallFunction */";
};
width = 525;
},
{
layerId = "E08E4BD2-F9DD-4A22-B137-462FE0EF4830";
paths = (
{
closed = 1;
nodes = (
"181 1560 LINE",
"181 1311 LINE",
"483 1311 LINE",
"483 1560 LINE"
);
},
{
closed = 1;
nodes = (
"345 -437 OFFCURVE",
"486 -295 OFFCURVE",
"486 -40 CURVE SMOOTH",
"486 1082 LINE",
"39 1082 LINE",
"39 906 LINE",
"195 876 LINE",
"195 -40 LINE SMOOTH",
"195 -149 OFFCURVE",
"150 -212 OFFCURVE",
"74 -212 CURVE SMOOTH",
"38 -212 OFFCURVE",
"5 -207 OFFCURVE",
"-24 -199 CURVE",
"-39 -420 LINE",
"9 -432 OFFCURVE",
"50 -437 OFFCURVE",
"105 -437 CURVE SMOOTH"
);
}
);
width = 600;
},
{
layerId = "3540F6DD-AC2C-489F-A09A-29A5B6885314";
paths = (
{
closed = 1;
nodes = (
"186 1560 LINE",
"186 1287 LINE",
"547 1287 LINE",
"547 1560 LINE"
);
},
{
closed = 1;
nodes = (
"399 -437 OFFCURVE",
"551 -283 OFFCURVE",
"551 -10 CURVE SMOOTH",
"551 1082 LINE",
"50 1082 LINE",
"50 876 LINE",
"202 844 LINE",
"202 -10 LINE SMOOTH",
"202 -111 OFFCURVE",
"160 -169 OFFCURVE",
"85 -169 CURVE SMOOTH",
"42 -169 OFFCURVE",
"23 -164 OFFCURVE",
"-12 -156 CURVE",
"-28 -421 LINE",
"27 -433 OFFCURVE",
"73 -437 OFFCURVE",
"136 -437 CURVE SMOOTH"
);
}
);
width = 647;
}
);
note = j;
unicode = 006A;
},
{
glyphname = k;
lastChange = "2021-05-27 10:38:11 +0000";
layers = (
{
layerId = "E37246A9-A376-4020-9DA5-E0C9FF7935B5";
paths = (
{
closed = 1;
nodes = (
"916 1028 LINE",
"1038 1028 LINE",
"1038 1082 LINE",
"717 1082 LINE",
"717 1028 LINE",
"836 1028 LINE",
"838 1022 LINE",
"279 430 LINE",
"279 1560 LINE",
"62 1560 LINE",
"62 1506 LINE",
"225 1506 LINE",
"225 54 LINE",
"62 54 LINE",
"62 0 LINE",
"442 0 LINE",
"442 54 LINE",
"279 54 LINE",
"279 357 LINE",
"504 594 LINE",
"889 59 LINE",
"887 54 LINE",
"761 54 LINE",
"761 0 LINE",
"1081 0 LINE",
"1081 54 LINE",
"964 54 LINE",
"540 632 LINE"
);
}
);
width = 1154;
},
{
layerId = "142AFF07-46EF-45A1-8A7E-F20FA79F7038";
paths = (
{
closed = 1;
nodes = (
"965 982 LINE",
"1095 994 LINE",
"1095 1082 LINE",
"707 1082 LINE",
"707 994 LINE",
"825 988 LINE",
"824 982 LINE",
"346 488 LINE",
"346 1560 LINE",
"63 1560 LINE",
"63 1472 LINE",
"226 1459 LINE",
"226 100 LINE",
"63 87 LINE",
"63 0 LINE",
"509 0 LINE",
"509 87 LINE",
"346 100 LINE",
"346 343 LINE",
"545 548 LINE",
"878 98 LINE",
"879 93 LINE",
"760 87 LINE",
"760 0 LINE",
"1158 0 LINE",
"1158 87 LINE",
"1023 98 LINE",
"622 628 LINE"
);
}
);
width = 1215;
},
{
layerId = "1A30CC2E-2F0E-43C1-8400-CBCC094AAC97";
paths = (
{
closed = 1;
nodes = (
"1162 1082 LINE",
"696 1082 LINE",
"696 955 LINE",
"812 942 LINE",
"807 936 LINE",
"424 555 LINE",
"424 1560 LINE",
"64 1560 LINE",
"64 1433 LINE",
"227 1405 LINE",
"227 154 LINE",
"64 126 LINE",
"64 0 LINE",
"587 0 LINE",
"587 126 LINE",
"424 154 LINE",
"424 327 LINE",
"592 496 LINE",
"866 143 LINE",
"869 139 LINE",
"759 126 LINE",
"759 0 LINE",
"1248 0 LINE",
"1248 126 LINE",
"1092 150 LINE",
"719 623 LINE",
"1023 929 LINE",
"1162 955 LINE"
);
}
);
userData = {
assembly = "NPUSHB[ ]	/* 47 values pushed */\01217 16 2 3 2 26 23 21 20 15 14 11 10 9 8 6 5 2 13 0 3 2 76 0 2 2 33 77 0 3 3 34 77 1 1 0 0 32 0 78 21 21 24 19 4 8 26 \012CALL[ ]	/* CallFunction */";
};
width = 1287;
},
{
layerId = "E08E4BD2-F9DD-4A22-B137-462FE0EF4830";
paths = (
{
closed = 1;
nodes = (
"1092 871 LINE",
"1232 906 LINE",
"1232 1082 LINE",
"669 1082 LINE",
"669 908 LINE",
"780 892 LINE",
"778 889 LINE",
"479 615 LINE",
"479 1560 LINE",
"32 1560 LINE",
"32 1384 LINE",
"188 1354 LINE",
"188 205 LINE",
"47 175 LINE",
"47 0 LINE",
"605 0 LINE",
"605 175 LINE",
"479 205 LINE",
"479 324 LINE",
"623 452 LINE",
"816 189 LINE",
"818 185 LINE",
"736 166 LINE",
"736 0 LINE",
"1277 0 LINE",
"1277 175 LINE",
"1143 206 LINE",
"820 629 LINE"
);
}
);
width = 1316;
},
{
layerId = "3540F6DD-AC2C-489F-A09A-29A5B6885314";
paths = (
{
closed = 1;
nodes = (
"1135 835 LINE",
"1275 876 LINE",
"1275 1082 LINE",
"652 1082 LINE",
"652 879 LINE",
"760 861 LINE",
"760 860 LINE",
"513 646 LINE",
"513 1560 LINE",
"12 1560 LINE",
"12 1354 LINE",
"164 1322 LINE",
"164 237 LINE",
"36 205 LINE",
"36 0 LINE",
"616 0 LINE",
"616 205 LINE",
"513 237 LINE",
"513 319 LINE",
"641 425 LINE",
"785 218 LINE",
"787 214 LINE",
"721 191 LINE",
"721 0 LINE",
"1295 0 LINE",
"1295 205 LINE",
"1174 241 LINE",
"886 629 LINE"
);
}
);
width = 1334;
}
);
note = k;
unicode = 006B;
},
{
glyphname = l;
lastChange = "2021-05-27 10:38:11 +0000";
layers = (
{
layerId = "E37246A9-A376-4020-9DA5-E0C9FF7935B5";
paths = (
{
closed = 1;
nodes = (
"299 54 LINE",
"299 1560 LINE",
"82 1560 LINE",
"82 1506 LINE",
"245 1506 LINE",
"245 54 LINE",
"82 54 LINE",
"82 0 LINE",
"462 0 LINE",
"462 54 LINE"
);
}
);
width = 581;
},
{
layerId = "142AFF07-46EF-45A1-8A7E-F20FA79F7038";
paths = (
{
closed = 1;
nodes = (
"357 100 LINE",
"357 1560 LINE",
"74 1560 LINE",
"74 1472 LINE",
"237 1459 LINE",
"237 100 LINE",
"74 87 LINE",
"74 0 LINE",
"520 0 LINE",
"520 87 LINE"
);
}
);
width = 614;
},
{
layerId = "1A30CC2E-2F0E-43C1-8400-CBCC094AAC97";
paths = (
{
closed = 1;
nodes = (
"64 1560 LINE",
"64 1433 LINE",
"227 1405 LINE",
"227 154 LINE",
"64 126 LINE",
"64 0 LINE",
"587 0 LINE",
"587 126 LINE",
"424 154 LINE",
"424 1560 LINE"
);
}
);
userData = {
assembly = "NPUSHB[ ]	/* 27 values pushed */\0129 6 5 4 3 0 6 0 1 1 76 0 1 1 33 77 0 0 0 32 0 78 21 17 2 8 24 \012CALL[ ]	/* CallFunction */";
};
width = 653;
},
{
layerId = "E08E4BD2-F9DD-4A22-B137-462FE0EF4830";
paths = (
{
closed = 1;
nodes = (
"480 205 LINE",
"480 1560 LINE",
"32 1560 LINE",
"32 1384 LINE",
"188 1354 LINE",
"188 205 LINE",
"47 175 LINE",
"47 0 LINE",
"621 0 LINE",
"621 175 LINE"
);
}
);
width = 653;
},
{
layerId = "3540F6DD-AC2C-489F-A09A-29A5B6885314";
paths = (
{
closed = 1;
nodes = (
"515 237 LINE",
"515 1560 LINE",
"12 1560 LINE",
"12 1354 LINE",
"164 1322 LINE",
"164 237 LINE",
"36 205 LINE",
"36 0 LINE",
"642 0 LINE",
"642 205 LINE"
);
}
);
width = 653;
}
);
note = l;
unicode = 006C;
},
{
glyphname = m;
lastChange = "2021-05-27 10:38:11 +0000";
layers = (
{
layerId = "E37246A9-A376-4020-9DA5-E0C9FF7935B5";
paths = (
{
closed = 1;
nodes = (
"307 54 LINE",
"307 694 LINE",
"339 903 OFFCURVE",
"449 1048 OFFCURVE",
"673 1048 CURVE SMOOTH",
"861 1048 OFFCURVE",
"982 934 OFFCURVE",
"982 619 CURVE SMOOTH",
"982 54 LINE",
"819 54 LINE",
"819 0 LINE",
"1200 0 LINE",
"1200 54 LINE",
"1037 54 LINE",
"1037 682 LINE",
"1064 895 OFFCURVE",
"1176 1049 OFFCURVE",
"1405 1049 CURVE SMOOTH",
"1592 1049 OFFCURVE",
"1713 933 OFFCURVE",
"1713 620 CURVE SMOOTH",
"1713 55 LINE",
"1550 55 LINE",
"1550 1 LINE",
"1931 1 LINE",
"1931 55 LINE",
"1768 55 LINE",
"1768 618 LINE SMOOTH",
"1768 953 OFFCURVE",
"1642 1103 OFFCURVE",
"1403 1103 CURVE SMOOTH",
"1208 1103 OFFCURVE",
"1076 994 OFFCURVE",
"1019 810 CURVE",
"975 1009 OFFCURVE",
"858 1102 OFFCURVE",
"671 1102 CURVE SMOOTH",
"495 1102 OFFCURVE",
"371 1012 OFFCURVE",
"306 859 CURVE",
"299 1082 LINE",
"89 1082 LINE",
"89 1028 LINE",
"252 1028 LINE",
"252 54 LINE",
"89 54 LINE",
"89 0 LINE",
"470 0 LINE",
"470 54 LINE"
);
}
);
width = 1980;
},
{
layerId = "142AFF07-46EF-45A1-8A7E-F20FA79F7038";
paths = (
{
closed = 1;
nodes = (
"366 100 LINE",
"366 743 LINE",
"402 898 OFFCURVE",
"496 999 OFFCURVE",
"672 999 CURVE SMOOTH",
"839 999 OFFCURVE",
"940 896 OFFCURVE",
"940 633 CURVE SMOOTH",
"940 100 LINE",
"777 87 LINE",
"777 0 LINE",
"1224 0 LINE",
"1224 87 LINE",
"1061 100 LINE",
"1061 684 LINE",
"1081 867 OFFCURVE",
"1181 1000 OFFCURVE",
"1369 1000 CURVE SMOOTH",
"1536 1000 OFFCURVE",
"1635 901 OFFCURVE",
"1635 633 CURVE SMOOTH",
"1635 101 LINE",
"1472 88 LINE",
"1472 1 LINE",
"1919 1 LINE",
"1919 88 LINE",
"1756 101 LINE",
"1756 631 LINE SMOOTH",
"1756 952 OFFCURVE",
"1625 1103 OFFCURVE",
"1394 1103 CURVE SMOOTH",
"1221 1103 OFFCURVE",
"1096 1008 OFFCURVE",
"1035 852 CURVE",
"987 1021 OFFCURVE",
"875 1102 OFFCURVE",
"708 1102 CURVE SMOOTH",
"547 1102 OFFCURVE",
"429 1026 OFFCURVE",
"362 897 CURVE",
"352 1082 LINE",
"82 1082 LINE",
"82 994 LINE",
"245 981 LINE",
"245 100 LINE",
"82 87 LINE",
"82 0 LINE",
"529 0 LINE",
"529 87 LINE"
);
}
);
width = 1979;
},
{
layerId = "1A30CC2E-2F0E-43C1-8400-CBCC094AAC97";
paths = (
{
closed = 1;
nodes = (
"434 801 LINE",
"475 890 OFFCURVE",
"551 942 OFFCURVE",
"671 942 CURVE SMOOTH",
"814 942 OFFCURVE",
"891 852 OFFCURVE",
"891 649 CURVE SMOOTH",
"891 154 LINE",
"728 126 LINE",
"728 0 LINE",
"1251 0 LINE",
"1251 126 LINE",
"1088 154 LINE",
"1088 687 LINE",
"1101 834 OFFCURVE",
"1189 942 OFFCURVE",
"1326 942 CURVE SMOOTH",
"1470 942 OFFCURVE",
"1544 862 OFFCURVE",
"1544 649 CURVE SMOOTH",
"1544 154 LINE",
"1381 126 LINE",
"1381 0 LINE",
"1905 0 LINE",
"1905 126 LINE",
"1742 154 LINE",
"1742 647 LINE SMOOTH",
"1742 951 OFFCURVE",
"1605 1102 OFFCURVE",
"1384 1102 CURVE SMOOTH",
"1235 1102 OFFCURVE",
"1121 1025 OFFCURVE",
"1053 902 CURVE",
"1001 1035 OFFCURVE",
"895 1102 OFFCURVE",
"751 1102 CURVE SMOOTH",
"607 1102 OFFCURVE",
"496 1044 OFFCURVE",
"427 941 CURVE",
"414 1082 LINE",
"74 1082 LINE",
"74 955 LINE",
"237 927 LINE",
"237 154 LINE",
"74 126 LINE",
"74 0 LINE",
"597 0 LINE",
"597 126 LINE",
"434 154 LINE"
);
}
);
userData = {
assembly = "NPUSHB[ ]	/* 26 values pushed */\0125 1 5 1 48 47 46 39 38 35 34 33 26 25 22 21 14 8 4 3 2 17 0 5 2 76 \012MPPEM[ ]	/* MeasurePixelPerEm */\012PUSHB[ ]	/* 1 value pushed */\01225 \012LT[ ]	/* LessThan */\012IF[ ]	/* If */\012NPUSHB[ ]	/* 21 values pushed */\0127 1 5 5 1 97 3 2 2 1 1 34 77 6 4 2 0 0 32 0 78 \012ELSE[ ]	/* Else */\012NPUSHB[ ]	/* 25 values pushed */\0120 1 1 34 77 7 1 5 5 2 97 3 1 2 2 40 77 6 4 2 0 0 32 0 78 \012EIF[ ]	/* EndIf */\012NPUSHB[ ]	/* 11 values pushed */\01237 21 37 21 36 35 21 16 8 8 30 \012CALL[ ]	/* CallFunction */";
};
width = 1977;
},
{
layerId = "E08E4BD2-F9DD-4A22-B137-462FE0EF4830";
paths = (
{
closed = 1;
nodes = (
"484 205 LINE",
"484 778 LINE",
"523 841 OFFCURVE",
"582 875 OFFCURVE",
"665 875 CURVE SMOOTH",
"768 875 OFFCURVE",
"821 818 OFFCURVE",
"821 662 CURVE SMOOTH",
"821 205 LINE",
"703 175 LINE",
"703 0 LINE",
"1230 0 LINE",
"1230 175 LINE",
"1112 205 LINE",
"1112 735 LINE",
"1140 819 OFFCURVE",
"1204 875 OFFCURVE",
"1295 875 CURVE SMOOTH",
"1395 875 OFFCURVE",
"1449 822 OFFCURVE",
"1449 662 CURVE SMOOTH",
"1449 205 LINE",
"1323 175 LINE",
"1323 0 LINE",
"1882 0 LINE",
"1882 175 LINE",
"1741 205 LINE",
"1741 661 LINE SMOOTH",
"1741 958 OFFCURVE",
"1609 1102 OFFCURVE",
"1396 1102 CURVE SMOOTH",
"1252 1102 OFFCURVE",
"1145 1033 OFFCURVE",
"1078 917 CURVE",
"1029 1041 OFFCURVE",
"927 1102 OFFCURVE",
"788 1102 CURVE SMOOTH",
"651 1102 OFFCURVE",
"545 1043 OFFCURVE",
"476 939 CURVE",
"464 1082 LINE",
"37 1082 LINE",
"37 906 LINE",
"193 876 LINE",
"193 205 LINE",
"52 175 LINE",
"52 0 LINE",
"610 0 LINE",
"610 175 LINE"
);
}
);
width = 1917;
},
{
layerId = "3540F6DD-AC2C-489F-A09A-29A5B6885314";
paths = (
{
closed = 1;
nodes = (
"515 237 LINE",
"515 764 LINE",
"552 809 OFFCURVE",
"602 833 OFFCURVE",
"662 833 CURVE SMOOTH",
"739 833 OFFCURVE",
"778 797 OFFCURVE",
"778 670 CURVE SMOOTH",
"778 237 LINE",
"688 205 LINE",
"688 0 LINE",
"1217 0 LINE",
"1217 205 LINE",
"1127 237 LINE",
"1127 765 LINE",
"1164 809 OFFCURVE",
"1214 833 OFFCURVE",
"1275 833 CURVE SMOOTH",
"1350 833 OFFCURVE",
"1390 797 OFFCURVE",
"1390 670 CURVE SMOOTH",
"1390 237 LINE",
"1287 205 LINE",
"1287 0 LINE",
"1868 0 LINE",
"1868 205 LINE",
"1740 237 LINE",
"1740 670 LINE SMOOTH",
"1740 963 OFFCURVE",
"1612 1102 OFFCURVE",
"1403 1102 CURVE SMOOTH",
"1263 1102 OFFCURVE",
"1159 1038 OFFCURVE",
"1094 926 CURVE",
"1045 1045 OFFCURVE",
"946 1102 OFFCURVE",
"811 1102 CURVE SMOOTH",
"678 1102 OFFCURVE",
"577 1042 OFFCURVE",
"506 938 CURVE",
"495 1082 LINE",
"14 1082 LINE",
"14 876 LINE",
"166 844 LINE",
"166 237 LINE",
"38 205 LINE",
"38 0 LINE",
"618 0 LINE",
"618 205 LINE"
);
}
);
width = 1880;
}
);
note = m;
unicode = 006D;
},
{
glyphname = n;
lastChange = "2021-05-27 10:38:11 +0000";
layers = (
{
layerId = "E37246A9-A376-4020-9DA5-E0C9FF7935B5";
paths = (
{
closed = 1;
nodes = (
"306 54 LINE",
"306 676 LINE",
"335 893 OFFCURVE",
"448 1048 OFFCURVE",
"681 1048 CURVE SMOOTH",
"865 1048 OFFCURVE",
"980 939 OFFCURVE",
"980 639 CURVE SMOOTH",
"980 54 LINE",
"817 54 LINE",
"817 0 LINE",
"1197 0 LINE",
"1197 54 LINE",
"1034 54 LINE",
"1034 637 LINE SMOOTH",
"1034 960 OFFCURVE",
"916 1102 OFFCURVE",
"680 1102 CURVE SMOOTH",
"496 1102 OFFCURVE",
"370 1014 OFFCURVE",
"305 859 CURVE",
"298 1082 LINE",
"89 1082 LINE",
"89 1028 LINE",
"252 1028 LINE",
"252 54 LINE",
"89 54 LINE",
"89 0 LINE",
"469 0 LINE",
"469 54 LINE"
);
}
);
width = 1320;
},
{
layerId = "142AFF07-46EF-45A1-8A7E-F20FA79F7038";
paths = (
{
closed = 1;
nodes = (
"365 100 LINE",
"365 728 LINE",
"405 889 OFFCURVE",
"506 999 OFFCURVE",
"685 999 CURVE SMOOTH",
"856 999 OFFCURVE",
"951 908 OFFCURVE",
"951 657 CURVE SMOOTH",
"951 100 LINE",
"788 87 LINE",
"788 0 LINE",
"1234 0 LINE",
"1234 87 LINE",
"1071 100 LINE",
"1071 658 LINE SMOOTH",
"1071 963 OFFCURVE",
"946 1102 OFFCURVE",
"711 1102 CURVE SMOOTH",
"548 1102 OFFCURVE",
"430 1024 OFFCURVE",
"361 888 CURVE",
"351 1082 LINE",
"82 1082 LINE",
"82 994 LINE",
"245 981 LINE",
"245 100 LINE",
"82 87 LINE",
"82 0 LINE",
"528 0 LINE",
"528 87 LINE"
);
}
);
width = 1331;
},
{
layerId = "1A30CC2E-2F0E-43C1-8400-CBCC094AAC97";
paths = (
{
closed = 1;
nodes = (
"434 789 LINE",
"486 884 OFFCURVE",
"576 942 OFFCURVE",
"689 942 CURVE SMOOTH",
"844 942 OFFCURVE",
"918 870 OFFCURVE",
"918 679 CURVE SMOOTH",
"918 154 LINE",
"755 126 LINE",
"755 0 LINE",
"1278 0 LINE",
"1278 126 LINE",
"1115 154 LINE",
"1115 683 LINE SMOOTH",
"1115 968 OFFCURVE",
"981 1102 OFFCURVE",
"748 1102 CURVE SMOOTH",
"609 1102 OFFCURVE",
"499 1036 OFFCURVE",
"427 921 CURVE",
"413 1082 LINE",
"74 1082 LINE",
"74 955 LINE",
"237 927 LINE",
"237 154 LINE",
"74 126 LINE",
"74 0 LINE",
"597 0 LINE",
"597 126 LINE",
"434 154 LINE"
);
}
);
userData = {
assembly = "NPUSHB[ ]	/* 20 values pushed */\0125 1 4 1 29 28 27 20 19 16 15 8 4 3 2 11 0 4 2 76 \012MPPEM[ ]	/* MeasurePixelPerEm */\012PUSHB[ ]	/* 1 value pushed */\01225 \012LT[ ]	/* LessThan */\012IF[ ]	/* If */\012NPUSHB[ ]	/* 18 values pushed */\0120 4 4 1 97 2 1 1 1 34 77 3 1 0 0 32 0 78 \012ELSE[ ]	/* Else */\012NPUSHB[ ]	/* 22 values pushed */\0120 1 1 34 77 0 4 4 2 97 0 2 2 40 77 3 1 0 0 32 0 78 \012EIF[ ]	/* EndIf */\012PUSHB[ ]	/* 8 values pushed */\01237 21 35 21 16 5 8 27 \012CALL[ ]	/* CallFunction */";
};
width = 1343;
},
{
layerId = "E08E4BD2-F9DD-4A22-B137-462FE0EF4830";
paths = (
{
closed = 1;
nodes = (
"484 205 LINE",
"484 773 LINE",
"525 838 OFFCURVE",
"587 875 OFFCURVE",
"671 875 CURVE SMOOTH",
"784 875 OFFCURVE",
"842 820 OFFCURVE",
"842 675 CURVE SMOOTH",
"842 205 LINE",
"717 175 LINE",
"717 0 LINE",
"1275 0 LINE",
"1275 175 LINE",
"1135 205 LINE",
"1135 676 LINE SMOOTH",
"1135 969 OFFCURVE",
"1007 1102 OFFCURVE",
"792 1102 CURVE SMOOTH",
"656 1102 OFFCURVE",
"549 1038 OFFCURVE",
"477 927 CURVE",
"464 1082 LINE",
"37 1082 LINE",
"37 906 LINE",
"192 876 LINE",
"192 205 LINE",
"52 175 LINE",
"52 0 LINE",
"602 0 LINE",
"602 175 LINE"
);
}
);
width = 1307;
},
{
layerId = "3540F6DD-AC2C-489F-A09A-29A5B6885314";
paths = (
{
closed = 1;
nodes = (
"515 237 LINE",
"515 763 LINE",
"550 810 OFFCURVE",
"595 833 OFFCURVE",
"660 833 CURVE SMOOTH",
"747 833 OFFCURVE",
"795 789 OFFCURVE",
"795 673 CURVE SMOOTH",
"795 237 LINE",
"693 205 LINE",
"693 0 LINE",
"1273 0 LINE",
"1273 205 LINE",
"1147 237 LINE",
"1147 672 LINE SMOOTH",
"1147 971 OFFCURVE",
"1022 1102 OFFCURVE",
"819 1102 CURVE SMOOTH",
"686 1102 OFFCURVE",
"580 1039 OFFCURVE",
"508 931 CURVE",
"496 1082 LINE",
"14 1082 LINE",
"14 876 LINE",
"164 844 LINE",
"164 237 LINE",
"38 205 LINE",
"38 0 LINE",
"605 0 LINE",
"605 205 LINE"
);
}
);
width = 1285;
}
);
note = n;
unicode = 006E;
},
{
glyphname = o;
lastChange = "2021-05-27 10:38:11 +0000";
layers = (
{
layerId = "E37246A9-A376-4020-9DA5-E0C9FF7935B5";
paths = (
{
closed = 1;
nodes = (
"764 -21 OFFCURVE",
"911 76 OFFCURVE",
"991 239 CURVE SMOOTH",
"1031 320 OFFCURVE",
"1051 414 OFFCURVE",
"1051 520 CURVE SMOOTH",
"1051 562 LINE SMOOTH",
"1051 774 OFFCURVE",
"967 941 OFFCURVE",
"825 1033 CURVE SMOOTH",
"754 1079 OFFCURVE",
"671 1102 OFFCURVE",
"577 1102 CURVE SMOOTH",
"390 1102 OFFCURVE",
"244 1005 OFFCURVE",
"164 843 CURVE SMOOTH",
"124 762 OFFCURVE",
"104 668 OFFCURVE",
"104 562 CURVE SMOOTH",
"104 520 LINE SMOOTH",
"104 308 OFFCURVE",
"188 140 OFFCURVE",
"331 48 CURVE SMOOTH",
"402 2 OFFCURVE",
"485 -21 OFFCURVE",
"579 -21 CURVE SMOOTH"
);
},
{
closed = 1;
nodes = (
"407 33 OFFCURVE",
"278 126 OFFCURVE",
"210 274 CURVE SMOOTH",
"175 347 OFFCURVE",
"158 429 OFFCURVE",
"158 520 CURVE SMOOTH",
"158 562 LINE SMOOTH",
"158 739 OFFCURVE",
"230 894 OFFCURVE",
"356 982 CURVE SMOOTH",
"419 1026 OFFCURVE",
"492 1048 OFFCURVE",
"577 1048 CURVE SMOOTH",
"746 1048 OFFCURVE",
"876 953 OFFCURVE",
"945 806 CURVE SMOOTH",
"980 732 OFFCURVE",
"997 651 OFFCURVE",
"997 562 CURVE SMOOTH",
"997 520 LINE SMOOTH",
"997 340 OFFCURVE",
"925 186 OFFCURVE",
"800 99 CURVE SMOOTH",
"737 55 OFFCURVE",
"664 33 OFFCURVE",
"579 33 CURVE SMOOTH"
);
}
);
width = 1155;
},
{
layerId = "142AFF07-46EF-45A1-8A7E-F20FA79F7038";
paths = (
{
closed = 1;
nodes = (
"763 -21 OFFCURVE",
"910 77 OFFCURVE",
"990 241 CURVE SMOOTH",
"1029 323 OFFCURVE",
"1049 417 OFFCURVE",
"1049 524 CURVE SMOOTH",
"1049 557 LINE SMOOTH",
"1049 770 OFFCURVE",
"966 939 OFFCURVE",
"823 1032 CURVE SMOOTH",
"751 1079 OFFCURVE",
"667 1102 OFFCURVE",
"570 1102 CURVE SMOOTH",
"378 1102 OFFCURVE",
"231 1003 OFFCURVE",
"152 839 CURVE SMOOTH",
"112 757 OFFCURVE",
"92 663 OFFCURVE",
"92 557 CURVE SMOOTH",
"92 524 LINE SMOOTH",
"92 312 OFFCURVE",
"175 141 OFFCURVE",
"319 49 CURVE SMOOTH",
"390 2 OFFCURVE",
"475 -21 OFFCURVE",
"572 -21 CURVE SMOOTH"
);
},
{
closed = 1;
nodes = (
"420 79 OFFCURVE",
"311 164 OFFCURVE",
"255 298 CURVE SMOOTH",
"226 365 OFFCURVE",
"212 440 OFFCURVE",
"212 524 CURVE SMOOTH",
"212 557 LINE SMOOTH",
"212 722 OFFCURVE",
"270 863 OFFCURVE",
"378 942 CURVE SMOOTH",
"431 981 OFFCURVE",
"495 1001 OFFCURVE",
"570 1001 CURVE SMOOTH",
"719 1001 OFFCURVE",
"829 917 OFFCURVE",
"886 782 CURVE SMOOTH",
"915 715 OFFCURVE",
"929 640 OFFCURVE",
"929 557 CURVE SMOOTH",
"929 524 LINE SMOOTH",
"929 357 OFFCURVE",
"870 217 OFFCURVE",
"763 138 CURVE SMOOTH",
"710 99 OFFCURVE",
"646 79 OFFCURVE",
"572 79 CURVE SMOOTH"
);
}
);
width = 1141;
},
{
layerId = "1A30CC2E-2F0E-43C1-8400-CBCC094AAC97";
paths = (
{
closed = 1;
nodes = (
"762 -21 OFFCURVE",
"908 78 OFFCURVE",
"987 244 CURVE SMOOTH",
"1026 327 OFFCURVE",
"1046 422 OFFCURVE",
"1046 529 CURVE SMOOTH",
"1046 551 LINE SMOOTH",
"1046 766 OFFCURVE",
"964 936 OFFCURVE",
"820 1031 CURVE SMOOTH",
"747 1078 OFFCURVE",
"661 1102 OFFCURVE",
"561 1102 CURVE SMOOTH",
"364 1102 OFFCURVE",
"216 1002 OFFCURVE",
"137 836 CURVE SMOOTH",
"98 753 OFFCURVE",
"78 658 OFFCURVE",
"78 551 CURVE SMOOTH",
"78 529 LINE SMOOTH",
"78 316 OFFCURVE",
"160 144 OFFCURVE",
"305 50 CURVE SMOOTH",
"377 3 OFFCURVE",
"463 -21 OFFCURVE",
"563 -21 CURVE SMOOTH"
);
},
{
closed = 1;
nodes = (
"436 133 OFFCURVE",
"350 206 OFFCURVE",
"307 326 CURVE SMOOTH",
"286 385 OFFCURVE",
"275 453 OFFCURVE",
"275 529 CURVE SMOOTH",
"275 551 LINE SMOOTH",
"275 703 OFFCURVE",
"318 827 OFFCURVE",
"403 896 CURVE SMOOTH",
"446 930 OFFCURVE",
"498 947 OFFCURVE",
"561 947 CURVE SMOOTH",
"688 947 OFFCURVE",
"773 874 OFFCURVE",
"817 755 CURVE SMOOTH",
"838 695 OFFCURVE",
"849 627 OFFCURVE",
"849 551 CURVE SMOOTH",
"849 529 LINE SMOOTH",
"849 377 OFFCURVE",
"805 253 OFFCURVE",
"721 185 CURVE SMOOTH",
"678 150 OFFCURVE",
"626 133 OFFCURVE",
"563 133 CURVE SMOOTH"
);
}
);
userData = {
assembly = "NPUSHB[ ]	/* 42 values pushed */\0120 3 3 1 97 0 1 1 40 77 5 1 2 2 0 97 4 1 0 0 38 0 78 19 18 1 0 28 26 18 35 19 35 10 8 0 17 1 17 6 8 22 \012CALL[ ]	/* CallFunction */";
};
width = 1124;
},
{
layerId = "E08E4BD2-F9DD-4A22-B137-462FE0EF4830";
paths = (
{
closed = 1;
nodes = (
"791 -21 OFFCURVE",
"946 78 OFFCURVE",
"1027 244 CURVE SMOOTH",
"1068 327 OFFCURVE",
"1088 422 OFFCURVE",
"1088 530 CURVE SMOOTH",
"1088 551 LINE SMOOTH",
"1088 767 OFFCURVE",
"1004 938 OFFCURVE",
"852 1032 CURVE SMOOTH",
"776 1079 OFFCURVE",
"684 1102 OFFCURVE",
"577 1102 CURVE SMOOTH",
"365 1102 OFFCURVE",
"209 1003 OFFCURVE",
"128 837 CURVE SMOOTH",
"87 754 OFFCURVE",
"67 658 OFFCURVE",
"67 551 CURVE SMOOTH",
"67 530 LINE SMOOTH",
"67 314 OFFCURVE",
"151 142 OFFCURVE",
"304 49 CURVE SMOOTH",
"381 2 OFFCURVE",
"472 -21 OFFCURVE",
"579 -21 CURVE SMOOTH"
);
},
{
closed = 1;
nodes = (
"476 203 OFFCURVE",
"412 259 OFFCURVE",
"382 358 CURVE SMOOTH",
"367 407 OFFCURVE",
"359 465 OFFCURVE",
"359 530 CURVE SMOOTH",
"359 551 LINE SMOOTH",
"359 679 OFFCURVE",
"388 780 OFFCURVE",
"453 836 CURVE SMOOTH",
"486 863 OFFCURVE",
"527 877 OFFCURVE",
"577 877 CURVE SMOOTH",
"680 877 OFFCURVE",
"743 819 OFFCURVE",
"774 721 CURVE SMOOTH",
"789 672 OFFCURVE",
"797 615 OFFCURVE",
"797 551 CURVE SMOOTH",
"797 530 LINE SMOOTH",
"797 399 OFFCURVE",
"767 299 OFFCURVE",
"703 244 CURVE SMOOTH",
"671 217 OFFCURVE",
"630 203 OFFCURVE",
"579 203 CURVE SMOOTH"
);
}
);
width = 1155;
},
{
layerId = "3540F6DD-AC2C-489F-A09A-29A5B6885314";
paths = (
{
closed = 1;
nodes = (
"809 -21 OFFCURVE",
"968 78 OFFCURVE",
"1052 244 CURVE SMOOTH",
"1093 327 OFFCURVE",
"1114 422 OFFCURVE",
"1114 531 CURVE SMOOTH",
"1114 551 LINE SMOOTH",
"1114 768 OFFCURVE",
"1028 939 OFFCURVE",
"872 1032 CURVE SMOOTH",
"793 1079 OFFCURVE",
"698 1102 OFFCURVE",
"587 1102 CURVE SMOOTH",
"366 1102 OFFCURVE",
"206 1002 OFFCURVE",
"123 837 CURVE SMOOTH",
"81 754 OFFCURVE",
"60 659 OFFCURVE",
"60 551 CURVE SMOOTH",
"60 531 LINE SMOOTH",
"60 312 OFFCURVE",
"146 141 OFFCURVE",
"304 49 CURVE SMOOTH",
"383 2 OFFCURVE",
"478 -21 OFFCURVE",
"589 -21 CURVE SMOOTH"
);
},
{
closed = 1;
nodes = (
"501 246 OFFCURVE",
"451 293 OFFCURVE",
"428 378 CURVE SMOOTH",
"417 421 OFFCURVE",
"411 472 OFFCURVE",
"411 531 CURVE SMOOTH",
"411 551 LINE SMOOTH",
"411 664 OFFCURVE",
"432 751 OFFCURVE",
"484 799 CURVE SMOOTH",
"510 822 OFFCURVE",
"544 834 OFFCURVE",
"587 834 CURVE SMOOTH",
"674 834 OFFCURVE",
"724 784 OFFCURVE",
"748 700 CURVE SMOOTH",
"759 657 OFFCURVE",
"765 608 OFFCURVE",
"765 551 CURVE SMOOTH",
"765 531 LINE SMOOTH",
"765 414 OFFCURVE",
"743 327 OFFCURVE",
"692 281 CURVE SMOOTH",
"666 258 OFFCURVE",
"632 246 OFFCURVE",
"589 246 CURVE SMOOTH"
);
}
);
width = 1174;
}
);
note = o;
unicode = 006F;
},
{
glyphname = p;
lastChange = "2021-05-27 10:38:11 +0000";
layers = (
{
layerId = "E37246A9-A376-4020-9DA5-E0C9FF7935B5";
paths = (
{
closed = 1;
nodes = (
"282 -362 LINE",
"282 168 LINE",
"353 52 OFFCURVE",
"482 -21 OFFCURVE",
"651 -21 CURVE SMOOTH",
"820 -21 OFFCURVE",
"944 71 OFFCURVE",
"1009 233 CURVE SMOOTH",
"1041 314 OFFCURVE",
"1057 410 OFFCURVE",
"1057 521 CURVE SMOOTH",
"1057 542 LINE SMOOTH",
"1057 770 OFFCURVE",
"990 942 OFFCURVE",
"868 1034 CURVE SMOOTH",
"807 1079 OFFCURVE",
"734 1102 OFFCURVE",
"649 1102 CURVE SMOOTH",
"478 1102 OFFCURVE",
"353 1021 OFFCURVE",
"281 888 CURVE",
"270 1082 LINE",
"65 1082 LINE",
"65 1028 LINE",
"228 1028 LINE",
"228 -362 LINE",
"65 -362 LINE",
"65 -416 LINE",
"445 -416 LINE",
"445 -362 LINE"
);
},
{
closed = 1;
nodes = (
"463 33 OFFCURVE",
"335 125 OFFCURVE",
"282 269 CURVE",
"282 775 LINE",
"331 928 OFFCURVE",
"441 1048 OFFCURVE",
"650 1048 CURVE SMOOTH",
"802 1048 OFFCURVE",
"908 958 OFFCURVE",
"962 806 CURVE SMOOTH",
"989 730 OFFCURVE",
"1002 642 OFFCURVE",
"1002 542 CURVE SMOOTH",
"1002 521 LINE SMOOTH",
"1002 222 OFFCURVE",
"880 33 OFFCURVE",
"652 33 CURVE SMOOTH"
);
}
);
width = 1161;
},
{
layerId = "142AFF07-46EF-45A1-8A7E-F20FA79F7038";
paths = (
{
closed = 1;
nodes = (
"334 -315 LINE",
"334 142 LINE",
"405 39 OFFCURVE",
"520 -21 OFFCURVE",
"673 -21 CURVE SMOOTH",
"845 -21 OFFCURVE",
"971 71 OFFCURVE",
"1037 230 CURVE SMOOTH",
"1070 309 OFFCURVE",
"1086 403 OFFCURVE",
"1086 511 CURVE SMOOTH",
"1086 532 LINE SMOOTH",
"1086 763 OFFCURVE",
"1018 938 OFFCURVE",
"894 1032 CURVE SMOOTH",
"831 1079 OFFCURVE",
"757 1102 OFFCURVE",
"670 1102 CURVE SMOOTH",
"515 1102 OFFCURVE",
"401 1034 OFFCURVE",
"329 917 CURVE",
"314 1082 LINE",
"51 1082 LINE",
"51 994 LINE",
"214 981 LINE",
"214 -315 LINE",
"55 -328 LINE",
"55 -416 LINE",
"501 -416 LINE",
"501 -328 LINE"
);
},
{
closed = 1;
nodes = (
"489 79 OFFCURVE",
"385 152 OFFCURVE",
"334 271 CURVE",
"334 787 LINE",
"383 910 OFFCURVE",
"479 999 OFFCURVE",
"643 999 CURVE SMOOTH",
"783 999 OFFCURVE",
"879 915 OFFCURVE",
"928 775 CURVE SMOOTH",
"953 705 OFFCURVE",
"965 624 OFFCURVE",
"965 532 CURVE SMOOTH",
"965 511 LINE SMOOTH",
"965 250 OFFCURVE",
"854 79 OFFCURVE",
"645 79 CURVE SMOOTH"
);
}
);
width = 1178;
},
{
layerId = "1A30CC2E-2F0E-43C1-8400-CBCC094AAC97";
paths = (
{
closed = 1;
nodes = (
"394 112 LINE",
"465 24 OFFCURVE",
"565 -21 OFFCURVE",
"698 -21 CURVE SMOOTH",
"874 -21 OFFCURVE",
"1001 71 OFFCURVE",
"1069 227 CURVE SMOOTH",
"1102 305 OFFCURVE",
"1119 396 OFFCURVE",
"1119 500 CURVE SMOOTH",
"1119 521 LINE SMOOTH",
"1119 754 OFFCURVE",
"1051 933 OFFCURVE",
"924 1030 CURVE SMOOTH",
"861 1078 OFFCURVE",
"784 1102 OFFCURVE",
"695 1102 CURVE SMOOTH",
"559 1102 OFFCURVE",
"456 1049 OFFCURVE",
"384 950 CURVE",
"366 1082 LINE",
"34 1082 LINE",
"34 955 LINE",
"197 927 LINE",
"197 -261 LINE",
"44 -289 LINE",
"44 -416 LINE",
"566 -416 LINE",
"566 -289 LINE",
"394 -261 LINE"
);
},
{
closed = 1;
nodes = (
"521 133 OFFCURVE",
"443 184 OFFCURVE",
"394 273 CURVE",
"394 800 LINE",
"443 888 OFFCURVE",
"523 942 OFFCURVE",
"635 942 CURVE SMOOTH",
"762 942 OFFCURVE",
"846 866 OFFCURVE",
"889 740 CURVE SMOOTH",
"910 677 OFFCURVE",
"921 604 OFFCURVE",
"921 521 CURVE SMOOTH",
"921 500 LINE SMOOTH",
"921 283 OFFCURVE",
"824 133 OFFCURVE",
"637 133 CURVE SMOOTH"
);
}
);
userData = {
assembly = "NPUSHB[ ]	/* 24 values pushed */\0128 5 2 5 1 38 37 4 3 4 5 23 1 3 4 25 24 3 2 4 0 3 4 76 \012MPPEM[ ]	/* MeasurePixelPerEm */\012PUSHB[ ]	/* 1 value pushed */\01225 \012LT[ ]	/* LessThan */\012IF[ ]	/* If */\012NPUSHB[ ]	/* 28 values pushed */\0120 5 5 1 97 2 1 1 1 34 77 6 1 4 4 3 97 0 3 3 38 77 0 0 0 36 0 78 \012ELSE[ ]	/* Else */\012NPUSHB[ ]	/* 32 values pushed */\0120 1 1 34 77 0 5 5 2 97 0 2 2 40 77 6 1 4 4 3 97 0 3 3 38 77 0 0 0 36 0 78 \012EIF[ ]	/* EndIf */\012NPUSHB[ ]	/* 15 values pushed */\01227 26 35 33 26 40 27 40 39 35 21 16 7 8 26 \012CALL[ ]	/* CallFunction */";
};
width = 1197;
},
{
layerId = "E08E4BD2-F9DD-4A22-B137-462FE0EF4830";
paths = (
{
closed = 1;
nodes = (
"488 -210 LINE",
"488 103 LINE",
"551 22 OFFCURVE",
"639 -21 OFFCURVE",
"755 -21 CURVE SMOOTH",
"931 -21 OFFCURVE",
"1058 72 OFFCURVE",
"1124 232 CURVE SMOOTH",
"1157 311 OFFCURVE",
"1173 404 OFFCURVE",
"1173 511 CURVE SMOOTH",
"1173 532 LINE SMOOTH",
"1173 760 OFFCURVE",
"1105 935 OFFCURVE",
"981 1031 CURVE SMOOTH",
"919 1078 OFFCURVE",
"844 1102 OFFCURVE",
"757 1102 CURVE SMOOTH",
"632 1102 OFFCURVE",
"543 1049 OFFCURVE",
"479 956 CURVE",
"465 1082 LINE",
"41 1082 LINE",
"41 906 LINE",
"197 876 LINE",
"197 -210 LINE",
"56 -240 LINE",
"56 -416 LINE",
"629 -416 LINE",
"629 -240 LINE"
);
},
{
closed = 1;
nodes = (
"585 203 OFFCURVE",
"524 236 OFFCURVE",
"488 297 CURVE",
"488 771 LINE",
"524 838 OFFCURVE",
"586 875 OFFCURVE",
"666 875 CURVE SMOOTH",
"765 875 OFFCURVE",
"827 814 OFFCURVE",
"858 712 CURVE SMOOTH",
"873 661 OFFCURVE",
"881 601 OFFCURVE",
"881 532 CURVE SMOOTH",
"881 511 LINE SMOOTH",
"881 322 OFFCURVE",
"817 203 OFFCURVE",
"668 203 CURVE SMOOTH"
);
}
);
width = 1240;
},
{
layerId = "3540F6DD-AC2C-489F-A09A-29A5B6885314";
paths = (
{
closed = 1;
nodes = (
"546 -178 LINE",
"546 97 LINE",
"605 20 OFFCURVE",
"684 -21 OFFCURVE",
"791 -21 CURVE SMOOTH",
"966 -21 OFFCURVE",
"1092 73 OFFCURVE",
"1158 235 CURVE SMOOTH",
"1191 316 OFFCURVE",
"1207 410 OFFCURVE",
"1207 518 CURVE SMOOTH",
"1207 539 LINE SMOOTH",
"1207 763 OFFCURVE",
"1139 938 OFFCURVE",
"1016 1032 CURVE SMOOTH",
"955 1079 OFFCURVE",
"881 1102 OFFCURVE",
"796 1102 CURVE SMOOTH",
"676 1102 OFFCURVE",
"597 1051 OFFCURVE",
"538 960 CURVE",
"526 1082 LINE",
"45 1082 LINE",
"45 876 LINE",
"197 844 LINE",
"197 -178 LINE",
"63 -210 LINE",
"63 -416 LINE",
"668 -416 LINE",
"668 -210 LINE"
);
},
{
closed = 1;
nodes = (
"626 246 OFFCURVE",
"574 268 OFFCURVE",
"546 312 CURVE",
"546 753 LINE",
"574 806 OFFCURVE",
"625 833 OFFCURVE",
"685 833 CURVE SMOOTH",
"768 833 OFFCURVE",
"816 782 OFFCURVE",
"839 694 CURVE SMOOTH",
"850 650 OFFCURVE",
"856 598 OFFCURVE",
"856 539 CURVE SMOOTH",
"856 518 LINE SMOOTH",
"856 346 OFFCURVE",
"814 246 OFFCURVE",
"687 246 CURVE SMOOTH"
);
}
);
width = 1267;
}
);
note = p;
unicode = 0070;
},
{
glyphname = q;
lastChange = "2021-05-27 10:38:11 +0000";
layers = (
{
layerId = "E37246A9-A376-4020-9DA5-E0C9FF7935B5";
paths = (
{
closed = 1;
nodes = (
"933 -362 LINE",
"933 1082 LINE",
"884 1082 LINE",
"879 886 LINE",
"806 1021 OFFCURVE",
"681 1102 OFFCURVE",
"512 1102 CURVE SMOOTH",
"341 1102 OFFCURVE",
"217 1007 OFFCURVE",
"153 839 CURVE SMOOTH",
"120 755 OFFCURVE",
"104 656 OFFCURVE",
"104 542 CURVE SMOOTH",
"104 521 LINE SMOOTH",
"104 298 OFFCURVE",
"171 133 OFFCURVE",
"292 45 CURVE SMOOTH",
"353 1 OFFCURVE",
"425 -21 OFFCURVE",
"510 -21 CURVE SMOOTH",
"679 -21 OFFCURVE",
"807 53 OFFCURVE",
"879 170 CURVE",
"879 -362 LINE",
"716 -362 LINE",
"716 -416 LINE",
"1096 -416 LINE",
"1096 -362 LINE"
);
},
{
closed = 1;
nodes = (
"280 33 OFFCURVE",
"160 222 OFFCURVE",
"160 521 CURVE SMOOTH",
"160 542 LINE SMOOTH",
"160 742 OFFCURVE",
"214 899 OFFCURVE",
"318 984 CURVE SMOOTH",
"370 1027 OFFCURVE",
"434 1048 OFFCURVE",
"511 1048 CURVE SMOOTH",
"716 1048 OFFCURVE",
"828 921 OFFCURVE",
"879 768 CURVE",
"879 274 LINE",
"826 127 OFFCURVE",
"700 33 OFFCURVE",
"509 33 CURVE SMOOTH"
);
}
);
width = 1136;
},
{
layerId = "142AFF07-46EF-45A1-8A7E-F20FA79F7038";
paths = (
{
closed = 1;
nodes = (
"956 -315 LINE",
"956 1082 LINE",
"851 1082 LINE",
"841 922 LINE",
"769 1035 OFFCURVE",
"656 1102 OFFCURVE",
"507 1102 CURVE SMOOTH",
"334 1102 OFFCURVE",
"206 1004 OFFCURVE",
"141 833 CURVE SMOOTH",
"108 748 OFFCURVE",
"92 647 OFFCURVE",
"92 532 CURVE SMOOTH",
"92 511 LINE SMOOTH",
"92 295 OFFCURVE",
"159 133 OFFCURVE",
"283 45 CURVE SMOOTH",
"345 1 OFFCURVE",
"419 -21 OFFCURVE",
"505 -21 CURVE SMOOTH",
"652 -21 OFFCURVE",
"765 38 OFFCURVE",
"836 139 CURVE",
"836 -315 LINE",
"673 -328 LINE",
"673 -416 LINE",
"1114 -416 LINE",
"1114 -328 LINE"
);
},
{
closed = 1;
nodes = (
"318 79 OFFCURVE",
"213 250 OFFCURVE",
"213 511 CURVE SMOOTH",
"213 532 LINE SMOOTH",
"213 717 OFFCURVE",
"261 862 OFFCURVE",
"354 942 CURVE SMOOTH",
"401 981 OFFCURVE",
"459 1001 OFFCURVE",
"529 1001 CURVE SMOOTH",
"689 1001 OFFCURVE",
"784 909 OFFCURVE",
"836 789 CURVE",
"836 273 LINE",
"783 153 OFFCURVE",
"680 79 OFFCURVE",
"527 79 CURVE SMOOTH"
);
}
);
width = 1137;
},
{
layerId = "1A30CC2E-2F0E-43C1-8400-CBCC094AAC97";
paths = (
{
closed = 1;
nodes = (
"982 1082 LINE",
"812 1082 LINE",
"796 963 LINE",
"727 1054 OFFCURVE",
"628 1102 OFFCURVE",
"501 1102 CURVE SMOOTH",
"324 1102 OFFCURVE",
"195 1001 OFFCURVE",
"128 826 CURVE SMOOTH",
"95 739 OFFCURVE",
"78 637 OFFCURVE",
"78 521 CURVE SMOOTH",
"78 500 LINE SMOOTH",
"78 292 OFFCURVE",
"147 132 OFFCURVE",
"273 45 CURVE SMOOTH",
"336 1 OFFCURVE",
"411 -21 OFFCURVE",
"499 -21 CURVE SMOOTH",
"620 -21 OFFCURVE",
"716 21 OFFCURVE",
"785 102 CURVE",
"785 -261 LINE",
"622 -289 LINE",
"622 -416 LINE",
"1135 -416 LINE",
"1135 -289 LINE",
"982 -261 LINE"
);
},
{
closed = 1;
nodes = (
"362 133 OFFCURVE",
"275 281 OFFCURVE",
"275 500 CURVE SMOOTH",
"275 521 LINE SMOOTH",
"275 688 OFFCURVE",
"315 820 OFFCURVE",
"396 893 CURVE SMOOTH",
"437 929 OFFCURVE",
"488 947 OFFCURVE",
"551 947 CURVE SMOOTH",
"656 947 OFFCURVE",
"733 895 OFFCURVE",
"785 814 CURVE",
"785 271 LINE",
"733 183 OFFCURVE",
"658 133 OFFCURVE",
"549 133 CURVE SMOOTH"
);
}
);
userData = {
assembly = "MPPEM[ ]	/* MeasurePixelPerEm */\012PUSHB[ ]	/* 1 value pushed */\01225 \012LT[ ]	/* LessThan */\012IF[ ]	/* If */\012NPUSHB[ ]	/* 22 values pushed */\01219 1 5 2 28 27 2 4 5 4 1 1 4 23 22 3 2 4 0 1 4 76 \012ELSE[ ]	/* Else */\012NPUSHB[ ]	/* 22 values pushed */\01219 1 5 3 28 27 2 4 5 4 1 1 4 23 22 3 2 4 0 1 4 76 \012EIF[ ]	/* EndIf */\012MPPEM[ ]	/* MeasurePixelPerEm */\012PUSHB[ ]	/* 1 value pushed */\01225 \012LT[ ]	/* LessThan */\012IF[ ]	/* If */\012NPUSHB[ ]	/* 28 values pushed */\0120 5 5 2 97 3 1 2 2 40 77 6 1 4 4 1 97 0 1 1 38 77 0 0 0 36 0 78 \012ELSE[ ]	/* Else */\012NPUSHB[ ]	/* 32 values pushed */\0120 3 3 34 77 0 5 5 2 97 0 2 2 40 77 6 1 4 4 1 97 0 1 1 38 77 0 0 0 36 0 78 \012EIF[ ]	/* EndIf */\012NPUSHB[ ]	/* 15 values pushed */\01225 24 32 30 24 38 25 38 19 39 37 16 7 8 26 \012CALL[ ]	/* CallFunction */";
};
width = 1139;
},
{
layerId = "E08E4BD2-F9DD-4A22-B137-462FE0EF4830";
paths = (
{
closed = 1;
nodes = (
"1039 -210 LINE",
"1039 1082 LINE",
"785 1082 LINE",
"763 952 LINE",
"698 1048 OFFCURVE",
"609 1102 OFFCURVE",
"482 1102 CURVE SMOOTH",
"309 1102 OFFCURVE",
"183 1002 OFFCURVE",
"117 831 CURVE SMOOTH",
"84 746 OFFCURVE",
"67 646 OFFCURVE",
"67 532 CURVE SMOOTH",
"67 511 LINE SMOOTH",
"67 298 OFFCURVE",
"135 134 OFFCURVE",
"259 46 CURVE SMOOTH",
"321 1 OFFCURVE",
"396 -21 OFFCURVE",
"483 -21 CURVE SMOOTH",
"598 -21 OFFCURVE",
"682 20 OFFCURVE",
"747 100 CURVE",
"747 -210 LINE",
"576 -244 LINE",
"576 -416 LINE",
"1170 -416 LINE",
"1170 -239 LINE"
);
},
{
closed = 1;
nodes = (
"417 203 OFFCURVE",
"359 320 OFFCURVE",
"359 511 CURVE SMOOTH",
"359 532 LINE SMOOTH",
"359 669 OFFCURVE",
"386 777 OFFCURVE",
"449 834 CURVE SMOOTH",
"480 863 OFFCURVE",
"521 877 OFFCURVE",
"570 877 CURVE SMOOTH",
"649 877 OFFCURVE",
"708 841 OFFCURVE",
"747 777 CURVE",
"747 296 LINE",
"708 235 OFFCURVE",
"647 203 OFFCURVE",
"568 203 CURVE SMOOTH"
);
}
);
width = 1156;
},
{
layerId = "3540F6DD-AC2C-489F-A09A-29A5B6885314";
paths = (
{
closed = 1;
nodes = (
"1074 -178 LINE",
"1074 1082 LINE",
"769 1082 LINE",
"742 945 LINE",
"679 1044 OFFCURVE",
"598 1102 OFFCURVE",
"470 1102 CURVE SMOOTH",
"299 1102 OFFCURVE",
"174 1003 OFFCURVE",
"109 835 CURVE SMOOTH",
"76 750 OFFCURVE",
"60 652 OFFCURVE",
"60 539 CURVE SMOOTH",
"60 518 LINE SMOOTH",
"60 302 OFFCURVE",
"127 135 OFFCURVE",
"251 46 CURVE SMOOTH",
"312 1 OFFCURVE",
"386 -21 OFFCURVE",
"473 -21 CURVE SMOOTH",
"584 -21 OFFCURVE",
"662 19 OFFCURVE",
"723 99 CURVE",
"723 -178 LINE",
"547 -216 LINE",
"547 -416 LINE",
"1191 -416 LINE",
"1191 -208 LINE"
);
},
{
closed = 1;
nodes = (
"452 246 OFFCURVE",
"411 345 OFFCURVE",
"411 518 CURVE SMOOTH",
"411 539 LINE SMOOTH",
"411 658 OFFCURVE",
"431 749 OFFCURVE",
"482 798 CURVE SMOOTH",
"507 822 OFFCURVE",
"541 834 OFFCURVE",
"582 834 CURVE SMOOTH",
"643 834 OFFCURVE",
"692 807 OFFCURVE",
"723 754 CURVE",
"723 312 LINE",
"692 267 OFFCURVE",
"640 246 OFFCURVE",
"580 246 CURVE SMOOTH"
);
}
);
width = 1167;
}
);
note = q;
unicode = 0071;
},
{
glyphname = r;
lastChange = "2021-05-27 10:38:11 +0000";
layers = (
{
layerId = "E37246A9-A376-4020-9DA5-E0C9FF7935B5";
paths = (
{
closed = 1;
nodes = (
"306 54 LINE",
"306 709 LINE",
"342 913 OFFCURVE",
"466 1049 OFFCURVE",
"659 1049 CURVE",
"749 1042 LINE",
"755 1090 LINE",
"736 1095 OFFCURVE",
"690 1102 OFFCURVE",
"659 1102 CURVE SMOOTH",
"486 1102 OFFCURVE",
"366 1012 OFFCURVE",
"306 857 CURVE",
"306 894 LINE",
"296 1082 LINE",
"89 1082 LINE",
"89 1028 LINE",
"252 1028 LINE",
"252 54 LINE",
"89 54 LINE",
"89 0 LINE",
"469 0 LINE",
"469 54 LINE"
);
}
);
width = 823;
},
{
layerId = "142AFF07-46EF-45A1-8A7E-F20FA79F7038";
paths = (
{
closed = 1;
nodes = (
"364 100 LINE",
"364 736 LINE",
"401 888 OFFCURVE",
"500 989 OFFCURVE",
"653 985 CURVE SMOOTH",
"764 978 LINE",
"779 1088 LINE",
"760 1095 OFFCURVE",
"713 1102 OFFCURVE",
"677 1102 CURVE SMOOTH",
"530 1102 OFFCURVE",
"424 1023 OFFCURVE",
"363 888 CURVE",
"362 917 LINE",
"349 1082 LINE",
"81 1082 LINE",
"81 994 LINE",
"244 981 LINE",
"244 100 LINE",
"81 87 LINE",
"81 0 LINE",
"527 0 LINE",
"527 87 LINE"
);
}
);
width = 837;
},
{
layerId = "1A30CC2E-2F0E-43C1-8400-CBCC094AAC97";
paths = (
{
closed = 1;
nodes = (
"432 767 LINE",
"471 858 OFFCURVE",
"541 918 OFFCURVE",
"645 911 CURVE SMOOTH",
"782 903 LINE",
"808 1086 LINE",
"789 1093 OFFCURVE",
"739 1102 OFFCURVE",
"698 1102 CURVE SMOOTH",
"582 1102 OFFCURVE",
"491 1036 OFFCURVE",
"430 925 CURVE",
"428 944 LINE",
"411 1082 LINE",
"72 1082 LINE",
"72 955 LINE",
"235 927 LINE",
"235 154 LINE",
"72 126 LINE",
"72 0 LINE",
"595 0 LINE",
"595 126 LINE",
"432 154 LINE"
);
}
);
userData = {
assembly = "NPUSHB[ ]	/* 16 values pushed */\0129 5 4 3 3 1 22 21 20 3 2 5 0 3 2 76 \012MPPEM[ ]	/* MeasurePixelPerEm */\012PUSHB[ ]	/* 1 value pushed */\01225 \012LT[ ]	/* LessThan */\012IF[ ]	/* If */\012NPUSHB[ ]	/* 17 values pushed */\0120 3 3 1 97 2 1 1 1 34 77 0 0 0 32 0 78 \012ELSE[ ]	/* Else */\012NPUSHB[ ]	/* 21 values pushed */\0120 1 1 34 77 0 3 3 2 97 0 2 2 40 77 0 0 0 32 0 78 \012EIF[ ]	/* EndIf */\012PUSHB[ ]	/* 7 values pushed */\01235 36 21 16 4 8 26 \012CALL[ ]	/* CallFunction */";
};
width = 854;
},
{
layerId = "E08E4BD2-F9DD-4A22-B137-462FE0EF4830";
paths = (
{
closed = 1;
nodes = (
"517 205 LINE",
"517 735 LINE",
"557 795 OFFCURVE",
"603 829 OFFCURVE",
"686 825 CURVE SMOOTH",
"831 817 LINE",
"862 1086 LINE",
"830 1095 OFFCURVE",
"785 1102 OFFCURVE",
"750 1102 CURVE SMOOTH",
"641 1102 OFFCURVE",
"563 1041 OFFCURVE",
"510 924 CURVE",
"508 948 LINE",
"497 1082 LINE",
"70 1082 LINE",
"70 906 LINE",
"225 876 LINE",
"225 205 LINE",
"85 175 LINE",
"85 0 LINE",
"657 0 LINE",
"657 175 LINE"
);
}
);
width = 886;
},
{
layerId = "3540F6DD-AC2C-489F-A09A-29A5B6885314";
paths = (
{
closed = 1;
nodes = (
"570 237 LINE",
"570 715 LINE",
"610 756 OFFCURVE",
"642 774 OFFCURVE",
"711 771 CURVE SMOOTH",
"861 764 LINE",
"896 1086 LINE",
"855 1098 OFFCURVE",
"812 1102 OFFCURVE",
"783 1102 CURVE SMOOTH",
"676 1102 OFFCURVE",
"608 1046 OFFCURVE",
"560 923 CURVE",
"558 950 LINE",
"550 1082 LINE",
"69 1082 LINE",
"69 876 LINE",
"219 844 LINE",
"219 237 LINE",
"93 205 LINE",
"93 0 LINE",
"696 0 LINE",
"696 205 LINE"
);
}
);
width = 906;
}
);
note = r;
unicode = 0072;
},
{
glyphname = s;
lastChange = "2021-05-27 10:38:11 +0000";
layers = (
{
layerId = "E37246A9-A376-4020-9DA5-E0C9FF7935B5";
paths = (
{
closed = 1;
nodes = (
"716 -21 OFFCURVE",
"867 95 OFFCURVE",
"867 264 CURVE SMOOTH",
"867 437 OFFCURVE",
"742 531 OFFCURVE",
"499 584 CURVE SMOOTH",
"324 623 OFFCURVE",
"240 667 OFFCURVE",
"208 726 CURVE SMOOTH",
"191 755 OFFCURVE",
"183 789 OFFCURVE",
"183 828 CURVE SMOOTH",
"183 940 OFFCURVE",
"282 1048 OFFCURVE",
"478 1048 CURVE SMOOTH",
"619 1048 OFFCURVE",
"709 1005 OFFCURVE",
"778 928 CURVE",
"778 753 LINE",
"832 753 LINE",
"832 955 LINE",
"751 1044 OFFCURVE",
"633 1102 OFFCURVE",
"478 1102 CURVE SMOOTH",
"334 1102 OFFCURVE",
"227 1050 OFFCURVE",
"171 967 CURVE SMOOTH",
"143 925 OFFCURVE",
"129 878 OFFCURVE",
"129 826 CURVE SMOOTH",
"129 661 OFFCURVE",
"228 585 OFFCURVE",
"483 532 CURVE SMOOTH",
"727 479 OFFCURVE",
"813 380 OFFCURVE",
"813 265 CURVE SMOOTH",
"813 142 OFFCURVE",
"687 33 OFFCURVE",
"487 33 CURVE SMOOTH",
"358 33 OFFCURVE",
"236 68 OFFCURVE",
"157 152 CURVE",
"157 315 LINE",
"103 315 LINE",
"103 122 LINE",
"192 33 OFFCURVE",
"330 -21 OFFCURVE",
"487 -21 CURVE SMOOTH"
);
}
);
width = 1009;
},
{
layerId = "142AFF07-46EF-45A1-8A7E-F20FA79F7038";
paths = (
{
closed = 1;
nodes = (
"756 -21 OFFCURVE",
"897 105 OFFCURVE",
"897 281 CURVE SMOOTH",
"897 448 OFFCURVE",
"783 548 OFFCURVE",
"512 609 CURVE SMOOTH",
"388 638 OFFCURVE",
"294 674 OFFCURVE",
"263 730 CURVE SMOOTH",
"249 754 OFFCURVE",
"242 782 OFFCURVE",
"242 815 CURVE SMOOTH",
"242 915 OFFCURVE",
"333 1003 OFFCURVE",
"496 1003 CURVE SMOOTH",
"611 1003 OFFCURVE",
"687 970 OFFCURVE",
"747 913 CURVE",
"761 753 LINE",
"859 753 LINE",
"854 975 LINE",
"770 1052 OFFCURVE",
"655 1102 OFFCURVE",
"496 1102 CURVE SMOOTH",
"344 1102 OFFCURVE",
"228 1047 OFFCURVE",
"167 959 CURVE SMOOTH",
"136 915 OFFCURVE",
"121 866 OFFCURVE",
"121 811 CURVE SMOOTH",
"121 644 OFFCURVE",
"229 560 OFFCURVE",
"488 504 CURVE SMOOTH",
"704 456 OFFCURVE",
"777 376 OFFCURVE",
"777 275 CURVE SMOOTH",
"777 167 OFFCURVE",
"680 76 OFFCURVE",
"499 76 CURVE SMOOTH",
"391 76 OFFCURVE",
"295 101 OFFCURVE",
"218 161 CURVE",
"201 320 LINE",
"103 320 LINE",
"104 98 LINE",
"219 21 OFFCURVE",
"347 -21 OFFCURVE",
"499 -21 CURVE SMOOTH"
);
}
);
width = 1015;
},
{
layerId = "1A30CC2E-2F0E-43C1-8400-CBCC094AAC97";
paths = (
{
closed = 1;
nodes = (
"803 -21 OFFCURVE",
"933 118 OFFCURVE",
"933 301 CURVE SMOOTH",
"933 461 OFFCURVE",
"829 567 OFFCURVE",
"528 638 CURVE SMOOTH",
"428 662 OFFCURVE",
"351 691 OFFCURVE",
"327 733 CURVE SMOOTH",
"316 752 OFFCURVE",
"310 774 OFFCURVE",
"310 799 CURVE SMOOTH",
"310 886 OFFCURVE",
"394 950 OFFCURVE",
"517 950 CURVE SMOOTH",
"600 950 OFFCURVE",
"663 931 OFFCURVE",
"710 896 CURVE",
"742 752 LINE",
"890 752 LINE",
"880 999 LINE",
"793 1062 OFFCURVE",
"681 1102 OFFCURVE",
"517 1102 CURVE SMOOTH",
"356 1102 OFFCURVE",
"231 1043 OFFCURVE",
"163 951 CURVE SMOOTH",
"129 904 OFFCURVE",
"112 852 OFFCURVE",
"112 793 CURVE SMOOTH",
"112 625 OFFCURVE",
"232 531 OFFCURVE",
"493 471 CURVE SMOOTH",
"677 430 OFFCURVE",
"736 372 OFFCURVE",
"736 287 CURVE SMOOTH",
"736 196 OFFCURVE",
"672 127 OFFCURVE",
"512 127 CURVE SMOOTH",
"431 127 OFFCURVE",
"365 140 OFFCURVE",
"290 171 CURVE",
"253 326 LINE",
"104 326 LINE",
"106 69 LINE",
"249 8 OFFCURVE",
"367 -21 OFFCURVE",
"512 -21 CURVE SMOOTH"
);
}
);
userData = {
assembly = "NPUSHB[ ]	/* 66 values pushed */\01225 1 5 3 3 1 0 2 2 76 0 4 5 1 5 4 1 128 0 1 2 5 1 2 126 0 5 5 3 97 0 3 3 40 77 0 2 2 0 97 6 1 0 0 38 0 78 1 0 32 30 27 26 23 21 10 8 5 4 0 43 1 43 7 8 22 \012CALL[ ]	/* CallFunction */";
};
width = 1022;
},
{
layerId = "E08E4BD2-F9DD-4A22-B137-462FE0EF4830";
paths = (
{
closed = 1;
nodes = (
"818 -21 OFFCURVE",
"964 115 OFFCURVE",
"964 316 CURVE SMOOTH",
"964 500 OFFCURVE",
"847 592 OFFCURVE",
"579 653 CURVE SMOOTH",
"490 674 OFFCURVE",
"418 702 OFFCURVE",
"397 738 CURVE SMOOTH",
"387 754 OFFCURVE",
"382 771 OFFCURVE",
"382 790 CURVE SMOOTH",
"382 855 OFFCURVE",
"438 901 OFFCURVE",
"541 901 CURVE SMOOTH",
"602 901 OFFCURVE",
"651 888 OFFCURVE",
"687 861 CURVE",
"718 719 LINE",
"920 719 LINE",
"917 1015 LINE",
"825 1066 OFFCURVE",
"686 1100 OFFCURVE",
"523 1100 CURVE SMOOTH",
"328 1100 OFFCURVE",
"205 1035 OFFCURVE",
"145 936 CURVE SMOOTH",
"114 887 OFFCURVE",
"99 832 OFFCURVE",
"99 772 CURVE SMOOTH",
"99 597 OFFCURVE",
"217 486 OFFCURVE",
"473 433 CURVE SMOOTH",
"558 416 OFFCURVE",
"614 396 OFFCURVE",
"643 373 CURVE SMOOTH",
"671 350 OFFCURVE",
"685 323 OFFCURVE",
"685 293 CURVE SMOOTH",
"685 229 OFFCURVE",
"638 181 OFFCURVE",
"507 181 CURVE SMOOTH",
"438 181 OFFCURVE",
"385 195 OFFCURVE",
"340 218 CURVE",
"301 374 LINE",
"98 374 LINE",
"101 68 LINE",
"229 11 OFFCURVE",
"366 -21 OFFCURVE",
"527 -21 CURVE SMOOTH"
);
}
);
width = 1034;
},
{
layerId = "3540F6DD-AC2C-489F-A09A-29A5B6885314";
paths = (
{
closed = 1;
nodes = (
"827 -21 OFFCURVE",
"983 113 OFFCURVE",
"983 326 CURVE SMOOTH",
"983 525 OFFCURVE",
"858 607 OFFCURVE",
"611 662 CURVE SMOOTH",
"527 681 OFFCURVE",
"461 707 OFFCURVE",
"441 741 CURVE SMOOTH",
"432 756 OFFCURVE",
"427 770 OFFCURVE",
"427 785 CURVE SMOOTH",
"427 836 OFFCURVE",
"467 871 OFFCURVE",
"556 871 CURVE SMOOTH",
"604 871 OFFCURVE",
"642 860 OFFCURVE",
"673 839 CURVE",
"703 699 LINE",
"939 699 LINE",
"940 1025 LINE",
"845 1068 OFFCURVE",
"689 1099 OFFCURVE",
"526 1099 CURVE SMOOTH",
"313 1099 OFFCURVE",
"189 1030 OFFCURVE",
"133 927 CURVE SMOOTH",
"105 876 OFFCURVE",
"91 820 OFFCURVE",
"91 759 CURVE SMOOTH",
"91 580 OFFCURVE",
"208 458 OFFCURVE",
"461 409 CURVE SMOOTH",
"540 394 OFFCURVE",
"592 378 OFFCURVE",
"617 359 CURVE SMOOTH",
"641 340 OFFCURVE",
"653 319 OFFCURVE",
"653 296 CURVE SMOOTH",
"653 273 OFFCURVE",
"642 253 OFFCURVE",
"621 238 CURVE SMOOTH",
"600 223 OFFCURVE",
"561 215 OFFCURVE",
"504 215 CURVE SMOOTH",
"443 215 OFFCURVE",
"399 230 OFFCURVE",
"371 247 CURVE",
"331 404 LINE",
"94 404 LINE",
"98 67 LINE",
"217 12 OFFCURVE",
"365 -21 OFFCURVE",
"536 -21 CURVE SMOOTH"
);
}
);
width = 1041;
}
);
note = s;
unicode = 0073;
},
